<?xml version="1.0" encoding="UTF-8" standalone="no"?>
<svg
   width="240.94502pt"
   height="198.42499pt"
   viewBox="0 0 240.94503 198.42498"
   version="1.1"
   id="svg63"
   xml:space="preserve"
   xmlns:xlink="http://www.w3.org/1999/xlink"
   xmlns="http://www.w3.org/2000/svg"
   xmlns:svg="http://www.w3.org/2000/svg"><defs
     id="defs1"><style
       type="text/css"
       id="style1">*{stroke-linejoin: round; stroke-linecap: butt}</style><clipPath
       clipPathUnits="userSpaceOnUse"
       id="clipPath35"><path
         d="M 0,198.425 H 240.945 V 0 H 0 Z"
         id="path35" /></clipPath><clipPath
       clipPathUnits="userSpaceOnUse"
       id="clipPath60"><path
         d="M 0,198.425 H 240.945 V 0 H 0 Z"
         transform="matrix(0,1.0000125,1,0,-81.912105,-7.0093874)"
         id="path60-0" /></clipPath></defs><g
     id="figure_1"
     transform="matrix(0.574,0,0,0.574,2.3287298,-9.6319266)"><g
       id="patch_1"
       transform="matrix(0.91094801,0,0,1.000255,-4.0570209,16.78036)"><path
         d="M 0,345.6 H 460.8 V 0 H 0 Z"
         style="fill:#ffffff"
         id="path1" /></g><g
       id="axes_1"><g
         id="line2d_41"><defs
           id="defs27"><path
             id="m04409a93dc"
             d="M 0,3 C 0.795609,3 1.55874,2.683901 2.12132,2.12132 2.683901,1.55874 3,0.795609 3,0 3,-0.795609 2.683901,-1.55874 2.12132,-2.12132 1.55874,-2.683901 0.795609,-3 0,-3 -0.795609,-3 -1.55874,-2.683901 -2.12132,-2.12132 -2.683901,-1.55874 -3,-0.795609 -3,0 -3,0.795609 -2.683901,1.55874 -2.12132,2.12132 -1.55874,2.683901 -0.795609,3 0,3 Z"
             style="stroke:#00adef" /></defs><g
           clip-path="url(#p985cd9363d)"
           id="dot0">
            <use
   xlink:href="#m04409a93dc"
   x="73.832726"
   y="295.48801"
   style="fill:#00adef;stroke:#00adef"
   id="use27"><animate
     attributeName="y"
     values="295.48801;297.38327;295.48801"
     keyTimes="0;0.5;1"
     dur="5s"
     repeatCount="indefinite" /></use>
            <use
   xlink:href="#m04409a93dc"
   x="94.123634"
   y="290.40302"
   style="fill:#00adef;stroke:#00adef"
   id="use28"><animate
     attributeName="y"
     values="290.40302;295.48801;290.40302"
     keyTimes="0;0.5;1"
     dur="5s"
     repeatCount="indefinite" /></use>
            <use
   xlink:href="#m04409a93dc"
   x="114.41454"
   y="278.74243"
   style="fill:#00adef;stroke:#00adef"
   id="use29"><animate
     attributeName="y"
     values="278.74243;290.40302;278.74243"
     keyTimes="0;0.5;1"
     dur="5s"
     repeatCount="indefinite" /></use>
            <use
   xlink:href="#m04409a93dc"
   x="134.70546"
   y="256.02484"
   style="fill:#00adef;stroke:#00adef"
   id="use30"><animate
     attributeName="y"
     values="256.02484;278.74243;256.02484"
     keyTimes="0;0.5;1"
     dur="5s"
     repeatCount="indefinite" /></use>
            <use
   xlink:href="#m04409a93dc"
   x="154.99637"
   y="218.78345"
   style="fill:#00adef;stroke:#00adef"
   id="use31"><animate
     attributeName="y"
     values="218.78345;256.02484;218.78345"
     keyTimes="0;0.5;1"
     dur="5s"
     repeatCount="indefinite" /></use>
            <use
   xlink:href="#m04409a93dc"
   x="175.28728"
   y="168.27959"
   style="fill:#00adef;stroke:#00adef"
   id="use32"><animate
     attributeName="y"
     values="168.27959;218.78345;168.27959"
     keyTimes="0;0.5;1"
     dur="5s"
     repeatCount="indefinite" /></use>
            <use
   xlink:href="#m04409a93dc"
   x="195.57819"
   y="113.54347"
   style="fill:#00adef;stroke:#00adef"
   id="use33"><animate
     attributeName="y"
     values="113.54347;168.27959;113.54347"
     keyTimes="0;0.5;1"
     dur="5s"
     repeatCount="indefinite" /></use>
            <use
   xlink:href="#m04409a93dc"
   x="215.86909"
   y="70.178291"
   style="fill:#00adef;stroke:#00adef"
   id="use34"><animate
     attributeName="y"
     values="70.178291;113.54347;70.178291"
     keyTimes="0;0.5;1"
     dur="5s"
     repeatCount="indefinite" /></use>
            <use
   xlink:href="#m04409a93dc"
   x="236.16"
   y="53.568001"
   style="fill:#00adef;stroke:#00adef"
   id="use35"><animate
     attributeName="y"
     values="53.568001;70.178291;53.568001"
     keyTimes="0;0.5;1"
     dur="5s"
     repeatCount="indefinite" /></use>
            <use
   xlink:href="#m04409a93dc"
   x="256.4509"
   y="70.178291"
   style="fill:#00adef;stroke:#00adef"
   id="use36"><animate
     attributeName="y"
     values="70.178291;53.568001;70.178291"
     keyTimes="0;0.5;1"
     dur="5s"
     repeatCount="indefinite" /></use>
            <use
   xlink:href="#m04409a93dc"
   x="276.74182"
   y="113.54347"
   style="fill:#00adef;stroke:#00adef"
   id="use37"><animate
     attributeName="y"
     values="113.54347;70.178291;113.54347"
     keyTimes="0;0.5;1"
     dur="5s"
     repeatCount="indefinite" /></use>
            <use
   xlink:href="#m04409a93dc"
   x="297.03271"
   y="168.27959"
   style="fill:#00adef;stroke:#00adef"
   id="use38"><animate
     attributeName="y"
     values="168.27959;113.54347;168.27959"
     keyTimes="0;0.5;1"
     dur="5s"
     repeatCount="indefinite" /></use>
            <use
   xlink:href="#m04409a93dc"
   x="317.32364"
   y="218.78345"
   style="fill:#00adef;stroke:#00adef"
   id="use39"><animate
     attributeName="y"
     values="218.78345;168.27959;218.78345"
     keyTimes="0;0.5;1"
     dur="5s"
     repeatCount="indefinite" /></use>
            <use
   xlink:href="#m04409a93dc"
   x="337.61453"
   y="256.02484"
   style="fill:#00adef;stroke:#00adef"
   id="use40"><animate
     attributeName="y"
     values="256.02484;218.78345;256.02484"
     keyTimes="0;0.5;1"
     dur="5s"
     repeatCount="indefinite" /></use>
            <use
   xlink:href="#m04409a93dc"
   x="357.90546"
   y="278.74243"
   style="fill:#00adef;stroke:#00adef"
   id="use41"><animate
     attributeName="y"
     values="278.74243;256.02484;278.74243"
     keyTimes="0;0.5;1"
     dur="5s"
     repeatCount="indefinite" /></use>
            <use
   xlink:href="#m04409a93dc"
   x="378.19635"
   y="290.40302"
   style="fill:#00adef;stroke:#00adef"
   id="use42"><animate
     attributeName="y"
     values="290.40302;278.74243;290.40302"
     keyTimes="0;0.5;1"
     dur="5s"
     repeatCount="indefinite" /></use>
           </g></g><g
         id="line2d_42" /><g
         id="line2d_43"><path
   d="m 73.832727,295.5401 4.058182,-0.22449 4.058182,-0.3045 4.058182,-0.46335 4.058182,-0.67987 4.058181,-0.93026 4.058182,-1.19733 4.058182,-1.47384 4.05818,-1.75934 4.05818,-2.05659 4.05819,-2.37174 4.05818,-2.71635 4.05818,-3.10387 4.05818,-3.54066 4.05818,-4.02059 4.05818,-4.53234 4.05819,-5.07162 4.05818,-5.64263 4.05818,-6.24433 4.05818,-6.85928 4.05818,-7.46275 4.05818,-8.04325 4.05819,-8.6072 4.05818,-9.15767 4.05818,-9.67319 4.05818,-10.11669 4.05818,-10.46633 4.05819,-10.72842 4.05818,-10.91372 4.05818,-11.00655 4.05818,-10.96865 4.05818,-10.77481 4.05818,-10.43496 4.05819,-9.97482 4.05818,-9.400402 4.05818,-8.691497 4.05818,-7.830957 4.05818,-6.831965 4.05819,-5.731509 4.05818,-4.561056 4.05818,-3.329496 4.05818,-2.034449 4.05818,-0.685654 4.05818,0.684762 4.05819,2.033854 4.05818,3.329446 4.05818,4.561688 4.05818,5.732796 4.05818,6.833655 4.05819,7.832575 4.05818,8.692387 4.05818,9.399882 4.05818,9.97242 4.05818,10.43067 4.05818,10.76937 4.05819,10.96362 4.05818,11.00407 4.05818,10.91609 4.05818,10.7372 4.05818,10.48136 4.05819,10.13533 4.05818,9.68998 4.05818,9.1651 4.05818,8.59757 4.05818,8.01155 4.05819,7.41006 4.05818,6.79548 4.05818,6.18875 4.05818,5.62139 4.05818,5.1108 4.05819,4.64764 4.05818,4.20566 4.05818,3.75761 4.05818,3.28118 4.05818,2.75788 4.05818,2.17949 4.05818,1.56443 4.05819,0.97042 4.05818,0.48897 4.05818,0.2203"
   clip-path="url(#p985cd9363d)"
   style="fill:none;stroke:#d00f6e;stroke-width:1.30662021;stroke-linecap:square;stroke-dasharray:none"
   id="filt0">
          <animate
   attributeName="d"
   dur="5s"
   repeatCount="indefinite"
   values="               m 73.832727,295.5401 4.058182,-0.22449 4.058182,-0.3045 4.058182,-0.46335 4.058182,-0.67987 4.058181,-0.93026 4.058182,-1.19733 4.058182,-1.47384 4.05818,-1.75934 4.05818,-2.05659 4.05819,-2.37174 4.05818,-2.71635 4.05818,-3.10387 4.05818,-3.54066 4.05818,-4.02059 4.05818,-4.53234 4.05819,-5.07162 4.05818,-5.64263 4.05818,-6.24433 4.05818,-6.85928 4.05818,-7.46275 4.05818,-8.04325 4.05819,-8.6072 4.05818,-9.15767 4.05818,-9.67319 4.05818,-10.11669 4.05818,-10.46633 4.05819,-10.72842 4.05818,-10.91372 4.05818,-11.00655 4.05818,-10.96865 4.05818,-10.77481 4.05818,-10.43496 4.05819,-9.97482 4.05818,-9.400402 4.05818,-8.691497 4.05818,-7.830957 4.05818,-6.831965 4.05819,-5.731509 4.05818,-4.561056 4.05818,-3.329496 4.05818,-2.034449 4.05818,-0.685654 4.05818,0.684762 4.05819,2.033854 4.05818,3.329446 4.05818,4.561688 4.05818,5.732796 4.05818,6.833655 4.05819,7.832575 4.05818,8.692387 4.05818,9.399882 4.05818,9.97242 4.05818,10.43067 4.05818,10.76937 4.05819,10.96362 4.05818,11.00407 4.05818,10.91609 4.05818,10.7372 4.05818,10.48136 4.05819,10.13533 4.05818,9.68998 4.05818,9.1651 4.05818,8.59757 4.05818,8.01155 4.05819,7.41006 4.05818,6.79548 4.05818,6.18875 4.05818,5.62139 4.05818,5.1108 4.05819,4.64764 4.05818,4.20566 4.05818,3.75761 4.05818,3.28118 4.05818,2.75788 4.05818,2.17949 4.05818,1.56443 4.05819,0.97042 4.05818,0.48897 4.05818,0.2203;               m 73.832727,297.41181 4.058182,-0.0898 4.058182,-0.11509 4.058182,-0.16983 4.058182,-0.24891 4.058181,-0.34598 4.058182,-0.45656 4.058182,-0.57906 4.05818,-0.71406 4.05818,-0.86329 4.05819,-1.0304 4.05818,-1.2218 4.05818,-1.44499 4.05818,-1.70435 4.05818,-1.99935 4.05818,-2.32817 4.05819,-2.69318 4.05818,-3.10021 4.05818,-3.55077 4.05818,-4.03719 4.05818,-4.54889 4.05818,-5.08386 4.05819,-5.64884 4.05818,-6.24494 4.05818,-6.85604 4.05818,-7.45779 4.05818,-8.03844 4.05819,-8.60375 4.05818,-9.15601 4.05818,-9.67317 4.05818,-10.11778 4.05818,-10.46786 4.05818,-10.72985 4.05819,-10.91468 4.05818,-11.00688 4.05818,-10.96843 4.05818,-10.77422 4.05818,-10.43424 4.05819,-9.97426 4.05818,-9.400208 4.05818,-8.691793 4.05818,-7.831736 4.05818,-6.83306 4.05818,-5.732597 4.05819,-4.561695 4.05818,-3.32923 4.05818,-2.032957 4.05818,-0.682931 4.05818,0.688255 4.05819,2.037129 4.05818,3.331105 4.05818,4.560258 4.05818,5.727254 4.05818,6.824063 4.05818,7.820608 4.05819,8.681511 4.05818,9.394914 4.05818,9.97837 4.05818,10.45081 4.05818,10.80316 4.05819,11.00485 4.05818,11.04044 4.05818,10.9309 4.05818,10.71353 4.05818,10.40873 4.05819,10.01703 4.05818,9.54894 4.05818,9.04506 4.05818,8.5566 4.05818,8.10666 4.05819,7.67406 4.05818,7.21109 4.05818,6.66852 4.05818,6.00375 4.05818,5.18176 4.05818,4.19201 4.05818,3.08215 4.05819,1.98011 4.05818,1.07799 4.05818,0.57751;               m 73.832727,295.5401 4.058182,-0.22449 4.058182,-0.3045 4.058182,-0.46335 4.058182,-0.67987 4.058181,-0.93026 4.058182,-1.19733 4.058182,-1.47384 4.05818,-1.75934 4.05818,-2.05659 4.05819,-2.37174 4.05818,-2.71635 4.05818,-3.10387 4.05818,-3.54066 4.05818,-4.02059 4.05818,-4.53234 4.05819,-5.07162 4.05818,-5.64263 4.05818,-6.24433 4.05818,-6.85928 4.05818,-7.46275 4.05818,-8.04325 4.05819,-8.6072 4.05818,-9.15767 4.05818,-9.67319 4.05818,-10.11669 4.05818,-10.46633 4.05819,-10.72842 4.05818,-10.91372 4.05818,-11.00655 4.05818,-10.96865 4.05818,-10.77481 4.05818,-10.43496 4.05819,-9.97482 4.05818,-9.400402 4.05818,-8.691497 4.05818,-7.830957 4.05818,-6.831965 4.05819,-5.731509 4.05818,-4.561056 4.05818,-3.329496 4.05818,-2.034449 4.05818,-0.685654 4.05818,0.684762 4.05819,2.033854 4.05818,3.329446 4.05818,4.561688 4.05818,5.732796 4.05818,6.833655 4.05819,7.832575 4.05818,8.692387 4.05818,9.399882 4.05818,9.97242 4.05818,10.43067 4.05818,10.76937 4.05819,10.96362 4.05818,11.00407 4.05818,10.91609 4.05818,10.7372 4.05818,10.48136 4.05819,10.13533 4.05818,9.68998 4.05818,9.1651 4.05818,8.59757 4.05818,8.01155 4.05819,7.41006 4.05818,6.79548 4.05818,6.18875 4.05818,5.62139 4.05818,5.1108 4.05819,4.64764 4.05818,4.20566 4.05818,3.75761 4.05818,3.28118 4.05818,2.75788 4.05818,2.17949 4.05818,1.56443 4.05819,0.97042 4.05818,0.48897 4.05818,0.2203"
   keyTimes="0;0.5;1" />
           </path>
           </g><g
         id="line2d_44"><defs
           id="defs43" /></g></g></g><defs
     id="defs63"><clipPath
       id="p985cd9363d"><rect
         x="57.599998"
         y="41.472"
         width="357.12"
         height="266.112"
         id="rect63" /></clipPath></defs><g
     id="g1"
     transform="matrix(0.75000004,0,0,0.74999997,-2.4867916e-7,-5.14e-6)"><g
       id="g65"><path
         id="path34"
         d="M 240.378,32.025 H 35.429 v 152.227 h 204.949 z"
         style="fill:none;stroke:#231f20;stroke-width:0.5;stroke-linecap:round;stroke-linejoin:round;stroke-miterlimit:4;stroke-dasharray:none;stroke-opacity:1"
         transform="matrix(1.3333333,0,0,-1.3333333,0,264.56667)"
         clip-path="url(#clipPath35)" /><path
         id="path36"
         d="M 0,0 H -3.685"
         style="fill:none;stroke:#231f20;stroke-width:0.5;stroke-linecap:round;stroke-linejoin:round;stroke-miterlimit:22.926;stroke-dasharray:none;stroke-opacity:1"
         transform="matrix(1.3333333,0,0,-1.3333333,52.154933,27.489467)" /><path
         style="font-weight:300;font-size:8px;font-family:'ZI Akkurat';fill:#231f20"
         d="M 1.704,-5.048 V 0 h 0.4 v -5.544 h -0.36 l -1.52,1.08 v 0.448 z M 3.6159938,-0.72 V 0 h 0.704 v -0.72 z m 3.512003,0.832 c 0.536,0 0.92,-0.208 1.184,-0.456 0.6,-0.552 0.688,-1.552 0.688,-2.432 0,-0.872 -0.096,-1.856 -0.688,-2.424 -0.264,-0.256 -0.648,-0.456 -1.184,-0.456 -0.536,0 -0.912,0.208 -1.184,0.456 -0.6,0.552 -0.688,1.552 -0.688,2.424 0,0.88 0.088,1.88 0.688,2.432 0.272,0.248 0.648,0.456 1.184,0.456 z m 0,-0.384 c -0.408,0 -0.704,-0.136 -0.912,-0.328 -0.528,-0.488 -0.552,-1.448 -0.552,-2.176 0,-0.72 0.024,-1.68 0.552,-2.168 0.208,-0.192 0.504,-0.328 0.912,-0.328 0.416,0 0.704,0.128 0.92,0.328 0.528,0.488 0.552,1.448 0.552,2.168 0,0.728 -0.032,1.688 -0.552,2.176 -0.208,0.2 -0.504,0.328 -0.92,0.328 z"
         id="text36"
         transform="matrix(1.3333333,0,0,1.3333333,29.041733,30.452133)"
         aria-label="1.0" /><path
         id="path37"
         d="M 0,0 H -3.685"
         style="fill:none;stroke:#231f20;stroke-width:0.5;stroke-linecap:round;stroke-linejoin:round;stroke-miterlimit:22.926;stroke-dasharray:none;stroke-opacity:1"
         transform="matrix(1.3333333,0,0,-1.3333333,52.154933,64.981067)" /><path
         style="font-weight:300;font-size:8px;font-family:'ZI Akkurat';fill:#231f20"
         d="m 2.4,0.112 c 0.536,0 0.92,-0.208 1.184,-0.456 0.6,-0.552 0.688,-1.552 0.688,-2.432 C 4.272,-3.648 4.176,-4.632 3.584,-5.2 3.32,-5.456 2.936,-5.656 2.4,-5.656 c -0.536,0 -0.912,0.208 -1.184,0.456 -0.6,0.552 -0.688,1.552 -0.688,2.424 0,0.88 0.088,1.88 0.688,2.432 0.272,0.248 0.648,0.456 1.184,0.456 z m 0,-0.384 C 1.992,-0.272 1.696,-0.408 1.488,-0.6 0.96,-1.088 0.936,-2.048 0.936,-2.776 c 0,-0.72 0.024,-1.68 0.552,-2.168 0.208,-0.192 0.504,-0.328 0.912,-0.328 0.416,0 0.704,0.128 0.92,0.328 0.528,0.488 0.552,1.448 0.552,2.168 0,0.728 -0.032,1.688 -0.552,2.176 -0.208,0.2 -0.504,0.328 -0.92,0.328 z M 5.2080043,-0.72 V 0 h 0.704 v -0.72 z m 3.7280018,0.832 c 0.992,0 1.8399999,-0.584 1.8399999,-1.576 0,-0.624 -0.4,-1.224 -1.0319999,-1.432 0.5439999,-0.2 0.9039999,-0.728 0.9039999,-1.28 0,-0.928 -0.7599999,-1.48 -1.7119999,-1.48 -0.952,0 -1.712,0.552 -1.712,1.48 0,0.552 0.36,1.08 0.904,1.28 -0.632,0.208 -1.032,0.808 -1.032,1.432 0,0.992 0.848,1.576 1.84,1.576 z m 0,-3.184 c -0.728,0 -1.296,-0.392 -1.296,-1.12 0,-0.712 0.584,-1.104 1.296,-1.104 0.712,0 1.2959999,0.392 1.2959999,1.104 0,0.728 -0.5679999,1.12 -1.2959999,1.12 z m 0,2.816 c -0.792,0 -1.432,-0.44 -1.432,-1.232 0,-0.792 0.64,-1.232 1.432,-1.232 0.792,0 1.4319999,0.44 1.4319999,1.232 0,0.792 -0.6399999,1.232 -1.4319999,1.232 z"
         id="text37"
         transform="matrix(1.3333333,0,0,1.3333333,26.716133,67.9456)"
         aria-label="0.8" /><path
         id="path38"
         d="M 0,0 H -3.685"
         style="fill:none;stroke:#231f20;stroke-width:0.5;stroke-linecap:round;stroke-linejoin:round;stroke-miterlimit:22.926;stroke-dasharray:none;stroke-opacity:1"
         transform="matrix(1.3333333,0,0,-1.3333333,52.154933,102.42293)" /><path
         style="font-weight:300;font-size:8px;font-family:'ZI Akkurat';fill:#231f20"
         d="m 2.4,0.112 c 0.536,0 0.92,-0.208 1.184,-0.456 0.6,-0.552 0.688,-1.552 0.688,-2.432 C 4.272,-3.648 4.176,-4.632 3.584,-5.2 3.32,-5.456 2.936,-5.656 2.4,-5.656 c -0.536,0 -0.912,0.208 -1.184,0.456 -0.6,0.552 -0.688,1.552 -0.688,2.424 0,0.88 0.088,1.88 0.688,2.432 0.272,0.248 0.648,0.456 1.184,0.456 z m 0,-0.384 C 1.992,-0.272 1.696,-0.408 1.488,-0.6 0.96,-1.088 0.936,-2.048 0.936,-2.776 c 0,-0.72 0.024,-1.68 0.552,-2.168 0.208,-0.192 0.504,-0.328 0.912,-0.328 0.416,0 0.704,0.128 0.92,0.328 0.528,0.488 0.552,1.448 0.552,2.168 0,0.728 -0.032,1.688 -0.552,2.176 -0.208,0.2 -0.504,0.328 -0.92,0.328 z M 5.2080043,-0.72 V 0 h 0.704 v -0.72 z m 3.6159961,0.832 c 1.152,0 1.8079996,-0.84 1.8079996,-1.864 0,-1.096 -0.6639996,-1.84 -1.8159996,-1.84 -0.656,0 -1.264,0.392 -1.464,0.976 0,-1.32 0.256,-2.656 1.496,-2.656 0.768,0 1.1919996,0.424 1.2479996,1.064 h 0.408 C 10.456,-5.08 9.7840004,-5.656 8.8480004,-5.656 c -0.576,0 -0.992,0.248 -1.256,0.528 -0.544,0.584 -0.656,1.504 -0.656,2.352 0,0.792 0.088,1.64 0.512,2.208 0.264,0.352 0.728,0.68 1.376,0.68 z m 0.008,-0.384 c -0.888,0 -1.368,-0.72 -1.368,-1.496 0,-0.808 0.56,-1.456 1.36,-1.456 0.96,0 1.3999996,0.704 1.3999996,1.472 0,0.776 -0.4319996,1.48 -1.3919996,1.48 z"
         id="text38"
         transform="matrix(1.3333333,0,0,1.3333333,26.705733,105.38573)"
         aria-label="0.6" /><path
         id="path39"
         d="M 0,0 H -3.685"
         style="fill:none;stroke:#231f20;stroke-width:0.5;stroke-linecap:round;stroke-linejoin:round;stroke-miterlimit:22.926;stroke-dasharray:none;stroke-opacity:1"
         transform="matrix(1.3333333,0,0,-1.3333333,52.154933,139.80973)" /><path
         style="font-weight:300;font-size:8px;font-family:'ZI Akkurat';fill:#231f20"
         d="m 2.4,0.112 c 0.536,0 0.92,-0.208 1.184,-0.456 0.6,-0.552 0.688,-1.552 0.688,-2.432 C 4.272,-3.648 4.176,-4.632 3.584,-5.2 3.32,-5.456 2.936,-5.656 2.4,-5.656 c -0.536,0 -0.912,0.208 -1.184,0.456 -0.6,0.552 -0.688,1.552 -0.688,2.424 0,0.88 0.088,1.88 0.688,2.432 0.272,0.248 0.648,0.456 1.184,0.456 z m 0,-0.384 C 1.992,-0.272 1.696,-0.408 1.488,-0.6 0.96,-1.088 0.936,-2.048 0.936,-2.776 c 0,-0.72 0.024,-1.68 0.552,-2.168 0.208,-0.192 0.504,-0.328 0.912,-0.328 0.416,0 0.704,0.128 0.92,0.328 0.528,0.488 0.552,1.448 0.552,2.168 0,0.728 -0.032,1.688 -0.552,2.176 -0.208,0.2 -0.504,0.328 -0.92,0.328 z M 5.2080043,-0.72 V 0 h 0.704 V -0.72 Z M 9.6080061,0 h 0.4079999 v -1.304 h 0.824 v -0.4 h -0.824 V -3.536 H 9.6080061 v 1.832 h -2.36 l 2.464,-3.84 h -0.472 l -2.4,3.76 v 0.48 h 2.768 z"
         id="text39"
         transform="matrix(1.3333333,0,0,1.3333333,26.9616,142.7704)"
         aria-label="0.4" /><path
         id="path40"
         d="M 0,0 H -3.685"
         style="fill:none;stroke:#231f20;stroke-width:0.5;stroke-linecap:round;stroke-linejoin:round;stroke-miterlimit:22.926;stroke-dasharray:none;stroke-opacity:1"
         transform="matrix(1.3333333,0,0,-1.3333333,52.154933,177.24973)" /><path
         style="font-weight:300;font-size:8px;font-family:'ZI Akkurat';fill:#231f20"
         d="m 2.4,0.112 c 0.536,0 0.92,-0.208 1.184,-0.456 0.6,-0.552 0.688,-1.552 0.688,-2.432 C 4.272,-3.648 4.176,-4.632 3.584,-5.2 3.32,-5.456 2.936,-5.656 2.4,-5.656 c -0.536,0 -0.912,0.208 -1.184,0.456 -0.6,0.552 -0.688,1.552 -0.688,2.424 0,0.88 0.088,1.88 0.688,2.432 0.272,0.248 0.648,0.456 1.184,0.456 z m 0,-0.384 C 1.992,-0.272 1.696,-0.408 1.488,-0.6 0.96,-1.088 0.936,-2.048 0.936,-2.776 c 0,-0.72 0.024,-1.68 0.552,-2.168 0.208,-0.192 0.504,-0.328 0.912,-0.328 0.416,0 0.704,0.128 0.92,0.328 0.528,0.488 0.552,1.448 0.552,2.168 0,0.728 -0.032,1.688 -0.552,2.176 -0.208,0.2 -0.504,0.328 -0.92,0.328 z M 5.2080043,-0.72 V 0 h 0.704 V -0.72 Z M 7.0640061,0 H 10.472006 V -0.384 H 7.5200061 l 2.168,-2.312 c 0.3999999,-0.424 0.6399999,-0.952 0.6399999,-1.448 0,-0.928 -0.6959999,-1.512 -1.6079999,-1.512 -0.984,0 -1.664,0.688 -1.664,1.808 h 0.424 c 0,-0.904 0.448,-1.424 1.24,-1.424 0.76,0 1.208,0.472 1.208,1.128 0,0.416 -0.184,0.816 -0.552,1.216 l -2.312,2.496 z"
         id="text40"
         transform="matrix(1.3333333,0,0,1.3333333,27.238933,180.2112)"
         aria-label="0.2" /><path
         id="path41"
         d="M 0,0 H -3.685"
         style="fill:none;stroke:#231f20;stroke-width:0.5;stroke-linecap:round;stroke-linejoin:round;stroke-miterlimit:22.926;stroke-dasharray:none;stroke-opacity:1"
         transform="matrix(1.3333333,0,0,-1.3333333,52.154933,214.68987)" /><path
         style="font-weight:300;font-size:8px;font-family:'ZI Akkurat';fill:#231f20"
         d="m 2.4,0.112 c 0.536,0 0.92,-0.208 1.184,-0.456 0.6,-0.552 0.688,-1.552 0.688,-2.432 C 4.272,-3.648 4.176,-4.632 3.584,-5.2 3.32,-5.456 2.936,-5.656 2.4,-5.656 c -0.536,0 -0.912,0.208 -1.184,0.456 -0.6,0.552 -0.688,1.552 -0.688,2.424 0,0.88 0.088,1.88 0.688,2.432 0.272,0.248 0.648,0.456 1.184,0.456 z m 0,-0.384 C 1.992,-0.272 1.696,-0.408 1.488,-0.6 0.96,-1.088 0.936,-2.048 0.936,-2.776 c 0,-0.72 0.024,-1.68 0.552,-2.168 0.208,-0.192 0.504,-0.328 0.912,-0.328 0.416,0 0.704,0.128 0.92,0.328 0.528,0.488 0.552,1.448 0.552,2.168 0,0.728 -0.032,1.688 -0.552,2.176 -0.208,0.2 -0.504,0.328 -0.92,0.328 z M 5.2080043,-0.72 V 0 h 0.704 v -0.72 z m 3.512003,0.832 c 0.536,0 0.92,-0.208 1.184,-0.456 0.5999997,-0.552 0.6879997,-1.552 0.6879997,-2.432 0,-0.872 -0.096,-1.856 -0.6879997,-2.424 -0.264,-0.256 -0.648,-0.456 -1.184,-0.456 -0.536,0 -0.912,0.208 -1.184,0.456 -0.6,0.552 -0.688,1.552 -0.688,2.424 0,0.88 0.088,1.88 0.688,2.432 0.272,0.248 0.648,0.456 1.184,0.456 z m 0,-0.384 c -0.408,0 -0.704,-0.136 -0.912,-0.328 -0.528,-0.488 -0.552,-1.448 -0.552,-2.176 0,-0.72 0.024,-1.68 0.552,-2.168 0.208,-0.192 0.504,-0.328 0.912,-0.328 0.416,0 0.704,0.128 0.92,0.328 0.5279997,0.488 0.5519997,1.448 0.5519997,2.168 0,0.728 -0.032,1.688 -0.5519997,2.176 -0.208,0.2 -0.504,0.328 -0.92,0.328 z"
         id="text41"
         transform="matrix(1.3333333,0,0,1.3333333,26.5456,217.6532)"
         aria-label="0.0" /><path
         id="path42-9"
         d="M 0,0 V -3.685"
         style="fill:none;stroke:#231f20;stroke-width:0.5;stroke-linecap:round;stroke-linejoin:round;stroke-miterlimit:22.926;stroke-dasharray:none;stroke-opacity:1"
         transform="matrix(1.3333333,0,0,-1.3333333,59.651733,216.95293)" /><path
         style="font-weight:300;font-size:5.5px;font-family:'ZI Akkurat';fill:#231f20"
         d="m 1.65,0.077 c 0.3685,0 0.6325,-0.143 0.814,-0.3135 0.4125,-0.3795 0.473,-1.067 0.473,-1.672 0,-0.5995 -0.066,-1.276 -0.473,-1.6665 -0.1815,-0.176 -0.4455,-0.3135 -0.814,-0.3135 -0.3685,0 -0.627,0.143 -0.814,0.3135 -0.4125,0.3795 -0.473,1.067 -0.473,1.6665 0,0.605 0.0605,1.2925 0.473,1.672 C 1.023,-0.066 1.2815,0.077 1.65,0.077 Z m 0,-0.264 C 1.3695,-0.187 1.166,-0.2805 1.023,-0.4125 0.66,-0.748 0.6435,-1.408 0.6435,-1.9085 c 0,-0.495 0.0165,-1.155 0.3795,-1.4905 0.143,-0.132 0.3465,-0.2255 0.627,-0.2255 0.286,0 0.484,0.088 0.6325,0.2255 0.363,0.3355 0.3795,0.9955 0.3795,1.4905 0,0.5005 -0.022,1.1605 -0.3795,1.496 C 2.1395,-0.275 1.936,-0.187 1.65,-0.187 Z M 3.5805029,-0.495 V 0 h 0.484 V -0.495 Z M 5.995005,0.077 c 0.3685,0 0.6325,-0.143 0.814,-0.3135 0.4125,-0.3795 0.473,-1.067 0.473,-1.672 0,-0.5995 -0.066,-1.276 -0.473,-1.6665 -0.1815,-0.176 -0.4455,-0.3135 -0.814,-0.3135 -0.3685,0 -0.627,0.143 -0.814,0.3135 -0.4125,0.3795 -0.473,1.067 -0.473,1.6665 0,0.605 0.0605,1.2925 0.473,1.672 0.187,0.1705 0.4455,0.3135 0.814,0.3135 z m 0,-0.264 c -0.2805,0 -0.484,-0.0935 -0.627,-0.2255 -0.363,-0.3355 -0.3795,-0.9955 -0.3795,-1.496 0,-0.495 0.0165,-1.155 0.3795,-1.4905 0.143,-0.132 0.3465,-0.2255 0.627,-0.2255 0.286,0 0.484,0.088 0.6325,0.2255 0.363,0.3355 0.3795,0.9955 0.3795,1.4905 0,0.5005 -0.022,1.1605 -0.3795,1.496 -0.143,0.1375 -0.3465,0.2255 -0.6325,0.2255 z"
         id="text42"
         transform="matrix(1.3333333,0,0,1.3333333,54.298133,235.5856)"
         aria-label="0.0" /><path
         id="path43-9"
         d="M 0,0 V -3.685"
         style="fill:none;stroke:#231f20;stroke-width:0.5;stroke-linecap:round;stroke-linejoin:round;stroke-miterlimit:22.926;stroke-dasharray:none;stroke-opacity:1"
         transform="matrix(1.3333333,0,0,-1.3333333,75.178,216.95293)" /><path
         style="font-weight:300;font-size:5.5px;font-family:'ZI Akkurat';fill:#231f20"
         d="m 1.65,0.077 c 0.3685,0 0.6325,-0.143 0.814,-0.3135 0.4125,-0.3795 0.473,-1.067 0.473,-1.672 0,-0.5995 -0.066,-1.276 -0.473,-1.6665 -0.1815,-0.176 -0.4455,-0.3135 -0.814,-0.3135 -0.3685,0 -0.627,0.143 -0.814,0.3135 -0.4125,0.3795 -0.473,1.067 -0.473,1.6665 0,0.605 0.0605,1.2925 0.473,1.672 C 1.023,-0.066 1.2815,0.077 1.65,0.077 Z m 0,-0.264 C 1.3695,-0.187 1.166,-0.2805 1.023,-0.4125 0.66,-0.748 0.6435,-1.408 0.6435,-1.9085 c 0,-0.495 0.0165,-1.155 0.3795,-1.4905 0.143,-0.132 0.3465,-0.2255 0.627,-0.2255 0.286,0 0.484,0.088 0.6325,0.2255 0.363,0.3355 0.3795,0.9955 0.3795,1.4905 0,0.5005 -0.022,1.1605 -0.3795,1.496 C 2.1395,-0.275 1.936,-0.187 1.65,-0.187 Z M 3.5805029,-0.495 V 0 h 0.484 v -0.495 z m 2.5135013,0.572 c 0.7975,0 1.232,-0.5775 1.232,-1.2705 0,-0.726 -0.4015,-1.276 -1.188,-1.276 -0.341,0 -0.7095,0.132 -0.9185,0.4015 l 0.1265,-1.485 h 1.848 v -0.2585 h -2.0845 l -0.154,2.0185 h 0.3245 c 0.1815,-0.286 0.517,-0.418 0.858,-0.418 0.6105,0 0.913,0.462 0.913,1.0175 0,0.5775 -0.3465,1.0065 -0.957,1.0065 -0.5775,0 -0.9515,-0.3795 -0.979,-0.9185 h -0.275 c 0.0165,0.671 0.495,1.1825 1.254,1.1825 z"
         id="text43"
         transform="matrix(1.3333333,0,0,1.3333333,69.960933,235.5856)"
         aria-label="0.5" /><path
         id="path44"
         d="M 0,0 V -3.685"
         style="fill:none;stroke:#231f20;stroke-width:0.5;stroke-linecap:round;stroke-linejoin:round;stroke-miterlimit:22.926;stroke-dasharray:none;stroke-opacity:1"
         transform="matrix(1.3333333,0,0,-1.3333333,90.704267,216.95293)" /><path
         style="font-weight:300;font-size:5.5px;font-family:'ZI Akkurat';fill:#231f20"
         d="M 1.1715,-3.4705 V 0 h 0.275 V -3.8115 H 1.199 L 0.154,-3.069 v 0.308 z M 2.4859957,-0.495 V 0 h 0.484 v -0.495 z m 2.4145021,0.572 c 0.3685,0 0.6325,-0.143 0.814,-0.3135 0.4125,-0.3795 0.473,-1.067 0.473,-1.672 0,-0.5995 -0.066,-1.276 -0.473,-1.6665 -0.1815,-0.176 -0.4455,-0.3135 -0.814,-0.3135 -0.3685,0 -0.627,0.143 -0.814,0.3135 -0.4125,0.3795 -0.473,1.067 -0.473,1.6665 0,0.605 0.0605,1.2925 0.473,1.672 0.187,0.1705 0.4455,0.3135 0.814,0.3135 z m 0,-0.264 c -0.2805,0 -0.484,-0.0935 -0.627,-0.2255 -0.363,-0.3355 -0.3795,-0.9955 -0.3795,-1.496 0,-0.495 0.0165,-1.155 0.3795,-1.4905 0.143,-0.132 0.3465,-0.2255 0.627,-0.2255 0.286,0 0.484,0.088 0.6325,0.2255 0.363,0.3355 0.3795,0.9955 0.3795,1.4905 0,0.5005 -0.022,1.1605 -0.3795,1.496 -0.143,0.1375 -0.3465,0.2255 -0.6325,0.2255 z"
         id="text44"
         transform="matrix(1.3333333,0,0,1.3333333,86.208933,235.5856)"
         aria-label="1.0" /><path
         id="path45"
         d="M 0,0 V -3.685"
         style="fill:none;stroke:#231f20;stroke-width:0.5;stroke-linecap:round;stroke-linejoin:round;stroke-miterlimit:22.926;stroke-dasharray:none;stroke-opacity:1"
         transform="matrix(1.3333333,0,0,-1.3333333,106.23067,216.95293)" /><path
         style="font-weight:300;font-size:5.5px;font-family:'ZI Akkurat';fill:#231f20"
         d="M 1.1715,-3.4705 V 0 h 0.275 V -3.8115 H 1.199 L 0.154,-3.069 v 0.308 z M 2.4859957,-0.495 V 0 h 0.484 V -0.495 Z M 4.999497,0.077 c 0.7975,0 1.232,-0.5775 1.232,-1.2705 0,-0.726 -0.4015,-1.276 -1.188,-1.276 -0.341,0 -0.7095,0.132 -0.9185,0.4015 l 0.1265,-1.485 h 1.848 v -0.2585 h -2.0845 l -0.154,2.0185 h 0.3245 c 0.1815,-0.286 0.517,-0.418 0.858,-0.418 0.6105,0 0.913,0.462 0.913,1.0175 0,0.5775 -0.3465,1.0065 -0.957,1.0065 -0.5775,0 -0.9515,-0.3795 -0.979,-0.9185 h -0.275 c 0.0165,0.671 0.495,1.1825 1.254,1.1825 z"
         id="text45"
         transform="matrix(1.3333333,0,0,1.3333333,101.87107,235.5856)"
         aria-label="1.5" /><path
         id="path46"
         d="M 0,0 V -3.685"
         style="fill:none;stroke:#231f20;stroke-width:0.5;stroke-linecap:round;stroke-linejoin:round;stroke-miterlimit:22.926;stroke-dasharray:none;stroke-opacity:1"
         transform="matrix(1.3333333,0,0,-1.3333333,121.75693,216.95293)" /><path
         style="font-weight:300;font-size:5.5px;font-family:'ZI Akkurat';fill:#231f20"
         d="M 0.319,0 H 2.662 V -0.264 H 0.6325 L 2.123,-1.8535 c 0.275,-0.2915 0.44,-0.6545 0.44,-0.9955 0,-0.638 -0.4785,-1.0395 -1.1055,-1.0395 -0.6765,0 -1.144,0.473 -1.144,1.243 H 0.605 c 0,-0.6215 0.308,-0.979 0.8525,-0.979 0.5225,0 0.8305,0.3245 0.8305,0.7755 0,0.286 -0.1265,0.561 -0.3795,0.836 L 0.319,-0.297 Z M 3.4705004,-0.495 V 0 h 0.484 v -0.495 z m 2.4145021,0.572 c 0.3685,0 0.6325,-0.143 0.814,-0.3135 0.4125,-0.3795 0.473,-1.067 0.473,-1.672 0,-0.5995 -0.066,-1.276 -0.473,-1.6665 -0.1815,-0.176 -0.4455,-0.3135 -0.814,-0.3135 -0.3685,0 -0.627,0.143 -0.814,0.3135 -0.4125,0.3795 -0.473,1.067 -0.473,1.6665 0,0.605 0.0605,1.2925 0.473,1.672 0.187,0.1705 0.4455,0.3135 0.814,0.3135 z m 0,-0.264 c -0.2805,0 -0.484,-0.0935 -0.627,-0.2255 -0.363,-0.3355 -0.3795,-0.9955 -0.3795,-1.496 0,-0.495 0.0165,-1.155 0.3795,-1.4905 0.143,-0.132 0.3465,-0.2255 0.627,-0.2255 0.286,0 0.484,0.088 0.6325,0.2255 0.363,0.3355 0.3795,0.9955 0.3795,1.4905 0,0.5005 -0.022,1.1605 -0.3795,1.496 -0.143,0.1375 -0.3465,0.2255 -0.6325,0.2255 z"
         id="text46"
         transform="matrix(1.3333333,0,0,1.3333333,116.64253,235.5856)"
         aria-label="2.0" /><path
         id="path47"
         d="M 0,0 V -3.685"
         style="fill:none;stroke:#231f20;stroke-width:0.5;stroke-linecap:round;stroke-linejoin:round;stroke-miterlimit:22.926;stroke-dasharray:none;stroke-opacity:1"
         transform="matrix(1.3333333,0,0,-1.3333333,137.2832,216.95293)" /><path
         style="font-weight:300;font-size:5.5px;font-family:'ZI Akkurat';fill:#231f20"
         d="M 0.319,0 H 2.662 V -0.264 H 0.6325 L 2.123,-1.8535 c 0.275,-0.2915 0.44,-0.6545 0.44,-0.9955 0,-0.638 -0.4785,-1.0395 -1.1055,-1.0395 -0.6765,0 -1.144,0.473 -1.144,1.243 H 0.605 c 0,-0.6215 0.308,-0.979 0.8525,-0.979 0.5225,0 0.8305,0.3245 0.8305,0.7755 0,0.286 -0.1265,0.561 -0.3795,0.836 L 0.319,-0.297 Z M 3.4705004,-0.495 V 0 h 0.484 v -0.495 z m 2.5135013,0.572 c 0.7975,0 1.232,-0.5775 1.232,-1.2705 0,-0.726 -0.4015,-1.276 -1.188,-1.276 -0.341,0 -0.7095,0.132 -0.9185,0.4015 l 0.1265,-1.485 h 1.848 v -0.2585 h -2.0845 l -0.154,2.0185 h 0.3245 c 0.1815,-0.286 0.517,-0.418 0.858,-0.418 0.6105,0 0.913,0.462 0.913,1.0175 0,0.5775 -0.3465,1.0065 -0.957,1.0065 -0.5775,0 -0.9515,-0.3795 -0.979,-0.9185 h -0.275 c 0.0165,0.671 0.495,1.1825 1.254,1.1825 z"
         id="text47"
         transform="matrix(1.3333333,0,0,1.3333333,132.304,235.5856)"
         aria-label="2.5" /><path
         id="path48"
         d="M 0,0 V -3.685"
         style="fill:none;stroke:#231f20;stroke-width:0.5;stroke-linecap:round;stroke-linejoin:round;stroke-miterlimit:22.926;stroke-dasharray:none;stroke-opacity:1"
         transform="matrix(1.3333333,0,0,-1.3333333,152.80947,216.95293)" /><path
         style="font-weight:300;font-size:5.5px;font-family:'ZI Akkurat';fill:#231f20"
         d="m 1.551,0.077 c 0.6985,0 1.232,-0.462 1.232,-1.0945 0,-0.4565 -0.275,-0.8525 -0.7535,-0.968 0.44,-0.1155 0.6655,-0.473 0.6655,-0.8855 0,-0.605 -0.5005,-1.0175 -1.1385,-1.0175 -0.704,0 -1.21,0.462 -1.221,1.144 H 0.616 c 0.0055,-0.5115 0.3575,-0.88 0.9405,-0.88 0.4675,0 0.858,0.3135 0.858,0.7535 0,0.5115 -0.3575,0.7535 -0.88,0.7535 H 1.32 v 0.264 h 0.2145 c 0.5775,0 0.9625,0.264 0.9625,0.836 0,0.484 -0.363,0.8305 -0.946,0.8305 -0.6545,0 -0.957,-0.4565 -0.9625,-0.9405 H 0.308 C 0.3245,-0.4345 0.7755,0.077 1.551,0.077 Z M 3.5970044,-0.495 V 0 h 0.484 v -0.495 z m 2.4145021,0.572 c 0.3685,0 0.6325,-0.143 0.814,-0.3135 0.4125,-0.3795 0.473,-1.067 0.473,-1.672 0,-0.5995 -0.066,-1.276 -0.473,-1.6665 -0.1815,-0.176 -0.4455,-0.3135 -0.814,-0.3135 -0.3685,0 -0.627,0.143 -0.814,0.3135 -0.4125,0.3795 -0.473,1.067 -0.473,1.6665 0,0.605 0.0605,1.2925 0.473,1.672 0.187,0.1705 0.4455,0.3135 0.814,0.3135 z m 0,-0.264 c -0.2805,0 -0.484,-0.0935 -0.627,-0.2255 -0.363,-0.3355 -0.3795,-0.9955 -0.3795,-1.496 0,-0.495 0.0165,-1.155 0.3795,-1.4905 0.143,-0.132 0.3465,-0.2255 0.627,-0.2255 0.286,0 0.484,0.088 0.6325,0.2255 0.363,0.3355 0.3795,0.9955 0.3795,1.4905 0,0.5005 -0.022,1.1605 -0.3795,1.496 -0.143,0.1375 -0.3465,0.2255 -0.6325,0.2255 z"
         id="text48"
         transform="matrix(1.3333333,0,0,1.3333333,147.57427,235.5856)"
         aria-label="3.0" /><path
         id="path49"
         d="M 0,0 V -3.685"
         style="fill:none;stroke:#231f20;stroke-width:0.5;stroke-linecap:round;stroke-linejoin:round;stroke-miterlimit:22.926;stroke-dasharray:none;stroke-opacity:1"
         transform="matrix(1.3333333,0,0,-1.3333333,168.33587,216.95293)" /><path
         style="font-weight:300;font-size:5.5px;font-family:'ZI Akkurat';fill:#231f20"
         d="m 1.551,0.077 c 0.6985,0 1.232,-0.462 1.232,-1.0945 0,-0.4565 -0.275,-0.8525 -0.7535,-0.968 0.44,-0.1155 0.6655,-0.473 0.6655,-0.8855 0,-0.605 -0.5005,-1.0175 -1.1385,-1.0175 -0.704,0 -1.21,0.462 -1.221,1.144 H 0.616 c 0.0055,-0.5115 0.3575,-0.88 0.9405,-0.88 0.4675,0 0.858,0.3135 0.858,0.7535 0,0.5115 -0.3575,0.7535 -0.88,0.7535 H 1.32 v 0.264 h 0.2145 c 0.5775,0 0.9625,0.264 0.9625,0.836 0,0.484 -0.363,0.8305 -0.946,0.8305 -0.6545,0 -0.957,-0.4565 -0.9625,-0.9405 H 0.308 C 0.3245,-0.4345 0.7755,0.077 1.551,0.077 Z M 3.5970044,-0.495 V 0 h 0.484 v -0.495 z m 2.5135012,0.572 c 0.7975,0 1.232,-0.5775 1.232,-1.2705 0,-0.726 -0.4015,-1.276 -1.188,-1.276 -0.341,0 -0.7095,0.132 -0.9185,0.4015 l 0.1265,-1.485 h 1.848 v -0.2585 h -2.0845 l -0.154,2.0185 h 0.3245 c 0.1815,-0.286 0.517,-0.418 0.858,-0.418 0.6105,0 0.913,0.462 0.913,1.0175 0,0.5775 -0.3465,1.0065 -0.957,1.0065 -0.5775,0 -0.9515,-0.3795 -0.979,-0.9185 h -0.275 c 0.0165,0.671 0.495,1.1825 1.254,1.1825 z"
         id="text49"
         transform="matrix(1.3333333,0,0,1.3333333,163.23573,235.5856)"
         aria-label="3.5" /><path
         id="path50"
         d="M 0,0 V -3.685"
         style="fill:none;stroke:#231f20;stroke-width:0.5;stroke-linecap:round;stroke-linejoin:round;stroke-miterlimit:22.926;stroke-dasharray:none;stroke-opacity:1"
         transform="matrix(1.3333333,0,0,-1.3333333,183.86213,216.95293)" /><path
         style="font-weight:300;font-size:5.5px;font-family:'ZI Akkurat';fill:#231f20"
         d="M 2.068,0 H 2.3485 V -0.8965 H 2.915 v -0.275 H 2.3485 V -2.431 H 2.068 v 1.2595 H 0.4455 l 1.694,-2.64 H 1.815 l -1.65,2.585 v 0.33 H 2.068 Z M 3.5585045,-0.495 V 0 h 0.484 v -0.495 z m 2.4145021,0.572 c 0.3685,0 0.6325,-0.143 0.814,-0.3135 0.4125,-0.3795 0.473,-1.067 0.473,-1.672 0,-0.5995 -0.066,-1.276 -0.473,-1.6665 -0.1815,-0.176 -0.4455,-0.3135 -0.814,-0.3135 -0.3685,0 -0.627,0.143 -0.814,0.3135 -0.4125,0.3795 -0.473,1.067 -0.473,1.6665 0,0.605 0.0605,1.2925 0.473,1.672 0.187,0.1705 0.4455,0.3135 0.814,0.3135 z m 0,-0.264 c -0.2805,0 -0.484,-0.0935 -0.627,-0.2255 -0.363,-0.3355 -0.3795,-0.9955 -0.3795,-1.496 0,-0.495 0.0165,-1.155 0.3795,-1.4905 0.143,-0.132 0.3465,-0.2255 0.627,-0.2255 0.286,0 0.484,0.088 0.6325,0.2255 0.363,0.3355 0.3795,0.9955 0.3795,1.4905 0,0.5005 -0.022,1.1605 -0.3795,1.496 -0.143,0.1375 -0.3465,0.2255 -0.6325,0.2255 z"
         id="text50"
         transform="matrix(1.3333333,0,0,1.3333333,178.65173,235.5856)"
         aria-label="4.0" /><path
         id="path51"
         d="M 0,0 V -3.685"
         style="fill:none;stroke:#231f20;stroke-width:0.5;stroke-linecap:round;stroke-linejoin:round;stroke-miterlimit:22.926;stroke-dasharray:none;stroke-opacity:1"
         transform="matrix(1.3333333,0,0,-1.3333333,199.3884,216.95293)" /><path
         style="font-weight:300;font-size:5.5px;font-family:'ZI Akkurat';fill:#231f20"
         d="M 2.068,0 H 2.3485 V -0.8965 H 2.915 v -0.275 H 2.3485 V -2.431 H 2.068 v 1.2595 H 0.4455 l 1.694,-2.64 H 1.815 l -1.65,2.585 v 0.33 H 2.068 Z M 3.5585045,-0.495 V 0 h 0.484 v -0.495 z m 2.5135013,0.572 c 0.7975,0 1.232,-0.5775 1.232,-1.2705 0,-0.726 -0.4015,-1.276 -1.188,-1.276 -0.341,0 -0.7095,0.132 -0.9185,0.4015 l 0.1265,-1.485 h 1.848 v -0.2585 h -2.0845 l -0.154,2.0185 h 0.3245 c 0.1815,-0.286 0.517,-0.418 0.858,-0.418 0.6105,0 0.913,0.462 0.913,1.0175 0,0.5775 -0.3465,1.0065 -0.957,1.0065 -0.5775,0 -0.9515,-0.3795 -0.979,-0.9185 h -0.275 c 0.0165,0.671 0.495,1.1825 1.254,1.1825 z"
         id="text51"
         transform="matrix(1.3333333,0,0,1.3333333,194.31387,235.5856)"
         aria-label="4.5" /><path
         id="path52"
         d="M 0,0 V -3.685"
         style="fill:none;stroke:#231f20;stroke-width:0.5;stroke-linecap:round;stroke-linejoin:round;stroke-miterlimit:22.926;stroke-dasharray:none;stroke-opacity:1"
         transform="matrix(1.3333333,0,0,-1.3333333,214.91467,216.95293)" /><path
         style="font-weight:300;font-size:5.5px;font-family:'ZI Akkurat';fill:#231f20"
         d="m 1.5565,0.077 c 0.7975,0 1.232,-0.5775 1.232,-1.2705 0,-0.726 -0.4015,-1.276 -1.188,-1.276 -0.341,0 -0.7095,0.132 -0.9185,0.4015 l 0.1265,-1.485 h 1.848 V -3.8115 H 0.572 L 0.418,-1.793 h 0.3245 c 0.1815,-0.286 0.517,-0.418 0.858,-0.418 0.6105,0 0.913,0.462 0.913,1.0175 0,0.5775 -0.3465,1.0065 -0.957,1.0065 -0.5775,0 -0.9515,-0.3795 -0.979,-0.9185 h -0.275 c 0.0165,0.671 0.495,1.1825 1.254,1.1825 z M 3.5694985,-0.495 V 0 h 0.484 v -0.495 z m 2.4145021,0.572 c 0.3685,0 0.6325,-0.143 0.814,-0.3135 0.4125,-0.3795 0.473,-1.067 0.473,-1.672 0,-0.5995 -0.066,-1.276 -0.473,-1.6665 -0.1815,-0.176 -0.4455,-0.3135 -0.814,-0.3135 -0.3685,0 -0.627,0.143 -0.814,0.3135 -0.4125,0.3795 -0.473,1.067 -0.473,1.6665 0,0.605 0.0605,1.2925 0.473,1.672 0.187,0.1705 0.4455,0.3135 0.814,0.3135 z m 0,-0.264 c -0.2805,0 -0.484,-0.0935 -0.627,-0.2255 -0.363,-0.3355 -0.3795,-0.9955 -0.3795,-1.496 0,-0.495 0.0165,-1.155 0.3795,-1.4905 0.143,-0.132 0.3465,-0.2255 0.627,-0.2255 0.286,0 0.484,0.088 0.6325,0.2255 0.363,0.3355 0.3795,0.9955 0.3795,1.4905 0,0.5005 -0.022,1.1605 -0.3795,1.496 -0.143,0.1375 -0.3465,0.2255 -0.6325,0.2255 z"
         id="text52"
         transform="matrix(1.3333333,0,0,1.3333333,209.6972,235.5856)"
         aria-label="5.0" /><path
         id="path53"
         d="M 0,0 V -3.685"
         style="fill:none;stroke:#231f20;stroke-width:0.5;stroke-linecap:round;stroke-linejoin:round;stroke-miterlimit:22.926;stroke-dasharray:none;stroke-opacity:1"
         transform="matrix(1.3333333,0,0,-1.3333333,230.44107,216.95293)" /><path
         style="font-weight:300;font-size:5.5px;font-family:'ZI Akkurat';fill:#231f20"
         d="m 1.5565,0.077 c 0.7975,0 1.232,-0.5775 1.232,-1.2705 0,-0.726 -0.4015,-1.276 -1.188,-1.276 -0.341,0 -0.7095,0.132 -0.9185,0.4015 l 0.1265,-1.485 h 1.848 V -3.8115 H 0.572 L 0.418,-1.793 h 0.3245 c 0.1815,-0.286 0.517,-0.418 0.858,-0.418 0.6105,0 0.913,0.462 0.913,1.0175 0,0.5775 -0.3465,1.0065 -0.957,1.0065 -0.5775,0 -0.9515,-0.3795 -0.979,-0.9185 h -0.275 c 0.0165,0.671 0.495,1.1825 1.254,1.1825 z M 3.5694985,-0.495 V 0 h 0.484 v -0.495 z m 2.5135012,0.572 c 0.7975,0 1.232,-0.5775 1.232,-1.2705 0,-0.726 -0.4015,-1.276 -1.188,-1.276 -0.341,0 -0.7095,0.132 -0.9185,0.4015 l 0.1265,-1.485 h 1.848 v -0.2585 h -2.0845 l -0.154,2.0185 h 0.3245 c 0.1815,-0.286 0.517,-0.418 0.858,-0.418 0.6105,0 0.913,0.462 0.913,1.0175 0,0.5775 -0.3465,1.0065 -0.957,1.0065 -0.5775,0 -0.9515,-0.3795 -0.979,-0.9185 h -0.275 c 0.0165,0.671 0.495,1.1825 1.254,1.1825 z"
         id="text53"
         transform="matrix(1.3333333,0,0,1.3333333,225.35933,235.5856)"
         aria-label="5.5" /><path
         id="path54"
         d="M 0,0 V -3.685"
         style="fill:none;stroke:#231f20;stroke-width:0.5;stroke-linecap:round;stroke-linejoin:round;stroke-miterlimit:22.926;stroke-dasharray:none;stroke-opacity:1"
         transform="matrix(1.3333333,0,0,-1.3333333,245.96733,216.95293)" /><path
         style="font-weight:300;font-size:5.5px;font-family:'ZI Akkurat';fill:#231f20"
         d="m 1.6555,0.077 c 0.792,0 1.243,-0.5775 1.243,-1.2815 0,-0.7535 -0.4565,-1.265 -1.2485,-1.265 -0.451,0 -0.869,0.2695 -1.0065,0.671 0,-0.9075 0.176,-1.826 1.0285,-1.826 0.528,0 0.8195,0.2915 0.858,0.7315 h 0.2805 c -0.033,-0.5995 -0.495,-0.9955 -1.1385,-0.9955 -0.396,0 -0.682,0.1705 -0.8635,0.363 -0.374,0.4015 -0.451,1.034 -0.451,1.617 0,0.5445 0.0605,1.1275 0.352,1.518 C 0.891,-0.1485 1.21,0.077 1.6555,0.077 Z M 1.661,-0.187 c -0.6105,0 -0.9405,-0.495 -0.9405,-1.0285 0,-0.5555 0.385,-1.001 0.935,-1.001 0.66,0 0.9625,0.484 0.9625,1.012 0,0.5335 -0.297,1.0175 -0.957,1.0175 z M 3.690495,-0.495 V 0 h 0.484 v -0.495 z m 2.4145021,0.572 c 0.3685,0 0.6325,-0.143 0.814,-0.3135 0.4125,-0.3795 0.473,-1.067 0.473,-1.672 0,-0.5995 -0.066,-1.276 -0.473,-1.6665 -0.1815,-0.176 -0.4455,-0.3135 -0.814,-0.3135 -0.3685,0 -0.627,0.143 -0.814,0.3135 -0.4125,0.3795 -0.473,1.067 -0.473,1.6665 0,0.605 0.0605,1.2925 0.473,1.672 0.187,0.1705 0.4455,0.3135 0.814,0.3135 z m 0,-0.264 c -0.2805,0 -0.484,-0.0935 -0.627,-0.2255 -0.363,-0.3355 -0.3795,-0.9955 -0.3795,-1.496 0,-0.495 0.0165,-1.155 0.3795,-1.4905 0.143,-0.132 0.3465,-0.2255 0.627,-0.2255 0.286,0 0.484,0.088 0.6325,0.2255 0.363,0.3355 0.3795,0.9955 0.3795,1.4905 0,0.5005 -0.022,1.1605 -0.3795,1.496 -0.143,0.1375 -0.3465,0.2255 -0.6325,0.2255 z"
         id="text54"
         transform="matrix(1.3333333,0,0,1.3333333,240.66933,235.5856)"
         aria-label="6.0" /><path
         id="path55"
         d="M 0,0 V -3.685"
         style="fill:none;stroke:#231f20;stroke-width:0.5;stroke-linecap:round;stroke-linejoin:round;stroke-miterlimit:22.926;stroke-dasharray:none;stroke-opacity:1"
         transform="matrix(1.3333333,0,0,-1.3333333,261.4936,216.95293)" /><path
         style="font-weight:300;font-size:5.5px;font-family:'ZI Akkurat';fill:#231f20"
         d="m 1.6555,0.077 c 0.792,0 1.243,-0.5775 1.243,-1.2815 0,-0.7535 -0.4565,-1.265 -1.2485,-1.265 -0.451,0 -0.869,0.2695 -1.0065,0.671 0,-0.9075 0.176,-1.826 1.0285,-1.826 0.528,0 0.8195,0.2915 0.858,0.7315 h 0.2805 c -0.033,-0.5995 -0.495,-0.9955 -1.1385,-0.9955 -0.396,0 -0.682,0.1705 -0.8635,0.363 -0.374,0.4015 -0.451,1.034 -0.451,1.617 0,0.5445 0.0605,1.1275 0.352,1.518 C 0.891,-0.1485 1.21,0.077 1.6555,0.077 Z M 1.661,-0.187 c -0.6105,0 -0.9405,-0.495 -0.9405,-1.0285 0,-0.5555 0.385,-1.001 0.935,-1.001 0.66,0 0.9625,0.484 0.9625,1.012 0,0.5335 -0.297,1.0175 -0.957,1.0175 z M 3.690495,-0.495 V 0 h 0.484 v -0.495 z m 2.5135012,0.572 c 0.7975,0 1.232,-0.5775 1.232,-1.2705 0,-0.726 -0.4015,-1.276 -1.188,-1.276 -0.341,0 -0.7095,0.132 -0.9185,0.4015 l 0.1265,-1.485 h 1.848 v -0.2585 h -2.0845 l -0.154,2.0185 h 0.3245 c 0.1815,-0.286 0.517,-0.418 0.858,-0.418 0.6105,0 0.913,0.462 0.913,1.0175 0,0.5775 -0.3465,1.0065 -0.957,1.0065 -0.5775,0 -0.9515,-0.3795 -0.979,-0.9185 h -0.275 c 0.0165,0.671 0.495,1.1825 1.254,1.1825 z"
         id="text55"
         transform="matrix(1.3333333,0,0,1.3333333,256.33067,235.5856)"
         aria-label="6.5" /><path
         id="path56"
         d="M 0,0 V -3.685"
         style="fill:none;stroke:#231f20;stroke-width:0.5;stroke-linecap:round;stroke-linejoin:round;stroke-miterlimit:22.926;stroke-dasharray:none;stroke-opacity:1"
         transform="matrix(1.3333333,0,0,-1.3333333,277.01987,216.95293)" /><path
         style="font-weight:300;font-size:5.5px;font-family:'ZI Akkurat';fill:#231f20"
         d="M 0.605,0 H 0.924 L 2.651,-3.52 V -3.8115 H 0.143 v 0.264 H 2.3595 Z M 2.4860062,-0.495 V 0 h 0.484 v -0.495 z m 2.4145021,0.572 c 0.3685,0 0.6325,-0.143 0.814,-0.3135 0.4125,-0.3795 0.473,-1.067 0.473,-1.672 0,-0.5995 -0.066,-1.276 -0.473,-1.6665 -0.1815,-0.176 -0.4455,-0.3135 -0.814,-0.3135 -0.3685,0 -0.627,0.143 -0.814,0.3135 -0.4125,0.3795 -0.473,1.067 -0.473,1.6665 0,0.605 0.0605,1.2925 0.473,1.672 0.187,0.1705 0.4455,0.3135 0.814,0.3135 z m 0,-0.264 c -0.2805,0 -0.484,-0.0935 -0.627,-0.2255 -0.363,-0.3355 -0.3795,-0.9955 -0.3795,-1.496 0,-0.495 0.0165,-1.155 0.3795,-1.4905 0.143,-0.132 0.3465,-0.2255 0.627,-0.2255 0.286,0 0.484,0.088 0.6325,0.2255 0.363,0.3355 0.3795,0.9955 0.3795,1.4905 0,0.5005 -0.022,1.1605 -0.3795,1.496 -0.143,0.1375 -0.3465,0.2255 -0.6325,0.2255 z"
         id="text56"
         transform="matrix(1.3333333,0,0,1.3333333,272.01173,235.5856)"
         aria-label="7.0" /><path
         id="path57"
         d="M 0,0 V -3.685"
         style="fill:none;stroke:#231f20;stroke-width:0.5;stroke-linecap:round;stroke-linejoin:round;stroke-miterlimit:22.926;stroke-dasharray:none;stroke-opacity:1"
         transform="matrix(1.3333333,0,0,-1.3333333,292.54627,216.95293)" /><path
         style="font-weight:300;font-size:5.5px;font-family:'ZI Akkurat';fill:#231f20"
         d="M 0.605,0 H 0.924 L 2.651,-3.52 V -3.8115 H 0.143 v 0.264 H 2.3595 Z M 2.4860062,-0.495 V 0 h 0.484 v -0.495 z m 2.5135013,0.572 c 0.7975,0 1.232,-0.5775 1.232,-1.2705 0,-0.726 -0.4015,-1.276 -1.188,-1.276 -0.341,0 -0.7095,0.132 -0.9185,0.4015 l 0.1265,-1.485 h 1.848 v -0.2585 h -2.0845 l -0.154,2.0185 h 0.3245 c 0.1815,-0.286 0.517,-0.418 0.858,-0.418 0.6105,0 0.913,0.462 0.913,1.0175 0,0.5775 -0.3465,1.0065 -0.957,1.0065 -0.5775,0 -0.9515,-0.3795 -0.979,-0.9185 h -0.275 c 0.0165,0.671 0.495,1.1825 1.254,1.1825 z"
         id="text57"
         transform="matrix(1.3333333,0,0,1.3333333,287.6732,235.5856)"
         aria-label="7.5" /><path
         id="path58-7"
         d="M 0,0 V -3.685"
         style="fill:none;stroke:#231f20;stroke-width:0.5;stroke-linecap:round;stroke-linejoin:round;stroke-miterlimit:22.926;stroke-dasharray:none;stroke-opacity:1"
         transform="matrix(1.3333333,0,0,-1.3333333,308.07253,216.95293)" /><path
         style="font-weight:300;font-size:5.5px;font-family:'ZI Akkurat';fill:#231f20"
         d="m 1.606,0.077 c 0.682,0 1.265,-0.4015 1.265,-1.0835 0,-0.429 -0.275,-0.8415 -0.7095,-0.9845 0.374,-0.1375 0.6215,-0.5005 0.6215,-0.88 0,-0.638 -0.5225,-1.0175 -1.177,-1.0175 -0.6545,0 -1.177,0.3795 -1.177,1.0175 0,0.3795 0.2475,0.7425 0.6215,0.88 -0.4345,0.143 -0.7095,0.5555 -0.7095,0.9845 0,0.682 0.583,1.0835 1.265,1.0835 z m 0,-2.189 c -0.5005,0 -0.891,-0.2695 -0.891,-0.77 0,-0.4895 0.4015,-0.759 0.891,-0.759 0.4895,0 0.891,0.2695 0.891,0.759 0,0.5005 -0.3905,0.77 -0.891,0.77 z m 0,1.936 c -0.5445,0 -0.9845,-0.3025 -0.9845,-0.847 0,-0.5445 0.44,-0.847 0.9845,-0.847 0.5445,0 0.9845,0.3025 0.9845,0.847 0,0.5445 -0.44,0.847 -0.9845,0.847 z M 3.684998,-0.495 V 0 h 0.484 v -0.495 z m 2.4145021,0.572 c 0.3685,0 0.6325,-0.143 0.814,-0.3135 0.4125,-0.3795 0.473,-1.067 0.473,-1.672 0,-0.5995 -0.066,-1.276 -0.473,-1.6665 -0.1815,-0.176 -0.4455,-0.3135 -0.814,-0.3135 -0.3685,0 -0.627,0.143 -0.814,0.3135 -0.4125,0.3795 -0.473,1.067 -0.473,1.6665 0,0.605 0.0605,1.2925 0.473,1.672 0.187,0.1705 0.4455,0.3135 0.814,0.3135 z m 0,-0.264 c -0.2805,0 -0.484,-0.0935 -0.627,-0.2255 -0.363,-0.3355 -0.3795,-0.9955 -0.3795,-1.496 0,-0.495 0.0165,-1.155 0.3795,-1.4905 0.143,-0.132 0.3465,-0.2255 0.627,-0.2255 0.286,0 0.484,0.088 0.6325,0.2255 0.363,0.3355 0.3795,0.9955 0.3795,1.4905 0,0.5005 -0.022,1.1605 -0.3795,1.496 -0.143,0.1375 -0.3465,0.2255 -0.6325,0.2255 z"
         id="text58"
         transform="matrix(1.3333333,0,0,1.3333333,302.77867,235.5856)"
         aria-label="8.0" /><path
         style="font-weight:300;font-size:8px;font-family:'ZI Akkurat';fill:#231f20"
         d="m 2.24,0.056 c 0.224,0 0.424,-0.032 0.624,-0.096 v -0.352 c -0.208,0.048 -0.376,0.072 -0.592,0.072 -0.584,0 -0.72,-0.336 -0.72,-0.776 V -3.632 H 2.808 V -4 H 1.552 v -1.2 l -0.4,0.096 V -4 H 0.208 v 0.368 h 0.944 v 2.592 c 0,0.64 0.304,1.096 1.088,1.096 z M 3.8240018,-4 v 4 h 0.408 v -4 z m -0.072,-1.672 v 0.592 h 0.544 V -5.672 Z M 5.7120023,0 h 0.4 v -2.16 c 0,-0.856 0.44,-1.576 1.208,-1.576 0.664,0 0.968,0.44 0.968,1.144 V 0 h 0.416 v -2.264 c 0,-0.808 0.44,-1.472 1.192,-1.472 0.6959997,0 0.9679997,0.44 0.9679997,1.144 V 0 h 0.4 v -2.64 c 0,-0.856 -0.392,-1.472 -1.3279997,-1.472 -0.672,0 -1.104,0.368 -1.32,0.864 -0.16,-0.512 -0.56,-0.864 -1.248,-0.864 -0.584,0 -1.072,0.36 -1.256,0.896 L 6.0800023,-4 h -0.368 z m 8.5520047,0.112 c 0.8,0 1.52,-0.56 1.64,-1.312 h -0.416 c -0.096,0.512 -0.592,0.928 -1.224,0.928 -0.896,0 -1.416,-0.744 -1.432,-1.632 h 3.16 c 0.008,-0.112 0.008,-0.168 0.008,-0.264 0,-1.064 -0.664,-1.944 -1.768,-1.944 -0.584,0 -1.056,0.248 -1.4,0.704 -0.32,0.424 -0.4,0.92 -0.4,1.424 0,0.608 0.2,1.152 0.528,1.536 0.264,0.304 0.728,0.56 1.304,0.56 z m -1.424,-2.376 c 0.016,-0.784 0.544,-1.472 1.392,-1.472 0.864,0 1.336,0.712 1.352,1.472 z m 7.4,3.288 0.248,-0.192 c -0.784,-1.008 -1.192,-2.104 -1.192,-3.416 0,-1.312 0.408,-2.408 1.192,-3.416 l -0.248,-0.192 c -0.864,0.968 -1.32,2.36 -1.32,3.608 0,1.248 0.456,2.64 1.32,3.608 z M 21.39201,0 h 0.4 v -2.096 c 0,-0.888 0.464,-1.624 1.352,-1.624 0.712,0 1.056,0.472 1.056,1.144 V 0 h 0.4 v -2.616 c 0,-0.888 -0.504,-1.496 -1.416,-1.496 -0.56,0 -1.184,0.328 -1.392,0.88 L 21.76001,-4 h -0.368 z m 5.935995,0.112 c 0.832,0 1.568,-0.424 1.568,-1.24 0,-0.48 -0.352,-0.984 -1.104,-1.088 l -0.76,-0.104 c -0.6,-0.08 -0.776,-0.328 -0.776,-0.656 0,-0.448 0.448,-0.76 1.032,-0.76 0.584,0 1.056,0.264 1.112,0.84 h 0.4 c -0.024,-0.72 -0.648,-1.216 -1.512,-1.216 -0.752,0 -1.44,0.464 -1.44,1.176 0,0.608 0.456,0.928 1.128,1.016 l 0.776,0.104 c 0.488,0.064 0.736,0.36 0.736,0.712 0,0.544 -0.496,0.832 -1.16,0.832 -0.656,0 -1.176,-0.288 -1.24,-0.944 h -0.408 c 0.04,0.824 0.696,1.328 1.648,1.328 z m 2.376,0.912 c 0.864,-0.968 1.32,-2.36 1.32,-3.608 0,-1.248 -0.456,-2.64 -1.32,-3.608 l -0.248,0.192 c 0.784,1.008 1.192,2.104 1.192,3.416 0,1.312 -0.408,2.408 -1.192,3.416 z"
         id="text59"
         transform="matrix(1.3333333,0,0,1.3333333,161.1972,250.23987)"
         aria-label="time (ns)" /><path
         style="font-weight:300;font-size:8px;font-family:'ZI Akkurat';fill:#231f20"
         d="m 1.792,0.112 c 0.616,0 1.224,-0.312 1.44,-0.88 0,0.424 0.136,0.8 0.632,0.8 0.064,0 0.136,-0.008 0.192,-0.024 v -0.352 c -0.032,0.008 -0.08,0.008 -0.112,0.008 -0.272,0 -0.312,-0.16 -0.312,-0.432 v -1.976 c 0,-0.92 -0.608,-1.368 -1.52,-1.368 -0.8,0 -1.464,0.44 -1.52,1.264 h 0.4 c 0.04,-0.6 0.536,-0.888 1.136,-0.888 0.616,0 1.104,0.288 1.104,0.96 v 0.352 L 1.76,-2.32 c -0.8,0.056 -1.344,0.496 -1.344,1.208 0,0.752 0.6,1.224 1.376,1.224 z m 0.032,-0.368 c -0.568,0 -1,-0.304 -1,-0.864 0,-0.472 0.36,-0.808 0.976,-0.848 l 1.432,-0.088 v 0.208 c 0,0.776 -0.4,1.592 -1.408,1.592 z M 5.1359983,0 h 0.4 v -2.16 c 0,-0.856 0.44,-1.576 1.208,-1.576 0.664,0 0.968,0.44 0.968,1.144 V 0 h 0.416 v -2.264 c 0,-0.808 0.44,-1.472 1.192,-1.472 0.6959997,0 0.9679997,0.44 0.9679997,1.144 V 0 h 0.4 v -2.64 c 0,-0.856 -0.392,-1.472 -1.3279997,-1.472 -0.672,0 -1.104,0.368 -1.32,0.864 -0.16,-0.512 -0.56,-0.864 -1.248,-0.864 -0.584,0 -1.072,0.36 -1.256,0.896 L 5.5039983,-4 h -0.368 z m 6.9920047,1.592 h 0.4 v -2.32 c 0.224,0.512 0.792,0.84 1.376,0.84 0.48,0 0.856,-0.168 1.128,-0.424 0.432,-0.4 0.632,-1.016 0.632,-1.696 0,-0.712 -0.208,-1.328 -0.672,-1.72 -0.272,-0.232 -0.624,-0.384 -1.096,-0.384 -0.552,0 -1.144,0.344 -1.368,0.872 l -0.032,-0.76 h -0.368 z m 1.776,-1.872 c -0.376,0 -0.656,-0.128 -0.864,-0.32 -0.376,-0.344 -0.52,-0.808 -0.52,-1.4 0,-0.552 0.16,-1.04 0.528,-1.392 0.208,-0.192 0.48,-0.328 0.84,-0.328 0.352,0 0.624,0.112 0.824,0.288 0.384,0.328 0.544,0.864 0.544,1.432 0,0.512 -0.136,1.016 -0.456,1.36 -0.208,0.224 -0.504,0.36 -0.896,0.36 z m 3.767994,0.328 c 0.168,0 0.272,-0.024 0.36,-0.048 v -0.36 c -0.112,0.016 -0.184,0.024 -0.344,0.024 -0.336,0 -0.416,-0.208 -0.416,-0.48 v -4.976 h -0.4 V -0.8 c 0,0.584 0.288,0.848 0.8,0.848 z M 18.911999,-4 v 4 h 0.408 v -4 z m -0.072,-1.672 v 0.592 h 0.544 V -5.672 Z M 22.296,0.056 c 0.224,0 0.424,-0.032 0.624,-0.096 v -0.352 c -0.208,0.048 -0.376,0.072 -0.592,0.072 -0.584,0 -0.72,-0.336 -0.72,-0.776 v -2.536 h 1.256 V -4 h -1.256 v -1.2 l -0.4,0.096 V -4 h -0.944 v 0.368 h 0.944 v 2.592 c 0,0.64 0.304,1.096 1.088,1.096 z m 2.960002,0.056 c 0.6,0 1.112,-0.336 1.336,-0.864 l 0.032,0.752 h 0.368 v -4 h -0.4 v 2.08 c 0,0.896 -0.384,1.64 -1.312,1.64 -0.704,0 -1.048,-0.464 -1.048,-1.16 V -4 h -0.4 v 2.584 c 0,0.896 0.52,1.528 1.424,1.528 z m 4.728006,0 c 0.552,0 1.136,-0.336 1.36,-0.872 l 0.032,0.76 h 0.376 v -5.792 h -0.408 v 2.488 c -0.184,-0.448 -0.68,-0.808 -1.328,-0.808 -0.496,0 -0.888,0.176 -1.168,0.44 -0.432,0.408 -0.64,1.024 -0.64,1.68 0,0.688 0.208,1.328 0.672,1.72 0.272,0.232 0.632,0.384 1.104,0.384 z m 0.008,-0.392 c -0.344,0 -0.624,-0.112 -0.832,-0.288 -0.384,-0.32 -0.544,-0.864 -0.544,-1.432 0,-0.512 0.144,-1.024 0.464,-1.36 0.216,-0.224 0.512,-0.36 0.896,-0.36 0.376,0 0.656,0.128 0.864,0.32 0.376,0.344 0.512,0.808 0.512,1.4 0,0.552 -0.144,1.048 -0.52,1.392 -0.208,0.192 -0.48,0.328 -0.84,0.328 z m 4.807994,0.392 c 0.8,0 1.52,-0.56 1.64,-1.312 h -0.416 c -0.096,0.512 -0.592,0.928 -1.224,0.928 -0.896,0 -1.416,-0.744 -1.432,-1.632 h 3.16 c 0.008,-0.112 0.008,-0.168 0.008,-0.264 0,-1.064 -0.664,-1.944 -1.768,-1.944 -0.584,0 -1.056,0.248 -1.4,0.704 -0.32,0.424 -0.4,0.92 -0.4,1.424 0,0.608 0.2,1.152 0.528,1.536 0.264,0.304 0.728,0.56 1.304,0.56 z m -1.424,-2.376 c 0.016,-0.784 0.544,-1.472 1.392,-1.472 0.864,0 1.336,0.712 1.352,1.472 z m 7.400001,3.288 0.248,-0.192 c -0.784,-1.008 -1.192,-2.104 -1.192,-3.416 0,-1.312 0.408,-2.408 1.192,-3.416 l -0.248,-0.192 c -0.864,0.968 -1.32,2.36 -1.32,3.608 0,1.248 0.456,2.64 1.32,3.608 z m 2.200003,-0.912 c 0.616,0 1.224,-0.312 1.44,-0.88 0,0.424 0.136,0.8 0.632,0.8 0.064,0 0.136,-0.008 0.192,-0.024 v -0.352 c -0.032,0.008 -0.08,0.008 -0.112,0.008 -0.272,0 -0.312,-0.16 -0.312,-0.432 v -1.976 c 0,-0.92 -0.608,-1.368 -1.52,-1.368 -0.8,0 -1.464,0.44 -1.52,1.264 h 0.4 c 0.04,-0.6 0.536,-0.888 1.136,-0.888 0.616,0 1.104,0.288 1.104,0.96 v 0.352 l -1.472,0.104 c -0.8,0.056 -1.344,0.496 -1.344,1.208 0,0.752 0.6,1.224 1.376,1.224 z m 0.032,-0.368 c -0.568,0 -1,-0.304 -1,-0.864 0,-0.472 0.36,-0.808 0.976,-0.848 l 1.432,-0.088 v 0.208 c 0,0.776 -0.4,1.592 -1.408,1.592 z M 46.303997,-0.72 V 0 h 0.704 v -0.72 z m 3.327996,0.832 c 0.6,0 1.112,-0.336 1.336,-0.864 l 0.032,0.752 h 0.368 v -4 h -0.4 v 2.08 c 0,0.896 -0.384,1.64 -1.312,1.64 -0.704,0 -1.048,-0.464 -1.048,-1.16 V -4 h -0.4 v 2.584 c 0,0.896 0.52,1.528 1.424,1.528 z M 52.8,-0.72 V 0 h 0.704 v -0.72 z m 1.800001,1.744 c 0.864,-0.968 1.32,-2.36 1.32,-3.608 0,-1.248 -0.456,-2.64 -1.32,-3.608 l -0.248,0.192 c 0.784,1.008 1.192,2.104 1.192,3.416 0,1.312 -0.408,2.408 -1.192,3.416 z"
         id="text60"
         clip-path="url(#clipPath60)"
         transform="matrix(0,-1.3333333,1.3333167,0,9.3457333,155.35053)"
         aria-label="amplitude (a.u.)" /></g></g></svg>
