<?xml version="1.0" encoding="UTF-8" standalone="no"?>
<svg
   xmlns:dc="http://purl.org/dc/elements/1.1/"
   xmlns:cc="http://creativecommons.org/ns#"
   xmlns:rdf="http://www.w3.org/1999/02/22-rdf-syntax-ns#"
   xmlns:svg="http://www.w3.org/2000/svg"
   xmlns="http://www.w3.org/2000/svg"
   xmlns:sodipodi="http://sodipodi.sourceforge.net/DTD/sodipodi-0.dtd"
   xmlns:inkscape="http://www.inkscape.org/namespaces/inkscape"
   width="610.88983mm"
   height="173.55606mm"
   viewBox="0 0 610.88983 173.55606"
   version="1.1"
   id="svg3225"
   inkscape:version="1.0.2-2 (e86c870879, 2021-01-15)"
   sodipodi:docname="channel_assignments.svg"
   inkscape:export-filename="C:\Users\Bahadir\Downloads\New folder\Blog Post\Notebook Images\channel_assignments.png"
   inkscape:export-xdpi="300"
   inkscape:export-ydpi="300">
  <defs
     id="defs3219">
    <clipPath
       id="clip0">
      <rect
         x="1098"
         y="3844"
         width="2636"
         height="687"
         id="rect3227" />
    </clipPath>
    <clipPath
       id="clip1">
      <rect
         x="1109"
         y="4259"
         width="399"
         height="107"
         id="rect3230" />
    </clipPath>
    <clipPath
       id="clip2">
      <rect
         x="1109"
         y="4259"
         width="399"
         height="107"
         id="rect3233" />
    </clipPath>
    <clipPath
       id="clip3">
      <rect
         x="1109"
         y="4259"
         width="399"
         height="107"
         id="rect3236" />
    </clipPath>
    <clipPath
       id="clip4">
      <rect
         x="1109"
         y="4258"
         width="397"
         height="108"
         id="rect3239" />
    </clipPath>
    <clipPath
       id="clip5">
      <rect
         x="1109"
         y="4258"
         width="397"
         height="108"
         id="rect3242" />
    </clipPath>
    <clipPath
       id="clip6">
      <rect
         x="1109"
         y="4258"
         width="397"
         height="108"
         id="rect3245" />
    </clipPath>
    <clipPath
       id="clip7">
      <rect
         x="1520"
         y="3972"
         width="292"
         height="112"
         id="rect3248" />
    </clipPath>
    <clipPath
       id="clip8">
      <rect
         x="1520"
         y="3972"
         width="292"
         height="112"
         id="rect3251" />
    </clipPath>
    <clipPath
       id="clip9">
      <rect
         x="1520"
         y="3972"
         width="292"
         height="112"
         id="rect3254" />
    </clipPath>
    <clipPath
       id="clip10">
      <rect
         x="1520"
         y="4115"
         width="292"
         height="113"
         id="rect3257" />
    </clipPath>
    <clipPath
       id="clip11">
      <rect
         x="1520"
         y="4115"
         width="292"
         height="113"
         id="rect3260" />
    </clipPath>
    <clipPath
       id="clip12">
      <rect
         x="1520"
         y="4115"
         width="292"
         height="113"
         id="rect3263" />
    </clipPath>
    <clipPath
       id="clip13">
      <rect
         x="1524"
         y="4256"
         width="292"
         height="114"
         id="rect3266" />
    </clipPath>
    <clipPath
       id="clip14">
      <rect
         x="1524"
         y="4256"
         width="292"
         height="114"
         id="rect3269" />
    </clipPath>
    <clipPath
       id="clip15">
      <rect
         x="1524"
         y="4256"
         width="292"
         height="114"
         id="rect3272" />
    </clipPath>
    <clipPath
       id="clip16">
      <rect
         x="1524"
         y="4401"
         width="292"
         height="113"
         id="rect3275" />
    </clipPath>
    <clipPath
       id="clip17">
      <rect
         x="1524"
         y="4401"
         width="292"
         height="113"
         id="rect3278" />
    </clipPath>
    <clipPath
       id="clip18">
      <rect
         x="1524"
         y="4401"
         width="292"
         height="113"
         id="rect3281" />
    </clipPath>
    <clipPath
       id="clip19">
      <rect
         x="1111"
         y="4406"
         width="399"
         height="106"
         id="rect3284" />
    </clipPath>
    <clipPath
       id="clip20">
      <rect
         x="1111"
         y="4406"
         width="399"
         height="106"
         id="rect3287" />
    </clipPath>
    <clipPath
       id="clip21">
      <rect
         x="1111"
         y="4406"
         width="399"
         height="106"
         id="rect3290" />
    </clipPath>
    <clipPath
       id="clip22">
      <rect
         x="1111"
         y="4405"
         width="397"
         height="107"
         id="rect3293" />
    </clipPath>
    <clipPath
       id="clip23">
      <rect
         x="1111"
         y="4405"
         width="397"
         height="107"
         id="rect3296" />
    </clipPath>
    <clipPath
       id="clip24">
      <rect
         x="1111"
         y="4405"
         width="397"
         height="107"
         id="rect3299" />
    </clipPath>
    <clipPath
       id="clip0-7">
      <rect
         x="1315"
         y="3844"
         width="2338"
         height="687"
         id="rect206" />
    </clipPath>
    <clipPath
       id="clip1-8">
      <rect
         x="2945"
         y="4259"
         width="399"
         height="107"
         id="rect209" />
    </clipPath>
    <clipPath
       id="clip2-6">
      <rect
         x="2945"
         y="4259"
         width="399"
         height="107"
         id="rect212" />
    </clipPath>
    <clipPath
       id="clip3-8">
      <rect
         x="2945"
         y="4259"
         width="399"
         height="107"
         id="rect215" />
    </clipPath>
    <clipPath
       id="clip4-9">
      <rect
         x="2945"
         y="4258"
         width="398"
         height="108"
         id="rect218" />
    </clipPath>
    <clipPath
       id="clip5-7">
      <rect
         x="2945"
         y="4258"
         width="398"
         height="108"
         id="rect221" />
    </clipPath>
    <clipPath
       id="clip6-2">
      <rect
         x="2945"
         y="4258"
         width="398"
         height="108"
         id="rect224" />
    </clipPath>
    <clipPath
       id="clip7-2">
      <rect
         x="3356"
         y="3972"
         width="294"
         height="112"
         id="rect227" />
    </clipPath>
    <clipPath
       id="clip8-3">
      <rect
         x="3356"
         y="3972"
         width="294"
         height="112"
         id="rect230" />
    </clipPath>
    <clipPath
       id="clip9-7">
      <rect
         x="3356"
         y="3972"
         width="294"
         height="112"
         id="rect233" />
    </clipPath>
    <clipPath
       id="clip10-9">
      <rect
         x="3356"
         y="4115"
         width="294"
         height="113"
         id="rect236" />
    </clipPath>
    <clipPath
       id="clip11-4">
      <rect
         x="3356"
         y="4115"
         width="294"
         height="113"
         id="rect239" />
    </clipPath>
    <clipPath
       id="clip12-6">
      <rect
         x="3356"
         y="4115"
         width="294"
         height="113"
         id="rect242" />
    </clipPath>
    <clipPath
       id="clip13-4">
      <rect
         x="3360"
         y="4256"
         width="294"
         height="114"
         id="rect245" />
    </clipPath>
    <clipPath
       id="clip14-8">
      <rect
         x="3360"
         y="4256"
         width="294"
         height="114"
         id="rect248" />
    </clipPath>
    <clipPath
       id="clip15-2">
      <rect
         x="3360"
         y="4256"
         width="294"
         height="114"
         id="rect251" />
    </clipPath>
    <clipPath
       id="clip16-1">
      <rect
         x="3360"
         y="4401"
         width="292"
         height="113"
         id="rect254" />
    </clipPath>
    <clipPath
       id="clip17-6">
      <rect
         x="3360"
         y="4401"
         width="292"
         height="113"
         id="rect257" />
    </clipPath>
    <clipPath
       id="clip18-7">
      <rect
         x="3360"
         y="4401"
         width="292"
         height="113"
         id="rect260" />
    </clipPath>
    <clipPath
       id="clip19-8">
      <rect
         x="2947"
         y="4406"
         width="399"
         height="106"
         id="rect263" />
    </clipPath>
    <clipPath
       id="clip20-5">
      <rect
         x="2947"
         y="4406"
         width="399"
         height="106"
         id="rect266" />
    </clipPath>
    <clipPath
       id="clip21-8">
      <rect
         x="2947"
         y="4406"
         width="399"
         height="106"
         id="rect269" />
    </clipPath>
    <clipPath
       id="clip22-7">
      <rect
         x="2947"
         y="4405"
         width="398"
         height="107"
         id="rect272" />
    </clipPath>
    <clipPath
       id="clip23-3">
      <rect
         x="2947"
         y="4405"
         width="398"
         height="107"
         id="rect275" />
    </clipPath>
    <clipPath
       id="clip24-4">
      <rect
         x="2947"
         y="4405"
         width="398"
         height="107"
         id="rect278" />
    </clipPath>
  </defs>
  <sodipodi:namedview
     id="base"
     pagecolor="#ffffff"
     bordercolor="#666666"
     borderopacity="1.0"
     inkscape:pageopacity="0.0"
     inkscape:pageshadow="2"
     inkscape:zoom="0.24748737"
     inkscape:cx="913.69425"
     inkscape:cy="-95.029863"
     inkscape:document-units="mm"
     inkscape:current-layer="layer1"
     inkscape:document-rotation="0"
     showgrid="false"
     inkscape:window-width="1267"
     inkscape:window-height="1040"
     inkscape:window-x="147"
     inkscape:window-y="0"
     inkscape:window-maximized="0" />
  <metadata
     id="metadata3222">
    <rdf:RDF>
      <cc:Work
         rdf:about="">
        <dc:format>image/svg+xml</dc:format>
        <dc:type
           rdf:resource="http://purl.org/dc/dcmitype/StillImage" />
        <dc:title />
      </cc:Work>
    </rdf:RDF>
  </metadata>
  <g
     inkscape:label="Layer 1"
     inkscape:groupmode="layer"
     id="layer1"
     transform="translate(143.0195,-118.2409)">
    <g
       clip-path="url(#clip1-8)"
       id="g301"
       transform="matrix(0.26458333,0,0,0.26458333,-498.63139,-904.38427)">
      <g
         clip-path="url(#clip2-6)"
         id="g299">
        <g
           clip-path="url(#clip3-8)"
           id="g297">
          <path
             d="m 838.314,1159.71 h 397.046 v 106.22 H 838.314 Z"
             stroke="#172983"
             stroke-width="0.720538"
             stroke-linecap="round"
             stroke-linejoin="round"
             fill="none"
             transform="matrix(1.00066,0,0,1,2106.49,3099.65)"
             id="path283" />
          <path
             d="m 854.508,1169.15 h 78.362 v 26.19 h -78.362 z"
             fill="#009ee0"
             transform="matrix(1.00066,0,0,1,2106.49,3099.65)"
             id="path285" />
          <path
             d="m 904.718,1188.33 c 0,1.68 -0.446,2.99 -1.34,3.92 -0.893,0.93 -2.122,1.39 -3.689,1.38 -1.564,0 -2.792,-0.46 -3.686,-1.38 -0.893,-0.92 -1.34,-2.22 -1.34,-3.92 v -8.71 h 1.726 v 8.75 c 0,2.43 1.102,3.65 3.3,3.65 2.201,-0.01 3.304,-1.22 3.304,-3.65 v -8.75 h 1.725 z"
             fill="#ffffff"
             transform="matrix(1.00066,0,0,1,2106.49,3099.65)"
             id="path287" />
          <path
             d="m 408.574,840.745 v 6.341 h -1.726 v -13.759 h 1.726 v 5.747 h 6.6 v -5.747 h 1.726 v 13.759 h -1.726 v -6.341 z"
             fill="#ffffff"
             transform="matrix(1.00066,0,0,1,2607.54,3445.94)"
             id="path289" />
          <path
             d="m 421.684,841.034 v 6.052 h -1.729 v -13.759 h 8.913 v 1.593 h -7.184 v 4.482 h 6.409 v 1.632 z"
             fill="#ffffff"
             transform="matrix(1.00066,0,0,1,2607.54,3445.94)"
             id="path291" />
          <path
             d="m 445.538,859.242 c -0.847,0.45 -1.798,0.677 -2.757,0.659 -1.498,0.043 -2.947,-0.54 -3.995,-1.61 -1.416,-1.474 -1.747,-3.297 -1.747,-5.527 0,-2.23 0.331,-4.057 1.747,-5.53 2.219,-2.173 5.772,-2.173 7.991,0 1.416,1.473 1.747,3.3 1.747,5.53 0,2.327 -0.36,4.053 -1.801,5.606 l 1.318,1.61 -1.142,0.93 z m -1.081,-1.319 -1.881,-2.327 1.124,-0.912 1.942,2.367 c 1.009,-1.164 1.106,-2.756 1.106,-4.287 0,-1.531 -0.097,-3.163 -1.146,-4.323 -1.524,-1.553 -4.02,-1.578 -5.573,-0.054 -0.018,0.018 -0.036,0.036 -0.054,0.054 -1.045,1.163 -1.142,2.774 -1.142,4.323 0,1.549 0.097,3.163 1.142,4.323 0.724,0.778 1.751,1.204 2.814,1.164 0.572,0.003 1.134,-0.112 1.66,-0.339 z"
             fill="#009ee0"
             transform="matrix(1.00066,0,0,1,2607.3,3433.41)"
             id="path293" />
          <path
             d="m 458.648,855.74 h -5.934 l -1.38,3.88 h -1.765 l 5.105,-13.755 h 2.053 l 5.123,13.755 h -1.801 z m -0.598,-1.629 -2.389,-6.636 -2.367,6.636 z"
             fill="#009ee0"
             transform="matrix(1.00066,0,0,1,2607.3,3433.41)"
             id="path295" />
        </g>
      </g>
    </g>
    <g
       clip-path="url(#clip4-9)"
       id="g309"
       transform="matrix(0.26458333,0,0,0.26458333,-498.63139,-904.38427)">
      <g
         clip-path="url(#clip5-7)"
         id="g307">
        <g
           clip-path="url(#clip6-2)"
           id="g305">
          <path
             d="M 761.017,415.929 H 1157.33 V 521.958 H 761.017 Z"
             stroke="#172983"
             stroke-width="0.719203"
             stroke-linecap="round"
             stroke-linejoin="round"
             fill="none"
             transform="matrix(1,0,0,1.00186,2184.34,3841.66)"
             id="path303" />
        </g>
      </g>
    </g>
    <g
       clip-path="url(#clip7-2)"
       id="g319"
       transform="matrix(0.26458333,0,0,0.26458333,-498.63139,-904.38427)">
      <g
         clip-path="url(#clip8-3)"
         id="g317">
        <g
           clip-path="url(#clip9-7)"
           id="g315">
          <path
             d="m -3622.38,76.7791 h 280.01 V 177.463 h -280.01 z"
             stroke="#172983"
             stroke-width="0.682927"
             stroke-linecap="round"
             stroke-linejoin="round"
             fill="none"
             transform="matrix(1.00595,0,0,1,7005.52,3900.82)"
             id="path311" />
          <path
             d="M -3342.36,76.7791 V 177.46 h -279.99 V 76.7791 h 279.99 m 0,-5.6034 h -279.99 c -3.1,0.002 -5.6,2.5101 -5.6,5.6034 V 177.46 c 0,3.093 2.5,5.601 5.6,5.603 h 279.99 c 3.09,-0.002 5.6,-2.51 5.6,-5.603 V 76.7791 c 0,-3.0933 -2.51,-5.6014 -5.6,-5.6034 z"
             fill="#009ee0"
             transform="matrix(1.00595,0,0,1,7005.52,3900.82)"
             id="path313" />
        </g>
      </g>
    </g>
    <g
       clip-path="url(#clip10-9)"
       id="g329"
       transform="matrix(0.26458333,0,0,0.26458333,-498.63139,-904.38427)">
      <g
         clip-path="url(#clip11-4)"
         id="g327">
        <g
           clip-path="url(#clip12-6)"
           id="g325">
          <path
             d="m -3643.92,77.2356 h 281.68 V 178.518 h -281.68 z"
             stroke="#172983"
             stroke-width="0.686987"
             stroke-linecap="round"
             stroke-linejoin="round"
             fill="none"
             transform="matrix(1,0,0,1.00296,7005.52,4043.19)"
             id="path321" />
          <path
             d="M -3362.23,77.2356 V 178.515 h -281.65 V 77.2356 h 281.65 m 0,-5.6368 h -281.65 c -3.13,0.0021 -5.64,2.5251 -5.64,5.6368 V 178.515 c 0,3.112 2.51,5.635 5.64,5.636 h 281.65 c 3.11,-0.001 5.63,-2.524 5.63,-5.636 V 77.2356 c 0,-3.1117 -2.52,-5.6347 -5.63,-5.6368 z"
             fill="#009ee0"
             transform="matrix(1,0,0,1.00296,7005.52,4043.19)"
             id="path323" />
        </g>
      </g>
    </g>
    <path
       d="m -108.26779,155.09999 c -0.254,0 -0.52652,0.008 -0.82285,0.0265 l -2.24103,10.23937 c 0.16669,0.0185 0.48684,0.0265 0.96044,0.0265 0.93663,0 1.72773,-0.16404 2.38125,-0.48948 0.65088,-0.32544 1.21444,-0.83608 1.68804,-1.53194 0.47361,-0.69585 0.82286,-1.42875 1.04775,-2.19869 0.2249,-0.76993 0.33602,-1.5822 0.33602,-2.43681 0,-1.2065 -0.28045,-2.11402 -0.84402,-2.72256 -0.56091,-0.60854 -1.397,-0.91281 -2.5056,-0.91281 z m -3.30729,-0.75407 h 3.28083 c 0.87313,0 1.57956,0.0661 2.12196,0.20109 0.5424,0.13229 1.04775,0.37041 1.51871,0.71702 0.47096,0.3466 0.82285,0.80698 1.06098,1.38112 0.23548,0.57415 0.35454,1.25413 0.35454,2.0373 0,0.78052 -0.09,1.524 -0.26723,2.23308 -0.17992,0.71173 -0.43656,1.36525 -0.77258,1.96056 -0.33338,0.59796 -0.73555,1.11654 -1.20121,1.5584 -0.46831,0.44185 -0.92075,0.78052 -1.35996,1.01864 -0.43921,0.23548 -0.92869,0.41275 -1.47108,0.53182 -0.5424,0.11906 -1.17475,0.17727 -1.89707,0.17727 h -3.63537 l 0.0953,-0.42334 c 0.2196,-0.0344 0.38364,-0.0926 0.49477,-0.16933 0.10848,-0.0794 0.20108,-0.18521 0.27517,-0.32544 0.0767,-0.13758 0.14552,-0.30691 0.20902,-0.50535 0.0635,-0.19844 0.15875,-0.58473 0.28575,-1.15623 l 1.47108,-6.66486 c 0.127,-0.57679 0.1905,-1.04245 0.1905,-1.39435 0,-0.26987 -0.0688,-0.46037 -0.20373,-0.56621 -0.13494,-0.10583 -0.34925,-0.16933 -0.64558,-0.18521 z"
       fill="#172983"
       fill-rule="evenodd"
       id="path331"
       style="stroke-width:0.264583" />
    <text
       fill="#000000"
       fill-opacity="0"
       font-family="Arial, Arial_MSFontService, sans-serif"
       font-size="11.8152px"
       x="-113.84258"
       y="164.68587"
       id="text333"
       style="stroke-width:0.264583">𝐷</text>
    <path
       d="m -99.332812,161.61138 h 0.383646 c -0.0079,0.23019 -0.01323,0.43921 -0.01852,0.62177 -0.0026,0.18521 -0.0053,0.36248 -0.0079,0.53446 -0.0026,0.17463 -0.0026,0.34661 -0.0026,0.51329 v 4.81277 c 0,0.12965 0.0026,0.24342 0.01058,0.33867 0.0079,0.0952 0.02381,0.17463 0.04233,0.24077 0.01852,0.0635 0.04498,0.11906 0.07673,0.16669 0.03175,0.0476 0.06615,0.0873 0.108479,0.11906 0.05292,0.0529 0.119062,0.09 0.203729,0.11906 0.08467,0.0265 0.193146,0.0503 0.322792,0.0688 0.129646,0.0185 0.288396,0.0344 0.470958,0.045 0.185208,0.0106 0.404813,0.0185 0.661458,0.0212 v 0.55034 h -5.01914 v -0.55034 c 0.24871,-0.008 0.46037,-0.0185 0.63235,-0.0291 0.17463,-0.0106 0.32015,-0.0238 0.4445,-0.0423 0.12171,-0.0212 0.2196,-0.0423 0.29369,-0.0635 0.0741,-0.0238 0.13758,-0.0529 0.19314,-0.0873 0.0582,-0.037 0.10848,-0.0794 0.15082,-0.12171 0.0423,-0.045 0.0767,-0.10054 0.10318,-0.16933 0.0238,-0.0661 0.045,-0.14817 0.0582,-0.24606 0.0159,-0.0979 0.0238,-0.21696 0.0238,-0.35984 v -4.54025 c 0,-0.16404 -0.0318,-0.28045 -0.0953,-0.3466 -0.0635,-0.0688 -0.15345,-0.10319 -0.27252,-0.10319 -0.12964,0 -0.32543,0.0688 -0.58208,0.20373 -0.25665,0.13494 -0.59002,0.33602 -1.00012,0.60061 -0.0556,-0.0979 -0.10584,-0.19315 -0.15346,-0.29105 -0.045,-0.0979 -0.0926,-0.19579 -0.14552,-0.29633 0.52387,-0.28839 1.04245,-0.57414 1.55575,-0.85989 0.51329,-0.28311 1.03187,-0.56621 1.561036,-0.84932 z"
       fill="#172983"
       fill-rule="evenodd"
       id="path335"
       style="stroke-width:0.264583" />
    <text
       fill="#000000"
       fill-opacity="0"
       font-family="Arial, Arial_MSFontService, sans-serif"
       font-size="8.15351px"
       x="-102.4496"
       y="168.74452"
       id="text337"
       style="stroke-width:0.264583">1</text>
    <text
       fill="#172983"
       font-family="'ZI Akkurat', 'ZI Akkurat_MSFontService', sans-serif"
       font-weight="400"
       font-size="10.5833px"
       id="text375"
       x="-54.819313"
       y="126.1678"
       style="stroke-width:0.264583">Bell State <tspan
   font-size="10.5833px"
   x="-59.662933"
   y="138.8678"
   id="tspan339"
   style="stroke-width:0.0700043">Preperation</tspan><tspan
   font-size="10.5833px"
   x="-130.96852"
   y="126.1678"
   id="tspan341"
   style="stroke-width:0.0700043">Data and</tspan><tspan
   font-size="10.5833px"
   x="-143.06183"
   y="138.8678"
   id="tspan343"
   style="stroke-width:0.0700043">Ancilla Qubits</tspan><tspan
   font-size="10.5833px"
   x="10.719302"
   y="126.1678"
   id="tspan345"
   style="stroke-width:0.0700043">Arbitrary</tspan><tspan
   font-size="10.5833px"
   x="20.166517"
   y="138.8678"
   id="tspan347"
   style="stroke-width:0.0700043">Error</tspan><tspan
   font-size="10.5833px"
   x="69.190628"
   y="126.1678"
   id="tspan349"
   style="stroke-width:0.0700043">Encoding</tspan><tspan
   font-size="10.5833px"
   x="58.229736"
   y="138.8678"
   id="tspan351"
   style="stroke-width:0.0700043">Bit (ZZ) Parity</tspan><tspan
   font-size="10.5833px"
   x="152.27827"
   y="126.1678"
   id="tspan353"
   style="stroke-width:0.0700043">Encoding</tspan><tspan
   font-size="10.5833px"
   x="133.69049"
   y="138.8678"
   id="tspan355"
   style="stroke-width:0.0700043">Phase (XX) Parity</tspan><tspan
   font-size="10.5833px"
   x="413.28415"
   y="125.90321"
   id="tspan357"
   style="stroke-width:0.0700043">Qubit</tspan><tspan
   font-size="10.5833px"
   x="408.60632"
   y="138.60321"
   id="tspan359"
   style="stroke-width:0.0700043">Control</tspan><tspan
   font-size="10.5833px"
   x="315.66614"
   y="126.96155"
   id="tspan361"
   style="stroke-width:0.0700043">Qubit</tspan><tspan
   font-size="10.5833px"
   x="308.3504"
   y="139.66154"
   id="tspan363"
   style="stroke-width:0.0700043">Readout</tspan><tspan
   font-size="10.5833px"
   x="404.78574"
   y="158.44696"
   id="tspan365"
   style="stroke-width:0.0700043">HDAWG 1</tspan><tspan
   font-size="10.5833px"
   x="411.04843"
   y="171.14697"
   id="tspan367"
   style="stroke-width:0.0700043">AWG 0</tspan><tspan
   font-size="10.5833px"
   x="295.70862"
   y="246.55322"
   id="tspan369"
   style="stroke-width:0.0700043">READOUT CH 0</tspan><tspan
   font-size="10.5833px"
   x="403.94968"
   y="196.54697"
   id="tspan371"
   style="stroke-width:0.0700043">HDAWG 2</tspan><tspan
   font-size="10.5833px"
   x="411.05109"
   y="209.24696"
   id="tspan373"
   style="stroke-width:0.0700043">AWG 0</tspan></text>
    <g
       clip-path="url(#clip13-4)"
       id="g385"
       transform="matrix(0.26458333,0,0,0.26458333,-498.63139,-904.38427)">
      <g
         clip-path="url(#clip14-8)"
         id="g383">
        <g
           clip-path="url(#clip15-2)"
           id="g381">
          <path
             d="m -3643.92,77.2356 h 281.68 V 178.518 h -281.68 z"
             stroke="#172983"
             stroke-width="0.686987"
             stroke-linecap="round"
             stroke-linejoin="round"
             fill="none"
             transform="matrix(1,0,0,1.00297,7009.52,4184.19)"
             id="path377" />
          <path
             d="M -3362.23,77.2356 V 178.515 h -281.65 V 77.2356 h 281.65 m 0,-5.6368 h -281.65 c -3.13,0.0021 -5.64,2.5251 -5.64,5.6368 V 178.515 c 0,3.112 2.51,5.635 5.64,5.636 h 281.65 c 3.11,-0.001 5.63,-2.524 5.63,-5.636 V 77.2356 c 0,-3.1117 -2.52,-5.6347 -5.63,-5.6368 z"
             fill="#009ee0"
             transform="matrix(1,0,0,1.00297,7009.52,4184.19)"
             id="path379" />
        </g>
      </g>
    </g>
    <g
       clip-path="url(#clip16-1)"
       id="g395"
       transform="matrix(0.26458333,0,0,0.26458333,-498.63139,-904.38427)">
      <g
         clip-path="url(#clip17-6)"
         id="g393">
        <g
           clip-path="url(#clip18-7)"
           id="g391">
          <path
             d="m -3631.48,76.972 h 280.72 v 100.937 h -280.72 z"
             stroke="#172983"
             stroke-width="0.684642"
             stroke-linecap="round"
             stroke-linejoin="round"
             fill="none"
             transform="matrix(1,0,0,1.0064,6997.06,4329.19)"
             id="path387" />
          <path
             d="m -3350.76,76.972 v 100.933 h -280.69 V 76.972 h 280.69 m 0,-5.6175 h -280.69 c -3.11,0.002 -5.61,2.5164 -5.61,5.6175 v 100.933 c 0,3.102 2.5,5.616 5.61,5.618 h 280.69 c 3.1,-0.002 5.62,-2.516 5.62,-5.618 V 76.972 c 0,-3.1011 -2.52,-5.6155 -5.62,-5.6175 z"
             fill="#009ee0"
             transform="matrix(1,0,0,1.0064,6997.06,4329.19)"
             id="path389" />
        </g>
      </g>
    </g>
    <text
       fill="#172983"
       font-family="'ZI Akkurat', 'ZI Akkurat_MSFontService', sans-serif"
       font-weight="400"
       font-size="10.5833px"
       id="text403"
       x="405.87317"
       y="233.85323"
       style="stroke-width:0.264583">HDAWG 1 <tspan
   font-size="10.5833px"
   x="413.28152"
   y="246.55322"
   id="tspan397"
   style="stroke-width:0.0700043">AWG 1</tspan><tspan
   font-size="10.5833px"
   x="404.97983"
   y="272.74698"
   id="tspan399"
   style="stroke-width:0.0700043">HDAWG 2</tspan><tspan
   font-size="10.5833px"
   x="413.22778"
   y="285.44696"
   id="tspan401"
   style="stroke-width:0.0700043">AWG 1</tspan></text>
    <g
       clip-path="url(#clip19-8)"
       id="g423"
       transform="matrix(0.26458333,0,0,0.26458333,-498.63139,-904.38427)">
      <g
         clip-path="url(#clip20-5)"
         id="g421">
        <g
           clip-path="url(#clip21-8)"
           id="g419">
          <path
             d="m 830.48,1148.87 h 393.34 V 1254.1 H 830.48 Z"
             stroke="#172983"
             stroke-width="0.713805"
             stroke-linecap="round"
             stroke-linejoin="round"
             fill="none"
             transform="matrix(1.0101,0,0,1,2108.49,3257.48)"
             id="path405" />
          <path
             d="m 846.522,1158.22 h 77.63 v 25.95 h -77.63 z"
             fill="#009ee0"
             transform="matrix(1.0101,0,0,1,2108.49,3257.48)"
             id="path407" />
          <path
             d="m 896.264,1177.23 c 0,1.66 -0.443,2.96 -1.328,3.88 -0.885,0.92 -2.102,1.38 -3.654,1.36 -1.549,0 -2.766,-0.45 -3.652,-1.36 -0.885,-0.91 -1.327,-2.2 -1.327,-3.88 v -8.64 h 1.709 v 8.67 c 0,2.42 1.092,3.62 3.27,3.62 2.18,0 3.272,-1.21 3.272,-3.62 v -8.67 h 1.71 z"
             fill="#ffffff"
             transform="matrix(1.0101,0,0,1,2108.49,3257.48)"
             id="path409" />
          <path
             d="m 404.756,832.889 v 6.281 h -1.71 v -13.63 h 1.71 v 5.693 h 6.538 v -5.693 h 1.71 v 13.63 h -1.71 v -6.281 z"
             fill="#ffffff"
             transform="matrix(1.0101,0,0,1,2609.54,3600.54)"
             id="path411" />
          <path
             d="m 417.743,833.174 v 5.996 h -1.713 v -13.63 h 8.83 v 1.578 h -7.117 v 4.439 h 6.35 v 1.617 z"
             fill="#ffffff"
             transform="matrix(1.0101,0,0,1,2609.54,3600.54)"
             id="path413" />
          <path
             d="m 441.374,851.212 c -0.839,0.446 -1.781,0.671 -2.73,0.653 -1.485,0.043 -2.92,-0.535 -3.958,-1.595 -1.403,-1.46 -1.731,-3.266 -1.731,-5.475 0,-2.209 0.328,-4.019 1.731,-5.478 2.198,-2.153 5.717,-2.153 7.916,0 1.402,1.459 1.731,3.269 1.731,5.478 0,2.306 -0.357,4.015 -1.785,5.553 l 1.306,1.596 -1.131,0.921 z m -1.071,-1.306 -1.863,-2.306 1.114,-0.903 1.924,2.345 c 0.999,-1.153 1.095,-2.73 1.095,-4.247 0,-1.517 -0.096,-3.134 -1.135,-4.283 -1.509,-1.538 -3.983,-1.563 -5.521,-0.053 -0.018,0.018 -0.036,0.035 -0.054,0.053 -1.035,1.153 -1.131,2.748 -1.131,4.283 0,1.535 0.096,3.134 1.131,4.283 0.718,0.771 1.735,1.192 2.788,1.153 0.567,0.003 1.124,-0.111 1.645,-0.336 z"
             fill="#009ee0"
             transform="matrix(1.0101,0,0,1,2609.3,3588.12)"
             id="path415" />
          <path
             d="m 454.362,847.743 h -5.879 l -1.366,3.844 h -1.749 l 5.057,-13.627 h 2.034 l 5.076,13.627 h -1.785 z m -0.593,-1.613 -2.366,-6.574 -2.345,6.574 z"
             fill="#009ee0"
             transform="matrix(1.0101,0,0,1,2609.3,3588.12)"
             id="path417" />
        </g>
      </g>
    </g>
    <g
       clip-path="url(#clip22-7)"
       id="g431"
       transform="matrix(0.26458333,0,0,0.26458333,-498.63139,-904.38427)">
      <g
         clip-path="url(#clip23-3)"
         id="g429">
        <g
           clip-path="url(#clip24-4)"
           id="g427">
          <path
             d="M 761.017,415.929 H 1157.33 V 521.958 H 761.017 Z"
             stroke="#172983"
             stroke-width="0.719203"
             stroke-linecap="round"
             stroke-linejoin="round"
             fill="none"
             transform="matrix(1,0,0,1.00186,2186.34,3988.66)"
             id="path425" />
        </g>
      </g>
    </g>
    <text
       fill="#172983"
       font-family="'ZI Akkurat', 'ZI Akkurat_MSFontService', sans-serif"
       font-weight="400"
       font-size="10.5833px"
       id="text433"
       x="297.37549"
       y="285.44696"
       style="stroke-width:0.264583">READOUT CH 1</text>
    <rect
       x="-26.085562"
       y="258.45947"
       width="269.875"
       height="32.808334"
       stroke="#ffe6c9"
       stroke-width="1.05833"
       stroke-miterlimit="8"
       fill="#ffe6c9"
       id="rect435" />
    <rect
       x="144.83527"
       y="148.65738"
       width="60.060417"
       height="135.99583"
       stroke="#ffe6c9"
       stroke-width="1.05833"
       stroke-miterlimit="8"
       fill="#ffe6c9"
       id="rect437" />
    <rect
       x="60.962353"
       y="148.65738"
       width="59.795834"
       height="99.747917"
       stroke="#d5edfa"
       stroke-width="1.05833"
       stroke-miterlimit="8"
       fill="#d5edfa"
       id="rect439" />
    <path
       d="M -84.823062,161.35738 H 381.17697"
       stroke="#009ee0"
       stroke-width="1.05833"
       stroke-linecap="square"
       stroke-miterlimit="8"
       fill="none"
       fill-rule="evenodd"
       id="path441" />
    <path
       d="M -85.881395,197.86988 H 380.11864"
       stroke="#009ee0"
       stroke-width="1.05833"
       stroke-linecap="square"
       stroke-miterlimit="8"
       fill="none"
       fill-rule="evenodd"
       id="path443" />
    <path
       d="m -108.29689,155.10263 c -0.254,0 -0.52653,0.0106 -0.82286,0.0265 l -2.24102,10.23938 c 0.16669,0.0185 0.48683,0.0265 0.96044,0.0265 0.93662,0 1.72773,-0.16139 2.38125,-0.48947 0.65087,-0.32544 1.21444,-0.83609 1.68804,-1.53194 0.4736,-0.69586 0.82285,-1.42875 1.04775,-2.19869 0.2249,-0.76994 0.33602,-1.58221 0.33602,-2.43681 0,-1.20386 -0.28046,-2.11138 -0.84402,-2.72256 -0.56092,-0.60855 -1.397,-0.91282 -2.5056,-0.91282 z m -3.30465,-0.75141 h 3.27819 c 0.87312,0 1.57956,0.0661 2.12196,0.19843 0.54239,0.1323 1.04775,0.37307 1.5187,0.71967 0.47096,0.34396 0.82286,0.80433 1.06098,1.37848 0.23548,0.57415 0.35454,1.25412 0.35454,2.03994 0,0.77787 -0.09,1.524 -0.26722,2.23308 -0.17992,0.70908 -0.43657,1.3626 -0.77259,1.96056 -0.33337,0.59796 -0.73554,1.11654 -1.20121,1.5584 -0.46831,0.43921 -0.92075,0.78052 -1.35995,1.016 -0.43921,0.23548 -0.92869,0.41539 -1.47109,0.53181 -0.54239,0.11906 -1.17475,0.17727 -1.89706,0.17727 h -3.63538 l 0.0952,-0.42333 c 0.21961,-0.0344 0.38365,-0.09 0.49478,-0.16933 0.10847,-0.0767 0.20108,-0.18521 0.27781,-0.3228 0.0741,-0.14023 0.14287,-0.30956 0.20637,-0.508 0.0635,-0.19843 0.15875,-0.58473 0.28575,-1.15623 l 1.47109,-6.66485 c 0.127,-0.57679 0.1905,-1.03981 0.1905,-1.39171 0,-0.27252 -0.0661,-0.46037 -0.20373,-0.56885 -0.13494,-0.10584 -0.34925,-0.16669 -0.64294,-0.18521 z"
       fill="#172983"
       fill-rule="evenodd"
       id="path445"
       style="stroke-width:0.264583" />
    <text
       fill="#000000"
       fill-opacity="0"
       font-family="Arial, Arial_MSFontService, sans-serif"
       font-size="11.8152px"
       x="-113.87167"
       y="164.68851"
       id="text447"
       style="stroke-width:0.264583">𝐷</text>
    <path
       d="m -99.361916,161.61403 h 0.386292 c -0.01058,0.23283 -0.01588,0.43921 -0.02117,0.62442 -0.0026,0.18256 -0.0053,0.35983 -0.0079,0.53445 -0.0026,0.17198 -0.0026,0.34396 -0.0026,0.5133 v 4.81012 c 0,0.12965 0.0026,0.24342 0.01058,0.33867 0.01058,0.0952 0.02381,0.17462 0.04233,0.24077 0.01852,0.0661 0.04498,0.12171 0.07673,0.16669 0.03175,0.0476 0.06879,0.0873 0.111125,0.1217 0.05027,0.0503 0.116416,0.09 0.201083,0.11642 0.08467,0.0265 0.193146,0.0503 0.322792,0.0688 0.132291,0.0212 0.288395,0.0344 0.470958,0.045 0.185208,0.0106 0.404812,0.0185 0.661458,0.0212 v 0.55298 h -5.019152 v -0.55298 c 0.24871,-0.008 0.46038,-0.0159 0.63236,-0.0265 0.17462,-0.0106 0.32279,-0.0265 0.4445,-0.045 0.1217,-0.0185 0.2196,-0.0397 0.29368,-0.0635 0.0741,-0.0238 0.13759,-0.0503 0.19315,-0.0847 0.0582,-0.0397 0.10848,-0.0794 0.15081,-0.12435 0.0423,-0.045 0.0767,-0.10054 0.10319,-0.16669 0.0238,-0.0688 0.045,-0.15081 0.0582,-0.24871 0.0159,-0.0953 0.0238,-0.21695 0.0238,-0.35983 v -4.5376 c 0,-0.16669 -0.0318,-0.28311 -0.0953,-0.34925 -0.0635,-0.0688 -0.15346,-0.10055 -0.27252,-0.10055 -0.12965,0 -0.32544,0.0661 -0.58208,0.20109 -0.25665,0.13494 -0.59002,0.33602 -1.00013,0.60325 -0.0556,-0.0979 -0.10583,-0.19579 -0.15346,-0.29369 -0.045,-0.0953 -0.0926,-0.19579 -0.14552,-0.29633 0.52388,-0.28575 1.04246,-0.57415 1.55575,-0.85725 0.51329,-0.28575 1.031881,-0.56886 1.561048,-0.85196 z"
       fill="#172983"
       fill-rule="evenodd"
       id="path449"
       style="stroke-width:0.264583" />
    <text
       fill="#000000"
       fill-opacity="0"
       font-family="Arial, Arial_MSFontService, sans-serif"
       font-size="8.15351px"
       x="-102.4787"
       y="168.74718"
       id="text451"
       style="stroke-width:0.264583">1</text>
    <path
       d="m -108.42919,193.04388 c -0.254,0 -0.52916,0.008 -0.82285,0.0238 l -2.24367,10.24202 c 0.16934,0.0159 0.48948,0.0238 0.96309,0.0238 0.93398,0 1.72773,-0.1614 2.3786,-0.48683 0.65352,-0.32809 1.21444,-0.83873 1.68804,-1.53194 0.47361,-0.69586 0.82286,-1.42875 1.04775,-2.19869 0.2249,-0.77258 0.33867,-1.58221 0.33867,-2.43681 0,-1.2065 -0.28311,-2.11402 -0.84402,-2.72256 -0.56356,-0.60855 -1.39965,-0.91282 -2.50561,-0.91282 z m -3.30729,-0.75406 h 3.28084 c 0.87047,0 1.57691,0.0662 2.11931,0.19844 0.54239,0.13229 1.05039,0.37306 1.51871,0.71966 0.47095,0.34661 0.8255,0.80698 1.06098,1.38113 0.23812,0.57415 0.35454,1.25148 0.35454,2.03729 0,0.78052 -0.0873,1.524 -0.26723,2.23308 -0.17992,0.70909 -0.43656,1.36261 -0.76994,1.96057 -0.33602,0.59796 -0.73554,1.11654 -1.20385,1.55839 -0.46832,0.44186 -0.92075,0.78052 -1.35996,1.016 -0.43656,0.23813 -0.92869,0.4154 -1.47109,0.53446 -0.54239,0.11642 -1.17475,0.17727 -1.89441,0.17727 h -3.63538 l 0.0953,-0.42598 c 0.21961,-0.0344 0.38365,-0.09 0.49213,-0.16668 0.11112,-0.0794 0.20373,-0.18786 0.27781,-0.32544 0.0741,-0.13759 0.14288,-0.30692 0.20638,-0.50536 0.0635,-0.20108 0.15875,-0.58473 0.28575,-1.15623 l 1.47372,-6.66485 c 0.127,-0.57679 0.18786,-1.04246 0.18786,-1.39435 0,-0.27252 -0.0661,-0.46038 -0.20108,-0.56621 -0.13759,-0.10848 -0.3519,-0.16934 -0.64559,-0.18786 z"
       fill="#172983"
       fill-rule="evenodd"
       id="path453"
       style="stroke-width:0.264583" />
    <text
       fill="#000000"
       fill-opacity="0"
       font-family="Arial, Arial_MSFontService, sans-serif"
       font-size="11.8152px"
       x="-114.00397"
       y="202.62709"
       id="text455"
       style="stroke-width:0.264583">𝐷</text>
    <path
       d="m -99.58152,199.5103 c 0.439208,0 0.812271,0.0476 1.124479,0.14817 0.309563,0.0979 0.560917,0.23283 0.756708,0.40216 0.193146,0.16934 0.333375,0.37042 0.420688,0.6059 0.08467,0.23812 0.129646,0.49212 0.129646,0.76729 0,0.16404 -0.01323,0.3175 -0.0344,0.45773 -0.02381,0.14287 -0.0635,0.2831 -0.121708,0.41804 -0.05556,0.13758 -0.132292,0.27517 -0.224896,0.4154 -0.0926,0.14023 -0.209021,0.28839 -0.346604,0.4445 -0.105834,0.13493 -0.243417,0.29104 -0.41275,0.46831 -0.169334,0.17727 -0.354542,0.36512 -0.55298,0.56885 -0.201083,0.20109 -0.410104,0.41275 -0.629708,0.63236 -0.219604,0.2196 -0.433917,0.43656 -0.640285,0.65352 -0.20638,0.21431 -0.39688,0.42333 -0.56886,0.62442 -0.17462,0.20372 -0.31485,0.38893 -0.42598,0.55827 h 2.344208 c 0.198438,0 0.354542,-0.008 0.473605,-0.0212 0.119062,-0.0159 0.216958,-0.0476 0.293687,-0.0979 0.07937,-0.0529 0.145521,-0.12964 0.201083,-0.23283 0.05292,-0.10319 0.116417,-0.24606 0.187855,-0.42598 h 0.59002 c -0.02117,0.29898 -0.04233,0.60061 -0.06085,0.90488 -0.01852,0.30427 -0.03969,0.60589 -0.05821,0.90487 h -5.363098 v -0.32808 c 0.10054,-0.23019 0.2196,-0.45244 0.35454,-0.67469 0.13494,-0.22225 0.28575,-0.44715 0.45508,-0.67469 0.16933,-0.22754 0.36248,-0.46302 0.57679,-0.70643 0.21431,-0.24342 0.45244,-0.49478 0.71438,-0.75671 0.39687,-0.39688 0.719662,-0.73554 0.96837,-1.016 0.248709,-0.28046 0.447146,-0.52917 0.590021,-0.74877 0.142875,-0.21961 0.240771,-0.42334 0.293688,-0.60855 0.05292,-0.1852 0.07937,-0.38364 0.07937,-0.59531 0,-0.21431 -0.0291,-0.41275 -0.0926,-0.59531 -0.06086,-0.17992 -0.148167,-0.33602 -0.261938,-0.46038 -0.113771,-0.127 -0.259292,-0.22754 -0.433917,-0.29897 -0.174625,-0.0714 -0.375708,-0.10848 -0.60325,-0.10848 -0.394224,0 -0.722314,0.10848 -0.989534,0.32014 -0.26459,0.21431 -0.47096,0.52388 -0.61913,0.92869 h -0.82814 v -1.2356 c 0.53974,-0.22225 1.03716,-0.3863 1.4896,-0.48684 0.45244,-0.10054 0.862538,-0.15081 1.225017,-0.15081 z"
       fill="#172983"
       fill-rule="evenodd"
       id="path457"
       style="stroke-width:0.264583" />
    <text
       fill="#000000"
       fill-opacity="0"
       font-family="Arial, Arial_MSFontService, sans-serif"
       font-size="8.19782px"
       x="-102.49989"
       y="206.68317"
       id="text459"
       style="stroke-width:0.264583">2</text>
    <text
       fill="#172983"
       font-family="'ZI Akkurat', 'ZI Akkurat_MSFontService', sans-serif"
       font-weight="400"
       font-size="10.5833px"
       id="text463"
       x="-54.848415"
       y="126.1678"
       style="stroke-width:0.264583">Bell State <tspan
   font-size="10.5833px"
   x="-59.692036"
   y="138.8678"
   id="tspan461"
   style="stroke-width:0.0700043">Preperation</tspan></text>
    <rect
       x="-60.481396"
       y="148.65738"
       width="60.060417"
       height="60.060417"
       stroke="#009ee0"
       stroke-width="1.05833"
       stroke-miterlimit="8"
       fill="#ffffff"
       id="rect465" />
    <path
       d="m -45.151437,168.06192 h 1.592791 v 19.23257 h -1.592791 z"
       fill="#009ee0"
       fill-rule="evenodd"
       id="path467"
       style="stroke-width:0.264583" />
    <text
       fill="#000000"
       fill-opacity="0"
       font-family="Arial, Arial_MSFontService, sans-serif"
       font-size="19.234px"
       x="-45.151451"
       y="184.8894"
       id="text469"
       style="stroke-width:0.264583">|</text>
    <path
       d="m -32.237125,168.3609 h 1.632479 l -3.01625,13.69484 c 0.971021,-0.0635 1.817688,-0.35719 2.537354,-0.88371 0.719667,-0.52917 1.277938,-1.25148 1.674813,-2.17223 0.394229,-0.9181 0.592666,-1.95527 0.592666,-3.10621 0,-0.81227 -0.127,-1.61396 -0.381,-2.40771 l 0.121709,-0.51593 h 1.830916 c 0.103188,0.5027 0.153459,1.08743 0.153459,1.75683 0,1.54252 -0.275167,2.94481 -0.8255,4.20687 -0.550334,1.25942 -1.336146,2.24367 -2.357438,2.94482 -1.018646,0.70379 -2.201333,1.0742 -3.542771,1.11654 l -0.9525,4.29948 h -1.632479 l 0.949854,-4.33123 c -2.577041,-0.24077 -3.865562,-1.3335 -3.865562,-3.27554 0,-0.51594 0.113771,-1.2409 0.341313,-2.16959 l 0.320145,-1.28323 c 0.174625,-0.68791 0.259292,-1.18004 0.259292,-1.47637 0,-0.27517 -0.05027,-0.47361 -0.150812,-0.59002 -0.0979,-0.11642 -0.240771,-0.17463 -0.428625,-0.17463 -0.211667,0 -0.418042,0.0662 -0.613834,0.20109 -0.195791,0.13493 -0.394229,0.30427 -0.595312,0.51064 l -0.568854,-0.56885 c 0.518583,-0.48684 0.968375,-0.83344 1.349375,-1.03188 0.383645,-0.20108 0.767291,-0.29898 1.153583,-0.29898 0.515937,0 0.912812,0.15346 1.193271,0.46302 0.277812,0.30957 0.418041,0.75936 0.418041,1.34409 0,0.41275 -0.08467,0.97102 -0.259291,1.67481 l -0.381,1.52929 c -0.06879,0.27517 -0.134938,0.61119 -0.195792,1.00277 -0.0635,0.39159 -0.0926,0.71173 -0.0926,0.96044 0,0.73025 0.195792,1.27794 0.587375,1.63777 0.394229,0.36248 0.971021,0.58208 1.735666,0.65617 z"
       fill="#009ee0"
       fill-rule="evenodd"
       id="path471"
       style="stroke-width:0.264583" />
    <text
       fill="#000000"
       fill-opacity="0"
       font-family="Arial, Arial_MSFontService, sans-serif"
       font-size="18.9342px"
       x="-40.754047"
       y="184.92908"
       id="text473"
       style="stroke-width:0.264583">𝜓</text>
    <path
       d="m -23.58525,167.13853 4.124854,9.27894 v 0.76729 l -4.124854,9.28952 -1.105958,-0.39158 3.317874,-9.28159 -3.317874,-9.29216 z"
       fill="#009ee0"
       fill-rule="evenodd"
       id="path475"
       style="stroke-width:0.264583" />
    <text
       fill="#000000"
       fill-opacity="0"
       font-family="Arial, Arial_MSFontService, sans-serif"
       font-size="19.3373px"
       x="-24.691204"
       y="184.05858"
       id="text477"
       style="stroke-width:0.264583">ۧ</text>
    <rect
       x="17.306103"
       y="148.65738"
       width="29.897917"
       height="60.060417"
       stroke="#009ee0"
       stroke-width="1.05833"
       stroke-miterlimit="8"
       fill="#ffffff"
       id="rect479" />
    <path
       d="m 30.196603,171.86663 c 1.526646,0.0265 2.632604,0.35719 3.317875,0.9869 0.685271,0.63235 1.060979,1.397 1.127125,2.29129 h -1.862666 c -0.05556,-0.48948 -0.275167,-0.90223 -0.656167,-1.2356 -0.383646,-0.33338 -1.04775,-0.508 -1.989667,-0.52123 -0.944562,0.008 -1.627187,0.16668 -2.047875,0.47625 -0.420687,0.30956 -0.627062,0.72231 -0.619125,1.23825 -0.0053,0.36512 0.15875,0.68527 0.492125,0.96308 0.333375,0.27517 0.867834,0.42069 1.603375,0.43656 h 2.116667 v 1.62719 h -2.180167 c -0.6985,0 -1.251479,0.14288 -1.658937,0.42333 -0.410104,0.28046 -0.619125,0.6985 -0.627063,1.24884 0,0.5715 0.238125,1.02393 0.717021,1.36525 0.478896,0.33866 1.198563,0.51329 2.161646,0.52123 0.870479,-0.0106 1.550458,-0.21167 2.042583,-0.60325 0.489479,-0.39159 0.767292,-0.91282 0.836084,-1.5584 h 1.820333 c -0.07144,1.13506 -0.526521,2.01613 -1.36525,2.65113 -0.838729,0.635 -1.949979,0.95779 -3.33375,0.96837 -1.426104,0.003 -2.558521,-0.26723 -3.394604,-0.80433 -0.836083,-0.53711 -1.262063,-1.35467 -1.280583,-2.45534 0.0079,-0.61118 0.211666,-1.16152 0.611187,-1.65364 0.402167,-0.49213 0.944563,-0.81492 1.629833,-0.97102 -0.576791,-0.11113 -1.053041,-0.37307 -1.436687,-0.78052 -0.381,-0.41011 -0.579438,-0.92605 -0.592667,-1.54782 -0.01852,-0.79375 0.328084,-1.49489 1.037167,-2.10608 0.711729,-0.60854 1.886479,-0.92869 3.532187,-0.96044 z"
       fill="#009ee0"
       fill-rule="evenodd"
       id="path481"
       style="stroke-width:0.264583" />
    <text
       fill="#000000"
       fill-opacity="0"
       font-family="Arial, Arial_MSFontService, sans-serif"
       font-size="11.2792px"
       x="25.415588"
       y="181.7356"
       id="text483"
       style="stroke-width:0.264583">ε</text>
    <path
       d="m 74.456103,229.59342 5.6e-5,-65.85506"
       stroke="#009ee0"
       stroke-width="1.05833"
       stroke-linecap="square"
       stroke-miterlimit="8"
       fill="none"
       fill-rule="evenodd"
       id="path485" />
    <path
       d="m 66.783186,237.16051 c 0,-4.16454 3.376084,-7.54063 7.540625,-7.54063 4.164542,0 7.540625,3.37609 7.540625,7.54063 0,4.16454 -3.376083,7.54062 -7.540625,7.54062 -4.164541,0 -7.540625,-3.37608 -7.540625,-7.54062 z"
       stroke="#009ee0"
       stroke-width="1.05833"
       stroke-miterlimit="8"
       fill="#ffffff"
       fill-rule="evenodd"
       id="path487" />
    <path
       d="m 81.782415,237.02822 -14.999996,6e-5"
       stroke="#009ee0"
       stroke-width="1.05833"
       stroke-linecap="square"
       stroke-miterlimit="8"
       fill="none"
       fill-rule="evenodd"
       id="path489" />
    <path
       d="m 71.810269,161.22509 c 0,-1.38906 1.12448,-2.51354 2.513542,-2.51354 1.389063,0 2.513542,1.12448 2.513542,2.51354 0,1.38906 -1.124479,2.51354 -2.513542,2.51354 -1.389062,0 -2.513542,-1.12448 -2.513542,-2.51354 z"
       stroke="#009ee0"
       stroke-width="2.11667"
       stroke-miterlimit="8"
       fill="#009ee0"
       fill-rule="evenodd"
       id="path491" />
    <path
       d="m 74.456103,229.61988 v 14.99923"
       stroke="#009ee0"
       stroke-width="1.05833"
       stroke-linecap="square"
       stroke-miterlimit="8"
       fill="none"
       fill-rule="evenodd"
       id="path493" />
    <path
       d="m 105.94152,229.75747 6e-5,-28.18289"
       stroke="#009ee0"
       stroke-width="1.05833"
       stroke-linecap="square"
       stroke-miterlimit="8"
       fill="none"
       fill-rule="evenodd"
       id="path495" />
    <path
       d="m 98.533186,237.16051 c 0,-4.16454 3.376084,-7.54063 7.540624,-7.54063 4.16454,0 7.54063,3.37609 7.54063,7.54063 0,4.16454 -3.37609,7.54062 -7.54063,7.54062 -4.16454,0 -7.540624,-3.37608 -7.540624,-7.54062 z"
       stroke="#009ee0"
       stroke-width="1.05833"
       stroke-miterlimit="8"
       fill="#ffffff"
       fill-rule="evenodd"
       id="path497" />
    <path
       d="m 113.53241,237.02822 -14.999996,6e-5"
       stroke="#009ee0"
       stroke-width="1.05833"
       stroke-linecap="square"
       stroke-miterlimit="8"
       fill="none"
       fill-rule="evenodd"
       id="path499" />
    <path
       d="m 103.56027,199.06051 c 0,-1.38906 1.12448,-2.51354 2.51354,-2.51354 1.38906,0 2.51354,1.12448 2.51354,2.51354 0,1.38906 -1.12448,2.51354 -2.51354,2.51354 -1.38906,0 -2.51354,-1.12448 -2.51354,-2.51354 z"
       stroke="#009ee0"
       stroke-width="2.11667"
       stroke-miterlimit="8"
       fill="#009ee0"
       fill-rule="evenodd"
       id="path501" />
    <path
       d="m 105.94152,229.61988 v 14.99923"
       stroke="#009ee0"
       stroke-width="1.05833"
       stroke-linecap="square"
       stroke-miterlimit="8"
       fill="none"
       fill-rule="evenodd"
       id="path503" />
    <path
       d="M -30.848063,237.02822 H 250.03095"
       stroke="#009ee0"
       stroke-width="1.05833"
       stroke-linecap="square"
       stroke-miterlimit="8"
       fill="none"
       fill-rule="evenodd"
       id="path505" />
    <path
       d="m -105.9765,231.91647 -3.08239,5.45306 h 3.38666 l -0.14816,-2.78606 c -0.0185,-0.381 -0.0318,-0.85725 -0.0423,-1.42875 -0.0132,-0.5715 -0.0185,-0.98425 -0.0185,-1.23825 z m 0.0529,-1.82563 h 1.30704 l 0.62177,9.652 c 0.0291,0.45508 0.082,0.81227 0.1561,1.06892 0.0741,0.25664 0.17728,0.44714 0.30692,0.5715 0.12965,0.12435 0.32015,0.20373 0.56886,0.23812 l -0.0952,0.42334 h -3.60098 l 0.0953,-0.42334 c 0.33866,-0.0291 0.59266,-0.16139 0.75935,-0.39952 0.16933,-0.23548 0.25135,-0.65087 0.25135,-1.24619 0,-0.22489 -0.008,-0.47095 -0.0238,-0.73554 l -0.0608,-1.11654 h -3.81 l -0.47625,0.84931 c -0.2249,0.39688 -0.38894,0.73819 -0.49213,1.02394 -0.10318,0.28575 -0.1561,0.53975 -0.1561,0.75935 0,0.48419 0.29104,0.77259 0.87312,0.86519 l -0.0952,0.42334 h -3.54012 l 0.0952,-0.42334 c 0.17992,-0.0238 0.34925,-0.0952 0.508,-0.21166 0.15875,-0.11907 0.32544,-0.29898 0.50535,-0.53711 0.17992,-0.24077 0.43127,-0.63764 0.75407,-1.19062 z"
       fill="#172983"
       fill-rule="evenodd"
       id="path507"
       style="stroke-width:0.264583" />
    <text
       fill="#000000"
       fill-opacity="0"
       font-family="Arial, Arial_MSFontService, sans-serif"
       font-size="11.9537px"
       x="-113.33456"
       y="240.54984"
       id="text509"
       style="stroke-width:0.264583">𝐴</text>
    <path
       d="m -99.912249,237.43567 h 5.754687 l -0.103187,0.40482 -5.759981,7.13581 h 2.095502 c 0.219604,0 0.407458,-0.0238 0.566208,-0.0662 0.15875,-0.045 0.304271,-0.127 0.436562,-0.24341 0.134938,-0.11907 0.264584,-0.28311 0.39423,-0.49477 0.127,-0.21167 0.27252,-0.48419 0.433916,-0.81757 h 0.677334 l -0.494771,2.29129 h -5.873751 l 0.0873,-0.41804 5.73617,-7.10671 h -1.987021 c -0.187854,0 -0.346604,0.008 -0.481542,0.0238 -0.134937,0.0185 -0.264583,0.0714 -0.388937,0.16404 -0.124354,0.0926 -0.254,0.24077 -0.391583,0.44185 -0.134938,0.19844 -0.291042,0.4789 -0.468313,0.83873 h -0.701144 z"
       fill="#172983"
       fill-rule="evenodd"
       id="path511"
       style="stroke-width:0.264583" />
    <text
       fill="#000000"
       fill-opacity="0"
       font-family="Arial, Arial_MSFontService, sans-serif"
       font-size="8.21047px"
       x="-101.78549"
       y="244.61909"
       id="text513"
       style="stroke-width:0.264583">𝑍</text>
    <rect
       x="249.87485"
       y="226.97404"
       width="20.108334"
       height="20.108334"
       stroke="#009ee0"
       stroke-width="1.05833"
       stroke-miterlimit="8"
       fill="#ffffff"
       id="rect515" />
    <path
       d="m 252.63445,241.25626 c 0.71173,-3.66713 4.49528,-6.10394 8.4508,-5.44513 2.99773,0.50006 5.34193,2.67759 5.87375,5.45836"
       stroke="#009ee0"
       stroke-width="1.05833"
       stroke-linecap="square"
       stroke-miterlimit="8"
       fill="none"
       fill-rule="evenodd"
       id="path517" />
    <path
       d="m 258.87068,241.31182 8.14112,-9.8389"
       stroke="#009ee0"
       stroke-width="1.05833"
       stroke-linecap="square"
       stroke-miterlimit="8"
       fill="none"
       fill-rule="evenodd"
       id="path519" />
    <path
       d="m -54.366875,229.65957 h 1.3335 v 16.10783 h -1.3335 z"
       fill="#172983"
       fill-rule="evenodd"
       id="path521"
       style="stroke-width:0.264583" />
    <text
       fill="#000000"
       fill-opacity="0"
       font-family="Arial, Arial_MSFontService, sans-serif"
       font-size="16.1084px"
       x="-54.366879"
       y="243.75391"
       id="text523"
       style="stroke-width:0.264583">|</text>
    <path
       d="m -46.040437,230.82638 c -0.399521,0 -0.732896,0.11906 -1.000125,0.35454 -0.269875,0.23813 -0.484188,0.5768 -0.650875,1.0213 -0.164042,0.4445 -0.280459,0.98689 -0.34925,1.62454 -0.06879,0.63764 -0.103188,1.35731 -0.103188,2.159 0,1.88118 0.174625,3.26231 0.523875,4.14073 0.34925,0.88106 0.889,1.32027 1.621896,1.32027 0.6985,0 1.217083,-0.41275 1.553104,-1.2409 0.338667,-0.82814 0.508,-2.11137 0.508,-3.84704 0,-1.32821 -0.08731,-2.40242 -0.261937,-3.22527 -0.17198,-0.82286 -0.41275,-1.41288 -0.722313,-1.77006 -0.306917,-0.35719 -0.682625,-0.53711 -1.119187,-0.53711 z m 0.04233,-0.73554 c 1.264708,0 2.203979,0.48683 2.820458,1.46315 0.619125,0.97631 0.928688,2.45004 0.928688,4.42383 0,2.04258 -0.330729,3.58775 -0.992188,4.6355 -0.661458,1.0451 -1.627187,1.56898 -2.894541,1.56898 -1.246188,0 -2.174875,-0.48948 -2.783417,-1.47108 -0.608542,-0.98161 -0.912812,-2.46857 -0.912812,-4.46617 0,-1.06098 0.0926,-1.97908 0.280458,-2.75167 0.187854,-0.77258 0.449792,-1.41287 0.788458,-1.91823 0.336021,-0.50535 0.743479,-0.87841 1.214438,-1.11918 0.473604,-0.24342 0.989541,-0.36513 1.550458,-0.36513 z"
       fill="#172983"
       fill-rule="evenodd"
       id="path525"
       style="stroke-width:0.264583" />
    <text
       fill="#000000"
       fill-opacity="0"
       font-family="Arial, Arial_MSFontService, sans-serif"
       font-size="12.0921px"
       x="-49.831917"
       y="240.67154"
       id="text527"
       style="stroke-width:0.264583">0</text>
    <path
       d="m -39.314729,228.88699 3.452812,7.77345 v 0.6403 l -3.452812,7.78139 -0.928688,-0.32808 2.780771,-7.77346 -2.780771,-7.7814 z"
       fill="#172983"
       fill-rule="evenodd"
       id="path529"
       style="stroke-width:0.264583" />
    <text
       fill="#000000"
       fill-opacity="0"
       font-family="Arial, Arial_MSFontService, sans-serif"
       font-size="16.195px"
       x="-40.24342"
       y="243.05807"
       id="text531"
       style="stroke-width:0.264583">ۧ</text>
    <text
       fill="#172983"
       font-family="'ZI Akkurat', 'ZI Akkurat_MSFontService', sans-serif"
       font-weight="400"
       font-size="10.5833px"
       id="text539"
       x="10.69152"
       y="126.1678"
       style="stroke-width:0.264583">Arbitrary<tspan
   font-size="10.5833px"
   x="20.138918"
   y="138.8678"
   id="tspan533"
   style="stroke-width:0.0700043">Error</tspan><tspan
   font-size="10.5833px"
   x="69.162849"
   y="126.1678"
   id="tspan535"
   style="stroke-width:0.0700043">Encoding</tspan><tspan
   font-size="10.5833px"
   x="58.202217"
   y="138.8678"
   id="tspan537"
   style="stroke-width:0.0700043">Bit (ZZ) Parity</tspan></text>
    <path
       d="M -30.848063,274.86363 H 250.03095"
       stroke="#009ee0"
       stroke-width="1.05833"
       stroke-linecap="square"
       stroke-miterlimit="8"
       fill="none"
       fill-rule="evenodd"
       id="path541" />
    <path
       d="m -105.9765,269.68838 -3.08239,5.45306 h 3.38666 l -0.14816,-2.7887 c -0.0185,-0.381 -0.0318,-0.85725 -0.0423,-1.42875 -0.0132,-0.5715 -0.0185,-0.98425 -0.0185,-1.23561 z m 0.0529,-1.82827 h 1.30704 l 0.62177,9.652 c 0.0291,0.45508 0.082,0.81227 0.1561,1.06892 0.0741,0.25664 0.17728,0.44714 0.30692,0.5715 0.12965,0.12435 0.32015,0.20373 0.56886,0.23812 l -0.0952,0.42334 h -3.60098 l 0.0953,-0.42334 c 0.33866,-0.0291 0.59266,-0.16139 0.75935,-0.39952 0.16933,-0.23548 0.25135,-0.65087 0.25135,-1.24619 0,-0.22489 -0.008,-0.46831 -0.0238,-0.73554 l -0.0608,-1.11654 h -3.81 l -0.47625,0.84931 c -0.2249,0.39688 -0.38894,0.73819 -0.49213,1.02394 -0.10318,0.28575 -0.1561,0.53975 -0.1561,0.75936 0,0.48418 0.29104,0.77258 0.87312,0.86518 l -0.0952,0.42334 h -3.54012 l 0.0952,-0.42334 c 0.17992,-0.0238 0.34925,-0.0953 0.508,-0.21166 0.15875,-0.11907 0.32544,-0.29898 0.50535,-0.53711 0.17992,-0.24077 0.43127,-0.63764 0.75407,-1.19062 z"
       fill="#172983"
       fill-rule="evenodd"
       id="path543"
       style="stroke-width:0.264583" />
    <text
       fill="#000000"
       fill-opacity="0"
       font-family="Arial, Arial_MSFontService, sans-serif"
       font-size="11.9537px"
       x="-113.33456"
       y="278.31909"
       id="text545"
       style="stroke-width:0.264583">𝐴</text>
    <path
       d="m -100.39644,275.20494 h 2.727857 l -0.06879,0.39953 c -0.410104,0.0291 -0.616479,0.20372 -0.616479,0.51858 0,0.127 0.02646,0.2831 0.07673,0.46567 0.05027,0.18256 0.116416,0.37835 0.193146,0.58472 0.07937,0.20903 0.164041,0.42334 0.254,0.64294 0.08996,0.22225 0.174625,0.43127 0.256645,0.62971 0.219605,-0.24342 0.436563,-0.49212 0.653521,-0.74348 0.216959,-0.25135 0.415396,-0.48948 0.592667,-0.71437 0.177271,-0.22755 0.320146,-0.42863 0.431271,-0.6059 0.108479,-0.17727 0.164041,-0.31485 0.164041,-0.4101 0,-0.11113 -0.03175,-0.1958 -0.0979,-0.254 -0.06615,-0.0582 -0.187855,-0.0979 -0.370417,-0.11377 l 0.08202,-0.39953 h 2.526771 l -0.103188,0.39953 c -0.121708,0.0291 -0.240771,0.0847 -0.354542,0.16404 -0.11377,0.082 -0.243416,0.19314 -0.391583,0.33602 -0.07673,0.0794 -0.177271,0.18785 -0.301625,0.32014 -0.124354,0.1323 -0.261937,0.28311 -0.41275,0.4498 -0.153458,0.16668 -0.3175,0.3466 -0.492125,0.5371 -0.174625,0.19315 -0.354542,0.38894 -0.537104,0.59267 -0.182563,0.20108 -0.365125,0.40216 -0.542396,0.6006 -0.177271,0.19844 -0.343958,0.38365 -0.505354,0.55827 l 0.994833,2.37861 c 0.116417,0.2831 0.214313,0.51064 0.291042,0.68527 0.07408,0.17198 0.150812,0.3122 0.224896,0.41804 0.07144,0.10319 0.156104,0.18521 0.248708,0.23812 0.0926,0.0556 0.214313,0.10584 0.367771,0.14817 l -0.07673,0.38365 h -2.727854 l 0.07673,-0.38365 c 0.187854,-0.0317 0.333375,-0.0847 0.436562,-0.15875 0.100542,-0.0767 0.150813,-0.18785 0.150813,-0.33602 0,-0.16933 -0.0291,-0.35719 -0.08731,-0.56621 -0.06085,-0.20902 -0.132291,-0.42598 -0.216958,-0.64823 -0.08467,-0.22489 -0.174625,-0.44979 -0.272521,-0.67204 -0.09525,-0.2249 -0.187854,-0.43656 -0.269875,-0.64029 l -1.449917,1.66687 c -0.119062,0.12965 -0.216958,0.24342 -0.291041,0.34132 -0.07673,0.0953 -0.137584,0.18256 -0.182565,0.25929 -0.0423,0.0767 -0.0741,0.14287 -0.09,0.19843 -0.0185,0.0582 -0.0264,0.11378 -0.0264,0.16934 0,0.11377 0.037,0.19844 0.11377,0.25929 0.07673,0.0582 0.198434,0.10054 0.367767,0.127 l -0.08996,0.38365 h -2.510897 l 0.082,-0.38365 c 0.0635,-0.0212 0.12435,-0.045 0.1852,-0.0688 0.0609,-0.0212 0.12436,-0.0529 0.18521,-0.0873 0.0609,-0.0371 0.12171,-0.0794 0.18521,-0.1323 0.0635,-0.0529 0.13229,-0.11906 0.20373,-0.19314 l 2.955392,-3.25967 -0.981604,-2.413 c -0.108479,-0.26987 -0.203729,-0.48419 -0.280459,-0.64294 -0.07937,-0.15875 -0.156104,-0.28045 -0.230187,-0.36777 -0.07672,-0.0847 -0.156102,-0.14552 -0.238122,-0.17727 -0.082,-0.0317 -0.17992,-0.0582 -0.29369,-0.0847 z"
       fill="#172983"
       fill-rule="evenodd"
       id="path547"
       style="stroke-width:0.264583" />
    <text
       fill="#000000"
       fill-opacity="0"
       font-family="Arial, Arial_MSFontService, sans-serif"
       font-size="8.21047px"
       x="-102.25117"
       y="282.39108"
       id="text549"
       style="stroke-width:0.264583">𝑋</text>
    <rect
       x="249.87485"
       y="264.80948"
       width="20.108334"
       height="20.108334"
       stroke="#009ee0"
       stroke-width="1.05833"
       stroke-miterlimit="8"
       fill="#ffffff"
       id="rect551" />
    <path
       d="m 252.63975,278.96203 c 0.72495,-3.59304 4.51908,-5.97165 8.47195,-5.31284 2.97657,0.49742 5.30225,2.61673 5.84465,5.32342"
       stroke="#009ee0"
       stroke-width="1.05833"
       stroke-linecap="square"
       stroke-miterlimit="8"
       fill="none"
       fill-rule="evenodd"
       id="path553" />
    <path
       d="m 258.87068,279.14724 8.14112,-9.8389"
       stroke="#009ee0"
       stroke-width="1.05833"
       stroke-linecap="square"
       stroke-miterlimit="8"
       fill="none"
       fill-rule="evenodd"
       id="path555" />
    <path
       d="m -54.366875,267.42884 h 1.3335 v 16.10783 h -1.3335 z"
       fill="#172983"
       fill-rule="evenodd"
       id="path557"
       style="stroke-width:0.264583" />
    <text
       fill="#000000"
       fill-opacity="0"
       font-family="Arial, Arial_MSFontService, sans-serif"
       font-size="16.1084px"
       x="-54.366879"
       y="281.52316"
       id="text559"
       style="stroke-width:0.264583">|</text>
    <path
       d="m -46.040437,268.59565 c -0.399521,0 -0.732896,0.11907 -1.000125,0.35454 -0.269875,0.23813 -0.484188,0.57944 -0.650875,1.0213 -0.164042,0.4445 -0.280459,0.98689 -0.34925,1.62454 -0.06879,0.63764 -0.103188,1.35731 -0.103188,2.159 0,1.88119 0.174625,3.26231 0.523875,4.14073 0.34925,0.88106 0.889,1.32027 1.621896,1.32027 0.6985,0 1.217083,-0.41275 1.553104,-1.2409 0.338667,-0.82814 0.508,-2.11137 0.508,-3.84704 0,-1.32821 -0.08731,-2.40242 -0.261937,-3.22527 -0.17198,-0.82285 -0.41275,-1.41288 -0.722313,-1.77006 -0.306917,-0.35719 -0.682625,-0.53711 -1.119187,-0.53711 z m 0.04233,-0.73554 c 1.264708,0 2.203979,0.48948 2.820458,1.46315 0.619125,0.97631 0.928688,2.45004 0.928688,4.42383 0,2.04258 -0.330729,3.58775 -0.992188,4.6355 -0.661458,1.04775 -1.627187,1.56898 -2.894541,1.56898 -1.246188,0 -2.174875,-0.48948 -2.783417,-1.47108 -0.608542,-0.97896 -0.912812,-2.46857 -0.912812,-4.46617 0,-1.06098 0.0926,-1.97908 0.280458,-2.75167 0.187854,-0.77258 0.449792,-1.41287 0.788458,-1.91823 0.336021,-0.50535 0.743479,-0.87841 1.214438,-1.11918 0.473604,-0.24342 0.989541,-0.36513 1.550458,-0.36513 z"
       fill="#172983"
       fill-rule="evenodd"
       id="path561"
       style="stroke-width:0.264583" />
    <text
       fill="#000000"
       fill-opacity="0"
       font-family="Arial, Arial_MSFontService, sans-serif"
       font-size="12.0921px"
       x="-49.831917"
       y="278.4408"
       id="text563"
       style="stroke-width:0.264583">0</text>
    <path
       d="m -39.314729,266.6589 3.452812,7.77082 v 0.64293 l -3.452812,7.7814 -0.928688,-0.33073 2.780771,-7.77346 -2.780771,-7.78139 z"
       fill="#172983"
       fill-rule="evenodd"
       id="path565"
       style="stroke-width:0.264583" />
    <text
       fill="#000000"
       fill-opacity="0"
       font-family="Arial, Arial_MSFontService, sans-serif"
       font-size="16.195px"
       x="-40.24342"
       y="280.82736"
       id="text567"
       style="stroke-width:0.264583">ۧ</text>
    <rect
       x="-18.412645"
       y="264.80948"
       width="19.843723"
       height="20.108334"
       stroke="#009ee0"
       stroke-width="1.05833"
       stroke-miterlimit="8"
       fill="#ffffff"
       id="rect569" />
    <text
       fill="#009ee0"
       font-family="'ZI Akkurat', 'ZI Akkurat_MSFontService', sans-serif"
       font-weight="400"
       font-size="14.0229px"
       id="text571"
       x="-13.504625"
       y="279.89072"
       style="stroke-width:0.264583">H</text>
    <path
       d="m 158.32902,168.76572 -6e-5,103.51267"
       stroke="#009ee0"
       stroke-width="1.05833"
       stroke-linecap="square"
       stroke-miterlimit="8"
       fill="none"
       fill-rule="evenodd"
       id="path573" />
    <path
       d="m 166.00193,161.22509 c 0,4.16454 -3.37608,7.54063 -7.54062,7.54063 -4.16454,0 -7.54062,-3.37609 -7.54062,-7.54063 0,-4.16454 3.37608,-7.54062 7.54062,-7.54062 4.16454,0 7.54062,3.37608 7.54062,7.54062 z"
       stroke="#009ee0"
       stroke-width="1.05833"
       stroke-miterlimit="8"
       fill="#ffffff"
       fill-rule="evenodd"
       id="path575" />
    <path
       d="m 150.92069,161.0928 15,-6e-5"
       stroke="#009ee0"
       stroke-width="1.05833"
       stroke-linecap="square"
       stroke-miterlimit="8"
       fill="none"
       fill-rule="evenodd"
       id="path577" />
    <path
       d="m 160.97485,274.73134 c 0,1.38906 -1.12448,2.51354 -2.51354,2.51354 -1.38906,0 -2.51354,-1.12448 -2.51354,-2.51354 0,-1.38906 1.12448,-2.51354 2.51354,-2.51354 1.38906,0 2.51354,1.12448 2.51354,2.51354 z"
       stroke="#009ee0"
       stroke-width="2.11667"
       stroke-miterlimit="8"
       fill="#009ee0"
       fill-rule="evenodd"
       id="path579" />
    <path
       d="M 158.32902,168.6837 V 153.68447"
       stroke="#009ee0"
       stroke-width="1.05833"
       stroke-linecap="square"
       stroke-miterlimit="8"
       fill="none"
       fill-rule="evenodd"
       id="path581" />
    <path
       d="m 191.66652,205.27822 0.082,66.39454"
       stroke="#009ee0"
       stroke-width="1.05833"
       stroke-linecap="square"
       stroke-miterlimit="8"
       fill="none"
       fill-rule="evenodd"
       id="path583" />
    <path
       d="m 199.07485,197.86988 c 0,4.09046 -3.37608,7.40834 -7.54062,7.40834 -4.16455,0 -7.54063,-3.31788 -7.54063,-7.40834 0,-4.09046 3.37608,-7.40833 7.54063,-7.40833 4.16454,0 7.54062,3.31787 7.54062,7.40833 z"
       stroke="#009ee0"
       stroke-width="1.05833"
       stroke-miterlimit="8"
       fill="#ffffff"
       fill-rule="evenodd"
       id="path585" />
    <path
       d="m 183.9936,197.86988 15,-6e-5"
       stroke="#009ee0"
       stroke-width="1.05833"
       stroke-linecap="square"
       stroke-miterlimit="8"
       fill="none"
       fill-rule="evenodd"
       id="path587" />
    <path
       d="m 194.04777,274.20217 c 0,1.38907 -1.12448,2.51355 -2.51354,2.51355 -1.38907,0 -2.51355,-1.12448 -2.51355,-2.51355 0,-1.38906 1.12448,-2.51354 2.51355,-2.51354 1.38906,0 2.51354,1.12448 2.51354,2.51354 z"
       stroke="#009ee0"
       stroke-width="2.11667"
       stroke-miterlimit="8"
       fill="#009ee0"
       fill-rule="evenodd"
       id="path589" />
    <path
       d="M 191.66652,205.46078 V 190.46155"
       stroke="#009ee0"
       stroke-width="1.05833"
       stroke-linecap="square"
       stroke-miterlimit="8"
       fill="none"
       fill-rule="evenodd"
       id="path591" />
    <text
       fill="#172983"
       font-family="'ZI Akkurat', 'ZI Akkurat_MSFontService', sans-serif"
       font-weight="400"
       font-size="10.5833px"
       id="text595"
       x="152.25154"
       y="126.1678"
       style="stroke-width:0.264583">Encoding <tspan
   font-size="10.5833px"
   x="133.66367"
   y="138.8678"
   id="tspan593"
   style="stroke-width:0.0700043">Phase (XX) Parity</tspan></text>
    <rect
       x="216.27277"
       y="264.80948"
       width="19.84375"
       height="19.84375"
       stroke="#009ee0"
       stroke-width="1.05833"
       stroke-miterlimit="8"
       fill="#ffffff"
       id="rect597" />
    <text
       fill="#009ee0"
       font-family="'ZI Akkurat', 'ZI Akkurat_MSFontService', sans-serif"
       font-weight="400"
       font-size="14.0229px"
       id="text599"
       x="221.18343"
       y="279.89072"
       style="stroke-width:0.264583">H</text>
  </g>
</svg>
