<svg id="Ebene_1" data-name="Ebene 1" xmlns="http://www.w3.org/2000/svg" viewBox="0 0 2040.46 827.7"><rect x="56.35" y="1.02" width="1927.56" height="825.66" stroke-width="2.04" stroke="#ee7f00" stroke-linecap="round" stroke-linejoin="round" fill="none"/><path d="M476.47,399.91h1.6c.34,2.92,2.57,4.8,5.89,4.8s5.86-1.65,5.86-4.51c0-1.92-1.51-3.52-3.94-3.86l-3.43-.49c-3.09-.43-5.27-2-5.27-5.09,0-3.29,3.32-5.69,6.92-5.69,3.92,0,6.72,2.46,7,5.78h-1.51c-.4-2.86-2.69-4.35-5.52-4.35-3,0-5.32,1.74-5.32,4.2s1.69,3.26,3.86,3.58l3.49.48c3.11.43,5.29,2.58,5.29,5.38,0,3.6-3.18,6-7.41,6C479.93,406.14,476.64,403.63,476.47,399.91Z" transform="translate(-0.27 -50.71)" fill="#007ec4"/><path d="M496.75,404.46a9,9,0,0,1,0-11.73,6.3,6.3,0,0,1,8.57,0,9,9,0,0,1,0,11.73,6.3,6.3,0,0,1-8.57,0Zm7.57-1a6.38,6.38,0,0,0,1.72-4.89,6.45,6.45,0,0,0-1.72-4.89,4.94,4.94,0,0,0-6.57,0,6.45,6.45,0,0,0-1.72,4.89,6.38,6.38,0,0,0,1.72,4.89,4.91,4.91,0,0,0,6.57,0Z" transform="translate(-0.27 -50.71)" fill="#007ec4"/><path d="M511.7,400.68v-9.23h1.43v9.15c0,2.48,1.23,4.14,3.75,4.14,3.32,0,4.69-2.66,4.69-5.86v-7.43H523v14.29h-1.32l-.11-2.68a5.1,5.1,0,0,1-4.78,3.08C513.56,406.14,511.7,403.88,511.7,400.68Z" transform="translate(-0.27 -50.71)" fill="#007ec4"/><path d="M528.32,391.45h1.32l.11,2.94a4.65,4.65,0,0,1,4.6-3.09,4.15,4.15,0,0,1,1.35.15v1.37a5.59,5.59,0,0,0-1.4-.14c-3.32,0-4.55,2.74-4.55,5.91v7.15h-1.43Z" transform="translate(-0.27 -50.71)" fill="#007ec4"/><path d="M539.62,404.43a7.66,7.66,0,0,1-2.06-5.84c0-2.45.51-4.37,2.06-5.86a6.07,6.07,0,0,1,4.32-1.68,5.39,5.39,0,0,1,5.69,4.83h-1.52a4.06,4.06,0,0,0-4.17-3.43,4.47,4.47,0,0,0-3.29,1.23,8.12,8.12,0,0,0,0,9.8,4.46,4.46,0,0,0,3.28,1.23,4.07,4.07,0,0,0,4.18-3.43h1.49a5.45,5.45,0,0,1-5.69,4.84A6,6,0,0,1,539.62,404.43Z" transform="translate(-0.27 -50.71)" fill="#007ec4"/><path d="M554.66,404.14a8.46,8.46,0,0,1-1.89-5.49,8.16,8.16,0,0,1,1.43-5.09,6,6,0,0,1,5-2.51c3.94,0,6.32,3.14,6.32,6.94,0,.35,0,.55,0,.95H554.2c.06,3.17,1.92,5.83,5.12,5.83a4.33,4.33,0,0,0,4.38-3.32h1.48a5.86,5.86,0,0,1-5.86,4.69A6.17,6.17,0,0,1,554.66,404.14Zm9.38-6.49c-.06-2.72-1.74-5.26-4.83-5.26s-4.92,2.46-5,5.26Z" transform="translate(-0.27 -50.71)" fill="#007ec4"/><path d="M485.62,419.79c4.43,0,6.83,2.29,6.83,5.78a5.47,5.47,0,0,1-4.74,5.4l4.57,9.09h-1.63l-4.37-8.75H479.7v8.75h-1.49V419.79Zm5.29,5.78c0-2.86-1.94-4.38-5.29-4.38H479.7v8.75h5.92C489,429.94,490.91,428.43,490.91,425.57Z" transform="translate(-0.27 -50.71)" fill="#007ec4"/><path d="M497.35,438.46a8.41,8.41,0,0,1-1.89-5.49,8.16,8.16,0,0,1,1.43-5.09,6,6,0,0,1,5-2.51c3.95,0,6.32,3.14,6.32,6.94,0,.35,0,.55,0,.95h-11.3c.06,3.17,1.92,5.83,5.12,5.83a4.32,4.32,0,0,0,4.37-3.32h1.49a5.87,5.87,0,0,1-5.86,4.69A6.17,6.17,0,0,1,497.35,438.46Zm9.38-6.49c-.06-2.72-1.75-5.26-4.84-5.26s-4.91,2.46-5,5.26Z" transform="translate(-0.27 -50.71)" fill="#007ec4"/><path d="M511.22,442.09a3.31,3.31,0,0,1,2.52-3.2,2.34,2.34,0,0,1-1.89-2.23,2.73,2.73,0,0,1,2-2.52,4.7,4.7,0,0,1-1.66-3.74,5,5,0,0,1,5.35-5,6.28,6.28,0,0,1,3.43,1,2.79,2.79,0,0,1,2.8-2,3.19,3.19,0,0,1,.55.06v1.2a3.26,3.26,0,0,0-.55,0,1.87,1.87,0,0,0-2,1.55,4.84,4.84,0,0,1,1.14,3.23c0,3.09-2.43,5-5.4,5a6,6,0,0,1-2.92-.69,2,2,0,0,0-1.49,1.71c0,1.32,1.43,1.49,2.58,1.49h2.94c2.21,0,3.58.37,4.55,1.29a3.35,3.35,0,0,1,1.09,2.63c0,3.2-3.35,4.37-6.75,4.37S511.22,444.92,511.22,442.09Zm11.64-.25c0-2.06-1.86-2.63-4.09-2.63h-3.83a2.71,2.71,0,0,0-2.38,2.74c0,2.23,2.49,2.92,5,2.92C520.28,444.87,522.86,444.18,522.86,441.84Zm-1.35-11.44a4,4,0,0,0-7.92,0,3.62,3.62,0,0,0,3.95,3.69C519.77,434.09,521.51,432.74,521.51,430.4Z" transform="translate(-0.27 -50.71)" fill="#007ec4"/><path d="M529.58,419.79v2.12h-2v-2.12Zm-.23,6v14.29h-1.46V425.77Z" transform="translate(-0.27 -50.71)" fill="#007ec4"/><path d="M533.35,435.72h1.46c.23,2.34,2.09,3.37,4.44,3.37s4.14-1,4.14-3c0-1.26-.88-2.32-2.63-2.55L538,433.2c-2.4-.31-4-1.46-4-3.63,0-2.55,2.45-4.2,5.14-4.2,3.09,0,5.32,1.77,5.41,4.34h-1.43c-.2-2.06-1.89-3-4-3s-3.69,1.11-3.69,2.72c0,1.17.63,2.05,2.78,2.34l2.71.37c2.69.37,4,2.18,4,3.89,0,2.92-2.63,4.43-5.6,4.43C535.84,440.46,533.5,438.66,533.35,435.72Z" transform="translate(-0.27 -50.71)" fill="#007ec4"/><path d="M550.17,436.35v-9.27H546.8v-1.31h3.37v-3.95l1.43-.34v4.29h4.49v1.31H551.6v9.07c0,1.57.49,2.77,2.57,2.77a8.79,8.79,0,0,0,2.12-.26v1.26a7.08,7.08,0,0,1-2.23.34C551.26,440.26,550.17,438.63,550.17,436.35Z" transform="translate(-0.27 -50.71)" fill="#007ec4"/><path d="M560.21,438.46a8.46,8.46,0,0,1-1.89-5.49,8.16,8.16,0,0,1,1.43-5.09,6,6,0,0,1,5-2.51c3.94,0,6.32,3.14,6.32,6.94,0,.35,0,.55,0,.95h-11.3c.06,3.17,1.92,5.83,5.12,5.83a4.33,4.33,0,0,0,4.38-3.32h1.48a5.87,5.87,0,0,1-5.86,4.69A6.17,6.17,0,0,1,560.21,438.46Zm9.38-6.49c-.06-2.72-1.75-5.26-4.83-5.26s-4.92,2.46-5,5.26Z" transform="translate(-0.27 -50.71)" fill="#007ec4"/><path d="M575.31,425.77h1.32l.11,2.94a4.65,4.65,0,0,1,4.6-3.09,4.15,4.15,0,0,1,1.35.15v1.37a5.59,5.59,0,0,0-1.4-.14c-3.32,0-4.55,2.74-4.55,5.91v7.15h-1.43Z" transform="translate(-0.27 -50.71)" fill="#007ec4"/><path d="M476.47,468.55h1.6c.34,2.92,2.57,4.8,5.89,4.8s5.86-1.65,5.86-4.51c0-1.92-1.51-3.52-3.94-3.86l-3.43-.49c-3.09-.43-5.27-2-5.27-5.09,0-3.29,3.32-5.69,6.92-5.69,3.92,0,6.72,2.46,7,5.78h-1.51c-.4-2.86-2.69-4.35-5.52-4.35-3,0-5.32,1.74-5.32,4.2s1.69,3.26,3.86,3.58l3.49.48c3.11.43,5.29,2.58,5.29,5.38,0,3.6-3.18,6-7.41,6C479.93,474.78,476.64,472.27,476.47,468.55Z" transform="translate(-0.27 -50.71)" fill="#007ec4"/><path d="M496.43,472.78a8.44,8.44,0,0,1-1.89-5.49A8.16,8.16,0,0,1,496,462.2a6,6,0,0,1,5-2.51c3.94,0,6.32,3.14,6.32,6.94,0,.35,0,.55,0,.95H496c.06,3.17,1.92,5.83,5.12,5.83a4.33,4.33,0,0,0,4.38-3.32H507a5.86,5.86,0,0,1-5.86,4.69A6.18,6.18,0,0,1,496.43,472.78Zm9.38-6.49c-.06-2.72-1.74-5.26-4.83-5.26s-4.92,2.46-5,5.26Z" transform="translate(-0.27 -50.71)" fill="#007ec4"/><path d="M511.48,471.52V453.68h1.42v17.79c0,1,.29,1.71,1.49,1.71a8.24,8.24,0,0,0,1.23-.08v1.28a4.3,4.3,0,0,1-1.29.17C512.5,474.55,511.48,473.61,511.48,471.52Z" transform="translate(-0.27 -50.71)" fill="#007ec4"/><path d="M519.68,472.78a8.43,8.43,0,0,1-1.88-5.49,8.1,8.1,0,0,1,1.43-5.09,6,6,0,0,1,5-2.51c3.95,0,6.32,3.14,6.32,6.94,0,.35,0,.55,0,.95H519.23c0,3.17,1.91,5.83,5.11,5.83a4.33,4.33,0,0,0,4.38-3.32h1.49a5.88,5.88,0,0,1-5.87,4.69A6.2,6.2,0,0,1,519.68,472.78Zm9.38-6.49c0-2.72-1.74-5.26-4.83-5.26s-4.92,2.46-5,5.26Z" transform="translate(-0.27 -50.71)" fill="#007ec4"/><path d="M535.9,473.07a7.66,7.66,0,0,1-2.06-5.84c0-2.45.52-4.37,2.06-5.86a6.07,6.07,0,0,1,4.32-1.68,5.39,5.39,0,0,1,5.69,4.83h-1.52a4.06,4.06,0,0,0-4.17-3.43,4.48,4.48,0,0,0-3.29,1.23,8.12,8.12,0,0,0,0,9.8,4.47,4.47,0,0,0,3.29,1.23,4,4,0,0,0,4.17-3.43h1.49a5.45,5.45,0,0,1-5.69,4.84A6,6,0,0,1,535.9,473.07Z" transform="translate(-0.27 -50.71)" fill="#007ec4"/><path d="M551.49,470.67V461.4h-3.38v-1.31h3.38v-3.95l1.43-.34v4.29h4.48v1.31h-4.48v9.07c0,1.57.48,2.77,2.57,2.77a8.92,8.92,0,0,0,2.12-.26v1.26a7.15,7.15,0,0,1-2.24.34C552.57,474.58,551.49,473,551.49,470.67Z" transform="translate(-0.27 -50.71)" fill="#007ec4"/><path d="M561.84,473.1a9,9,0,0,1,0-11.73,6.32,6.32,0,0,1,8.58,0,9,9,0,0,1,0,11.73,6.32,6.32,0,0,1-8.58,0Zm7.58-1a7.83,7.83,0,0,0,0-9.77,4.93,4.93,0,0,0-6.58,0,7.8,7.8,0,0,0,0,9.77,4.93,4.93,0,0,0,6.58,0Z" transform="translate(-0.27 -50.71)" fill="#007ec4"/><path d="M577,460.09h1.31l.12,2.94a4.65,4.65,0,0,1,4.6-3.09,4.15,4.15,0,0,1,1.35.15v1.37a5.63,5.63,0,0,0-1.41-.14c-3.31,0-4.54,2.74-4.54,5.91v7.15H577Z" transform="translate(-0.27 -50.71)" fill="#007ec4"/><path d="M586.24,470h1.45c.23,2.34,2.09,3.37,4.44,3.37s4.14-1,4.14-3c0-1.26-.88-2.32-2.63-2.55l-2.77-.37c-2.4-.31-4-1.46-4-3.63,0-2.55,2.45-4.2,5.14-4.2,3.09,0,5.32,1.77,5.41,4.34H596c-.2-2.06-1.89-3-4-3s-3.69,1.11-3.69,2.72c0,1.17.63,2.05,2.78,2.34l2.71.37c2.69.37,4,2.18,4,3.89,0,2.92-2.63,4.43-5.6,4.43C588.72,474.78,586.38,473,586.24,470Z" transform="translate(-0.27 -50.71)" fill="#007ec4"/><rect x="449.07" y="318.39" width="226.77" height="135.2" stroke-width="2" stroke="#007ec4" stroke-linecap="round" stroke-linejoin="round" fill="none"/><path d="M933.31,386.9v-1.43h15.24v1.43h-6.89v18.84h-1.49V386.9Z" transform="translate(-0.27 -50.71)" fill="#007ec4"/><path d="M948,401.77c0-2.55,1.94-4.12,4.8-4.32l5.27-.37v-1.26c0-2.4-1.75-3.43-4-3.43s-3.92,1-4.06,3.17h-1.43c.2-2.94,2.57-4.51,5.43-4.51,3.26,0,5.44,1.6,5.44,4.89V403c0,1,.14,1.54,1.11,1.54a1.75,1.75,0,0,0,.4,0v1.26a2.54,2.54,0,0,1-.68.09c-1.78,0-2.26-1.35-2.26-2.86a5.37,5.37,0,0,1-5.15,3.14C950.15,406.14,948,404.46,948,401.77Zm10.07-2.63v-.75l-5.12.32c-2.2.14-3.49,1.34-3.49,3,0,2,1.54,3.09,3.57,3.09C956.65,404.83,958.08,401.91,958.08,399.14Z" transform="translate(-0.27 -50.71)" fill="#007ec4"/><path d="M966.31,402.94l-.11,2.8h-1.32V385h1.43v9.24a5.28,5.28,0,0,1,4.92-3.23,5.71,5.71,0,0,1,4,1.48,8.24,8.24,0,0,1,2.29,6.09,7.91,7.91,0,0,1-2.43,6.18,5.78,5.78,0,0,1-3.92,1.34A5.3,5.3,0,0,1,966.31,402.94Zm7.81.8a6.76,6.76,0,0,0,1.94-5.15,6.89,6.89,0,0,0-1.63-4.89,4.32,4.32,0,0,0-3.2-1.25,4.42,4.42,0,0,0-3.09,1.11,6.41,6.41,0,0,0-1.85,5,6.57,6.57,0,0,0,1.88,5,4.68,4.68,0,0,0,6,.14Z" transform="translate(-0.27 -50.71)" fill="#007ec4"/><path d="M981.84,402.88V385h1.43v17.79c0,1,.29,1.71,1.49,1.71a8.24,8.24,0,0,0,1.23-.08v1.28a4.35,4.35,0,0,1-1.29.17C982.87,405.91,981.84,405,981.84,402.88Z" transform="translate(-0.27 -50.71)" fill="#007ec4"/><path d="M990.05,404.14a8.46,8.46,0,0,1-1.89-5.49,8.16,8.16,0,0,1,1.43-5.09,6,6,0,0,1,5-2.51c3.94,0,6.32,3.14,6.32,6.94,0,.35,0,.55,0,.95h-11.3c.06,3.17,1.92,5.83,5.12,5.83a4.33,4.33,0,0,0,4.38-3.32h1.48a5.86,5.86,0,0,1-5.86,4.69A6.17,6.17,0,0,1,990.05,404.14Zm9.38-6.49c-.06-2.72-1.74-5.26-4.83-5.26s-4.92,2.46-5,5.26Z" transform="translate(-0.27 -50.71)" fill="#007ec4"/><path d="M1003.87,401.4h1.45c.23,2.34,2.09,3.37,4.44,3.37s4.14-1,4.14-3c0-1.26-.88-2.32-2.63-2.55l-2.77-.37c-2.4-.31-4-1.46-4-3.63,0-2.55,2.45-4.2,5.14-4.2,3.09,0,5.32,1.77,5.41,4.34h-1.43c-.2-2.06-1.89-3-4-3s-3.69,1.11-3.69,2.72c0,1.17.63,2.05,2.78,2.34l2.71.37c2.69.37,4,2.18,4,3.89,0,2.92-2.63,4.43-5.6,4.43C1006.35,406.14,1004,404.34,1003.87,401.4Z" transform="translate(-0.27 -50.71)" fill="#007ec4"/><rect x="906.74" y="318.39" width="226.77" height="135.2" stroke-width="2" stroke="#007ec4" stroke-linecap="round" stroke-linejoin="round" fill="none"/><path d="M1416.85,386.9v-1.43h15.24v1.43h-6.89v18.85h-1.48V386.9Z" transform="translate(-0.27 -50.71)" fill="#007ec4"/><path d="M1431.55,401.77c0-2.54,2-4.11,4.81-4.32l5.26-.37v-1.26c0-2.4-1.75-3.43-3.95-3.43s-3.92,1-4.06,3.18h-1.43c.2-2.95,2.58-4.52,5.43-4.52,3.26,0,5.44,1.6,5.44,4.89V403c0,1,.14,1.55,1.11,1.55a1.75,1.75,0,0,0,.4,0v1.26a3,3,0,0,1-.68.08c-1.78,0-2.26-1.34-2.26-2.86a5.37,5.37,0,0,1-5.15,3.15C1433.7,406.15,1431.55,404.46,1431.55,401.77Zm10.07-2.63v-.74l-5.12.31c-2.2.15-3.49,1.35-3.49,3,0,2,1.55,3.09,3.58,3.09C1440.19,404.83,1441.62,401.92,1441.62,399.14Z" transform="translate(-0.27 -50.71)" fill="#007ec4"/><path d="M1449.86,403l-.12,2.8h-1.31V385h1.43v9.24a5.28,5.28,0,0,1,4.92-3.23,5.7,5.7,0,0,1,4,1.49,8.26,8.26,0,0,1,2.28,6.09,7.89,7.89,0,0,1-2.43,6.17,5.78,5.78,0,0,1-3.91,1.35A5.28,5.28,0,0,1,1449.86,403Zm7.8.8a6.75,6.75,0,0,0,1.95-5.15,6.91,6.91,0,0,0-1.63-4.89,4.76,4.76,0,0,0-6.29-.14,6.37,6.37,0,0,0-1.86,5,6.53,6.53,0,0,0,1.89,5,4.23,4.23,0,0,0,3,1.15A4.33,4.33,0,0,0,1457.66,403.75Z" transform="translate(-0.27 -50.71)" fill="#007ec4"/><path d="M1465.39,402.89V385h1.43v17.79c0,1,.28,1.72,1.48,1.72a7,7,0,0,0,1.23-.09v1.29a4.63,4.63,0,0,1-1.28.17C1466.42,405.92,1465.39,405,1465.39,402.89Z" transform="translate(-0.27 -50.71)" fill="#007ec4"/><path d="M1473.59,404.15a8.47,8.47,0,0,1-1.88-5.49,8.06,8.06,0,0,1,1.43-5.09,6,6,0,0,1,5-2.52c3.95,0,6.32,3.15,6.32,6.95,0,.34,0,.54,0,.94h-11.29c0,3.18,1.91,5.84,5.12,5.84a4.32,4.32,0,0,0,4.37-3.32h1.49a5.87,5.87,0,0,1-5.86,4.69A6.24,6.24,0,0,1,1473.59,404.15Zm9.38-6.49c0-2.72-1.74-5.27-4.83-5.27s-4.92,2.46-5,5.27Z" transform="translate(-0.27 -50.71)" fill="#007ec4"/><path d="M1417.68,434.23h1.6c.35,2.92,2.58,4.81,5.89,4.81s5.87-1.66,5.87-4.52c0-1.92-1.52-3.52-4-3.86l-3.43-.49c-3.09-.43-5.26-2-5.26-5.09,0-3.28,3.31-5.69,6.92-5.69,3.92,0,6.72,2.46,7,5.78h-1.51c-.4-2.86-2.69-4.35-5.52-4.35s-5.32,1.75-5.32,4.21,1.69,3.26,3.86,3.57l3.49.49c3.12.43,5.29,2.57,5.29,5.37,0,3.61-3.17,6-7.41,6C1421.14,440.47,1417.85,438,1417.68,434.23Z" transform="translate(-0.27 -50.71)" fill="#007ec4"/><path d="M1437.64,438.47a8.47,8.47,0,0,1-1.88-5.49,8.06,8.06,0,0,1,1.43-5.09,6,6,0,0,1,5-2.52c4,0,6.32,3.14,6.32,6.95,0,.34,0,.54,0,.94h-11.29c0,3.18,1.91,5.84,5.12,5.84a4.32,4.32,0,0,0,4.37-3.32h1.49a5.87,5.87,0,0,1-5.86,4.69A6.24,6.24,0,0,1,1437.64,438.47ZM1447,432c0-2.71-1.74-5.26-4.83-5.26s-4.92,2.46-5,5.26Z" transform="translate(-0.27 -50.71)" fill="#007ec4"/><path d="M1452.69,437.21V419.36h1.43v17.79c0,1,.28,1.72,1.49,1.72a6.84,6.84,0,0,0,1.22-.09v1.29a4.63,4.63,0,0,1-1.28.17C1453.72,440.24,1452.69,439.3,1452.69,437.21Z" transform="translate(-0.27 -50.71)" fill="#007ec4"/><path d="M1460.9,438.47A8.43,8.43,0,0,1,1459,433a8.06,8.06,0,0,1,1.43-5.09,6,6,0,0,1,5-2.52c4,0,6.32,3.14,6.32,6.95,0,.34,0,.54,0,.94h-11.29c.06,3.18,1.91,5.84,5.12,5.84a4.32,4.32,0,0,0,4.37-3.32h1.49a5.87,5.87,0,0,1-5.86,4.69A6.2,6.2,0,0,1,1460.9,438.47Zm9.38-6.5c-.06-2.71-1.75-5.26-4.84-5.26s-4.92,2.46-5,5.26Z" transform="translate(-0.27 -50.71)" fill="#007ec4"/><path d="M1477.11,438.75a7.68,7.68,0,0,1-2.06-5.83c0-2.46.52-4.38,2.06-5.86a6.07,6.07,0,0,1,4.32-1.69,5.39,5.39,0,0,1,5.69,4.83h-1.51a4.07,4.07,0,0,0-4.18-3.43,4.52,4.52,0,0,0-3.29,1.23,8.14,8.14,0,0,0,0,9.81,4.52,4.52,0,0,0,3.29,1.23,4.06,4.06,0,0,0,4.17-3.43h1.49a5.45,5.45,0,0,1-5.69,4.83A6,6,0,0,1,1477.11,438.75Z" transform="translate(-0.27 -50.71)" fill="#007ec4"/><path d="M1492.7,436.35v-9.26h-3.38v-1.32h3.38v-3.95l1.43-.34v4.29h4.49v1.32h-4.49v9.06c0,1.57.48,2.77,2.57,2.77a8.91,8.91,0,0,0,2.12-.25v1.25a7.13,7.13,0,0,1-2.23.35C1493.79,440.27,1492.7,438.64,1492.7,436.35Z" transform="translate(-0.27 -50.71)" fill="#007ec4"/><path d="M1503.05,438.78a9,9,0,0,1,0-11.72,6.29,6.29,0,0,1,8.58,0,9,9,0,0,1,0,11.72,6.29,6.29,0,0,1-8.58,0Zm7.58-1a7.81,7.81,0,0,0,0-9.78,4.93,4.93,0,0,0-6.58,0,7.85,7.85,0,0,0,0,9.78,4.93,4.93,0,0,0,6.58,0Z" transform="translate(-0.27 -50.71)" fill="#007ec4"/><path d="M1518.18,425.77h1.32l.11,3a4.65,4.65,0,0,1,4.61-3.09,4.4,4.4,0,0,1,1.34.14v1.37a6.1,6.1,0,0,0-1.4-.14c-3.32,0-4.55,2.74-4.55,5.92v7.15h-1.43Z" transform="translate(-0.27 -50.71)" fill="#007ec4"/><path d="M1527.45,435.72h1.46c.23,2.35,2.08,3.38,4.43,3.38s4.15-1,4.15-3c0-1.26-.89-2.32-2.64-2.54l-2.77-.38c-2.4-.31-4-1.45-4-3.63,0-2.54,2.46-4.2,5.15-4.2,3.08,0,5.31,1.77,5.4,4.35h-1.43c-.2-2.06-1.89-3-4-3s-3.69,1.12-3.69,2.72c0,1.17.63,2.06,2.77,2.34l2.72.38c2.69.37,3.94,2.17,3.94,3.89,0,2.91-2.63,4.43-5.6,4.43C1529.94,440.47,1527.59,438.67,1527.45,435.72Z" transform="translate(-0.27 -50.71)" fill="#007ec4"/><rect x="1390.29" y="318.4" width="226.77" height="135.2" stroke-width="2" stroke="#007ec4" stroke-linecap="round" stroke-linejoin="round" fill="none"/><path d="M87,68.1V87H97.5v1.4h-12V68.1Z" transform="translate(-0.27 -50.71)" fill="#007ec4"/><path d="M99.68,81.45V68.1h1.49V81.39c0,3.43,1.71,6,5.69,6s5.72-2.52,5.72-6V68.1h1.48V81.45c0,4.32-2.4,7.32-7.2,7.32S99.68,85.77,99.68,81.45Z" transform="translate(-0.27 -50.71)" fill="#007ec4"/><path d="M117.15,69.53V68.1h15.24v1.43H125.5V88.37H124V69.53Z" transform="translate(-0.27 -50.71)" fill="#007ec4"/><path d="M148.67,68.1a7.59,7.59,0,0,1,5.37,2c2.29,2.17,2.64,5.32,2.64,8.18s-.35,6-2.64,8.15a7.59,7.59,0,0,1-5.37,2H142V68.1ZM153,85.45c2-1.85,2.17-4.91,2.17-7.2S155,72.87,153,71a6.25,6.25,0,0,0-4.29-1.46h-5.21V86.91h5.21A6.2,6.2,0,0,0,153,85.45Z" transform="translate(-0.27 -50.71)" fill="#007ec4"/><path d="M162.05,86.77a8.45,8.45,0,0,1-1.88-5.49,8.08,8.08,0,0,1,1.43-5.09,6,6,0,0,1,5-2.52c4,0,6.32,3.15,6.32,7,0,.34,0,.54,0,.94H161.6c.05,3.18,1.91,5.84,5.12,5.84a4.32,4.32,0,0,0,4.37-3.32h1.49a5.87,5.87,0,0,1-5.86,4.69A6.21,6.21,0,0,1,162.05,86.77Zm9.38-6.49c-.05-2.72-1.74-5.26-4.83-5.26s-4.92,2.46-5,5.26Z" transform="translate(-0.27 -50.71)" fill="#007ec4"/><path d="M178.27,87.05a7.68,7.68,0,0,1-2.06-5.83c0-2.46.52-4.37,2.06-5.86a6.07,6.07,0,0,1,4.32-1.69,5.39,5.39,0,0,1,5.69,4.84h-1.52a4.06,4.06,0,0,0-4.17-3.44,4.52,4.52,0,0,0-3.29,1.23,6.48,6.48,0,0,0-1.63,4.92,6.46,6.46,0,0,0,1.66,4.89,4.52,4.52,0,0,0,3.29,1.23,4.06,4.06,0,0,0,4.17-3.43h1.49a5.45,5.45,0,0,1-5.69,4.83A6,6,0,0,1,178.27,87.05Z" transform="translate(-0.27 -50.71)" fill="#007ec4"/><path d="M193.63,87.08a7.55,7.55,0,0,1-2.17-5.86,7.6,7.6,0,0,1,2.17-5.86,6.29,6.29,0,0,1,8.58,0,7.6,7.6,0,0,1,2.17,5.86,7.55,7.55,0,0,1-2.17,5.86,6.29,6.29,0,0,1-8.58,0Zm7.58-1a6.41,6.41,0,0,0,1.71-4.89,6.47,6.47,0,0,0-1.71-4.89,4.93,4.93,0,0,0-6.58,0,6.48,6.48,0,0,0-1.72,4.89,6.42,6.42,0,0,0,1.72,4.89,4.93,4.93,0,0,0,6.58,0Z" transform="translate(-0.27 -50.71)" fill="#007ec4"/><path d="M210.19,87.4a7.87,7.87,0,0,1-2.4-6.15,8.14,8.14,0,0,1,2.28-6,5.91,5.91,0,0,1,4.18-1.58A5,5,0,0,1,219,76.56V67.67h1.46v20.7h-1.34L219,85.65a5.36,5.36,0,0,1-4.86,3.12A5.87,5.87,0,0,1,210.19,87.4Zm7-1.2a6.46,6.46,0,0,0,1.86-5,6.3,6.3,0,0,0-1.83-5,4.35,4.35,0,0,0-3.08-1.15,4.28,4.28,0,0,0-3.21,1.29,7.09,7.09,0,0,0-1.66,4.86,6.55,6.55,0,0,0,1.95,5.12,4.48,4.48,0,0,0,3,1A4.29,4.29,0,0,0,217.16,86.2Z" transform="translate(-0.27 -50.71)" fill="#007ec4"/><path d="M226.69,86.77a8.46,8.46,0,0,1-1.89-5.49,8.14,8.14,0,0,1,1.43-5.09,6,6,0,0,1,5-2.52c3.94,0,6.32,3.15,6.32,7,0,.34,0,.54,0,.94h-11.3c.06,3.18,1.92,5.84,5.12,5.84a4.33,4.33,0,0,0,4.38-3.32h1.48a5.87,5.87,0,0,1-5.86,4.69A6.17,6.17,0,0,1,226.69,86.77Zm9.38-6.49C236,77.56,234.32,75,231.24,75s-4.92,2.46-5,5.26Z" transform="translate(-0.27 -50.71)" fill="#007ec4"/><path d="M241.79,74.07h1.32l.11,3a4.65,4.65,0,0,1,4.6-3.09,4.44,4.44,0,0,1,1.35.14v1.38a5.61,5.61,0,0,0-1.4-.15c-3.32,0-4.55,2.75-4.55,5.92v7.15h-1.43Z" transform="translate(-0.27 -50.71)" fill="#007ec4"/><rect x="423.2" y="243.77" width="736.18" height="284.44" stroke-width="2" stroke="#007ec4" stroke-linecap="round" stroke-linejoin="round" fill="none"/><path d="M453.83,310.85v18.87h10.53v1.4h-12V310.85Z" transform="translate(-0.27 -50.71)" fill="#007ec4"/><path d="M468.25,329.84a9,9,0,0,1,0-11.73,6.29,6.29,0,0,1,8.58,0,9,9,0,0,1,0,11.73,6.32,6.32,0,0,1-8.58,0Zm7.58-1a6.41,6.41,0,0,0,1.71-4.89,6.48,6.48,0,0,0-1.71-4.89,5,5,0,0,0-6.58,0,6.45,6.45,0,0,0-1.72,4.89,6.38,6.38,0,0,0,1.72,4.89,4.93,4.93,0,0,0,6.58,0Z" transform="translate(-0.27 -50.71)" fill="#007ec4"/><path d="M484.61,329.84a9,9,0,0,1,0-11.73,6.29,6.29,0,0,1,8.58,0,9,9,0,0,1,0,11.73,6.32,6.32,0,0,1-8.58,0Zm7.57-1A6.38,6.38,0,0,0,493.9,324a6.45,6.45,0,0,0-1.72-4.89,4.94,4.94,0,0,0-6.57,0,6.45,6.45,0,0,0-1.72,4.89,6.38,6.38,0,0,0,1.72,4.89,4.91,4.91,0,0,0,6.57,0Z" transform="translate(-0.27 -50.71)" fill="#007ec4"/><path d="M499.74,310.42h1.45v15.1l8-8.7H511l-5.57,6,5.69,8.29h-1.78l-4.94-7.23-3.24,3.54v3.69h-1.45Z" transform="translate(-0.27 -50.71)" fill="#007ec4"/><path d="M514.27,326.06v-9.24h1.42V326c0,2.48,1.23,4.14,3.75,4.14,3.32,0,4.69-2.66,4.69-5.86v-7.44h1.43v14.3h-1.32l-.11-2.69a5.08,5.08,0,0,1-4.77,3.09C516.12,331.52,514.27,329.26,514.27,326.06Z" transform="translate(-0.27 -50.71)" fill="#007ec4"/><path d="M530.88,316.82h1.32l.11,2.72a5.46,5.46,0,0,1,4.89-3.12,5.8,5.8,0,0,1,3.92,1.38,7.74,7.74,0,0,1,2.4,6.15,8.06,8.06,0,0,1-2.26,6.06,5.72,5.72,0,0,1-4,1.51,5.37,5.37,0,0,1-4.92-3v8.29h-1.43Zm9.55,12a7.05,7.05,0,0,0,1.63-4.86,6.57,6.57,0,0,0-1.94-5.11,4.34,4.34,0,0,0-3-1,4.26,4.26,0,0,0-3,1.17,6.62,6.62,0,0,0-1.89,5,6.36,6.36,0,0,0,1.86,5,4.41,4.41,0,0,0,3.09,1.14A4.15,4.15,0,0,0,540.43,328.83Z" transform="translate(-0.27 -50.71)" fill="#007ec4"/><path d="M551.82,312.28v-1.43h15.24v1.43h-6.89v18.84h-1.49V312.28Z" transform="translate(-0.27 -50.71)" fill="#007ec4"/><path d="M566.52,327.15c0-2.55,1.94-4.12,4.8-4.32l5.26-.37V321.2c0-2.4-1.74-3.43-3.94-3.43s-3.92,1-4.06,3.17h-1.43c.2-2.94,2.57-4.52,5.43-4.52,3.26,0,5.43,1.61,5.43,4.89v7.07c0,1,.14,1.54,1.12,1.54a1.84,1.84,0,0,0,.4,0v1.26a2.56,2.56,0,0,1-.69.09c-1.77,0-2.26-1.35-2.26-2.86a5.35,5.35,0,0,1-5.15,3.14C568.66,331.52,566.52,329.84,566.52,327.15Zm10.06-2.63v-.75l-5.12.32c-2.2.14-3.49,1.34-3.49,3,0,2,1.55,3.09,3.58,3.09C575.15,330.21,576.58,327.29,576.58,324.52Z" transform="translate(-0.27 -50.71)" fill="#007ec4"/><path d="M584.82,328.32l-.11,2.8h-1.32v-20.7h1.43v9.24a5.28,5.28,0,0,1,4.92-3.24,5.73,5.73,0,0,1,4,1.49,8.28,8.28,0,0,1,2.29,6.09,7.91,7.91,0,0,1-2.43,6.18,5.78,5.78,0,0,1-3.92,1.34A5.29,5.29,0,0,1,584.82,328.32Zm7.81.8a6.76,6.76,0,0,0,1.94-5.15,6.94,6.94,0,0,0-1.63-4.89,4.79,4.79,0,0,0-6.29-.14,6.42,6.42,0,0,0-1.86,5,6.57,6.57,0,0,0,1.89,5,4.27,4.27,0,0,0,3,1.14A4.32,4.32,0,0,0,592.63,329.12Z" transform="translate(-0.27 -50.71)" fill="#007ec4"/><path d="M600.35,328.26V310.42h1.43v17.79c0,1,.29,1.71,1.49,1.71a8.24,8.24,0,0,0,1.23-.08v1.28a4.4,4.4,0,0,1-1.29.17C601.38,331.29,600.35,330.35,600.35,328.26Z" transform="translate(-0.27 -50.71)" fill="#007ec4"/><path d="M608.56,329.52a8.41,8.41,0,0,1-1.89-5.49,8.16,8.16,0,0,1,1.43-5.09,6,6,0,0,1,5-2.52c3.95,0,6.32,3.15,6.32,6.95,0,.35,0,.55,0,.95H608.1c.06,3.17,1.92,5.83,5.12,5.83a4.32,4.32,0,0,0,4.37-3.32h1.49a5.87,5.87,0,0,1-5.86,4.69A6.17,6.17,0,0,1,608.56,329.52Zm9.38-6.49c-.06-2.72-1.75-5.26-4.84-5.26s-4.91,2.46-5,5.26Z" transform="translate(-0.27 -50.71)" fill="#007ec4"/><path d="M622.37,326.78h1.46c.23,2.34,2.09,3.37,4.43,3.37s4.15-1,4.15-3c0-1.26-.89-2.32-2.63-2.55l-2.78-.37c-2.4-.31-4-1.46-4-3.63,0-2.55,2.46-4.21,5.15-4.21,3.09,0,5.32,1.78,5.4,4.35h-1.43c-.2-2.06-1.88-3-4-3s-3.69,1.11-3.69,2.72c0,1.17.63,2.05,2.77,2.34l2.72.37c2.69.37,4,2.17,4,3.89,0,2.92-2.63,4.43-5.61,4.43C624.86,331.52,622.51,329.72,622.37,326.78Z" transform="translate(-0.27 -50.71)" fill="#007ec4"/><line x1="1" y1="385.99" x2="449.07" y2="385.99" fill="none" stroke="#000" stroke-linecap="round" stroke-linejoin="round" stroke-width="2"/><line x1="1617.06" y1="385.99" x2="2039.46" y2="385.99" fill="none" stroke="#000" stroke-linecap="round" stroke-linejoin="round" stroke-width="2"/><path d="M90.5,410.12c3.41,0,5.26,1.76,5.26,4.44a4.22,4.22,0,0,1-3.65,4.16l3.52,7H94.37L91,419H86v6.73H84.8v-15.6Zm4.07,4.44c0-2.2-1.5-3.36-4.07-3.36H86v6.73H90.5C93.07,417.93,94.57,416.76,94.57,414.56Z" transform="translate(-0.27 -50.71)"/><path d="M99.52,424.49a6.52,6.52,0,0,1-1.45-4.23,6.24,6.24,0,0,1,1.1-3.91,4.61,4.61,0,0,1,3.85-1.94c3,0,4.86,2.42,4.86,5.35,0,.26,0,.42,0,.72H99.17c0,2.45,1.47,4.49,3.94,4.49a3.32,3.32,0,0,0,3.36-2.55h1.15a4.52,4.52,0,0,1-4.51,3.61A4.79,4.79,0,0,1,99.52,424.49Zm7.22-5c0-2.09-1.35-4.05-3.72-4.05a3.89,3.89,0,0,0-3.83,4.05Z" transform="translate(-0.27 -50.71)"/><path d="M110.19,427.28a2.55,2.55,0,0,1,1.94-2.46,1.81,1.81,0,0,1-1.46-1.72,2.1,2.1,0,0,1,1.54-1.93,3.66,3.66,0,0,1-1.27-2.89,3.88,3.88,0,0,1,4.11-3.87,4.87,4.87,0,0,1,2.64.77,2.15,2.15,0,0,1,2.16-1.52,1.86,1.86,0,0,1,.42,0v.92a2.82,2.82,0,0,0-.42,0,1.45,1.45,0,0,0-1.52,1.19,3.69,3.69,0,0,1,.88,2.48c0,2.38-1.87,3.81-4.16,3.81a4.66,4.66,0,0,1-2.24-.53,1.54,1.54,0,0,0-1.15,1.32c0,1,1.1,1.15,2,1.15h2.27a4.78,4.78,0,0,1,3.5,1,2.56,2.56,0,0,1,.83,2c0,2.46-2.57,3.37-5.19,3.37S110.19,429.46,110.19,427.28Zm9-.2c0-1.58-1.43-2-3.14-2h-3a2.09,2.09,0,0,0-1.83,2.11c0,1.72,1.92,2.25,3.85,2.25C117.16,429.42,119.14,428.89,119.14,427.08Zm-1-8.8a3,3,0,0,0-6.09,0,3.05,3.05,0,0,0,6.09,0Z" transform="translate(-0.27 -50.71)"/><path d="M124.31,410.12v1.63h-1.49v-1.63Zm-.17,4.6v11H123v-11Z" transform="translate(-0.27 -50.71)"/><path d="M127.22,422.38h1.12c.18,1.8,1.61,2.59,3.41,2.59s3.19-.79,3.19-2.29a2,2,0,0,0-2-1.95l-2.14-.29c-1.85-.24-3.1-1.12-3.1-2.8,0-1.95,1.89-3.23,4-3.23,2.38,0,4.09,1.36,4.16,3.34h-1.1c-.16-1.58-1.45-2.31-3.06-2.31s-2.84.86-2.84,2.09c0,.91.49,1.59,2.14,1.81l2.09.29a3.14,3.14,0,0,1,3,3c0,2.24-2,3.41-4.31,3.41C129.13,426,127.33,424.64,127.22,422.38Z" transform="translate(-0.27 -50.71)"/><path d="M140.15,422.86v-7.13h-2.59v-1h2.59v-3l1.1-.26v3.3h3.46v1h-3.46v7c0,1.21.38,2.13,2,2.13a6.8,6.8,0,0,0,1.63-.2v1a5.37,5.37,0,0,1-1.71.26A2.69,2.69,0,0,1,140.15,422.86Z" transform="translate(-0.27 -50.71)"/><path d="M147.88,424.49a6.47,6.47,0,0,1-1.46-4.23,6.24,6.24,0,0,1,1.1-3.91,4.64,4.64,0,0,1,3.85-1.94c3,0,4.87,2.42,4.87,5.35a6.11,6.11,0,0,1,0,.72h-8.69c0,2.45,1.48,4.49,3.94,4.49a3.33,3.33,0,0,0,3.37-2.55H156a4.52,4.52,0,0,1-4.51,3.61A4.77,4.77,0,0,1,147.88,424.49Zm7.21-5c0-2.09-1.34-4.05-3.72-4.05a3.88,3.88,0,0,0-3.82,4.05Z" transform="translate(-0.27 -50.71)"/><path d="M159.49,414.72h1l.09,2.26a3.57,3.57,0,0,1,3.54-2.37,3.35,3.35,0,0,1,1,.11v1a5,5,0,0,0-1.08-.11c-2.55,0-3.5,2.12-3.5,4.56v5.5h-1.1Z" transform="translate(-0.27 -50.71)"/><path d="M166.62,422.38h1.12c.18,1.8,1.61,2.59,3.41,2.59s3.19-.79,3.19-2.29a2,2,0,0,0-2-1.95l-2.14-.29c-1.84-.24-3.1-1.12-3.1-2.8,0-1.95,1.89-3.23,4-3.23,2.38,0,4.09,1.36,4.16,3.34h-1.1c-.15-1.58-1.45-2.31-3.06-2.31s-2.84.86-2.84,2.09c0,.91.49,1.59,2.14,1.81l2.09.29a3.13,3.13,0,0,1,3,3c0,2.24-2,3.41-4.31,3.41C168.53,426,166.73,424.64,166.62,422.38Z" transform="translate(-0.27 -50.71)"/><path d="M187.34,419.18l-4.09-4,.7-.68,4.05,4,4.05-4,.68.68-4,4,4,4.1-.68.68L188,419.87,183.93,424l-.68-.68Z" transform="translate(-0.27 -50.71)"/><path d="M195.5,421.21h1.13a3.6,3.6,0,0,0,3.85,3.76c2.33,0,3.78-1.38,3.78-3.32,0-2.29-1.54-3.35-3.85-3.35h-.86v-1.05h.86c2.09,0,3.52-1,3.52-3a3.19,3.19,0,0,0-3.43-3,3.45,3.45,0,0,0-3.76,3.52h-1.13a4.58,4.58,0,0,1,4.89-4.58c2.55,0,4.55,1.65,4.55,4.07a3.5,3.5,0,0,1-2.66,3.55,3.85,3.85,0,0,1,3,3.87c0,2.53-2.14,4.38-4.93,4.38A4.67,4.67,0,0,1,195.5,421.21Z" transform="translate(-0.27 -50.71)"/><path d="M208,424.53l6.36-6.86a4.9,4.9,0,0,0,1.52-3.35,3,3,0,0,0-3.32-3.1c-2.18,0-3.41,1.43-3.41,3.92H208c0-3.08,1.87-5,4.58-5a4.1,4.1,0,0,1,4.42,4.16,6,6,0,0,1-1.76,4l-6,6.36h8.12v1.06H208Z" transform="translate(-0.27 -50.71)"/><path d="M1787.89,410.12c3.41,0,5.26,1.76,5.26,4.44a4.23,4.23,0,0,1-3.66,4.16l3.53,7h-1.26L1788.4,419h-5.07v6.73h-1.14v-15.6Zm4.07,4.44c0-2.2-1.5-3.36-4.07-3.36h-4.56v6.73h4.56C1790.46,417.93,1792,416.76,1792,414.56Z" transform="translate(-0.27 -50.71)"/><path d="M1796.91,424.49a6.52,6.52,0,0,1-1.45-4.23,6.24,6.24,0,0,1,1.1-3.91,4.61,4.61,0,0,1,3.85-1.94c3,0,4.86,2.42,4.86,5.35,0,.26,0,.42,0,.72h-8.69c0,2.45,1.47,4.49,3.93,4.49a3.32,3.32,0,0,0,3.37-2.55H1805a4.53,4.53,0,0,1-4.52,3.61A4.77,4.77,0,0,1,1796.91,424.49Zm7.22-5c-.05-2.09-1.35-4.05-3.72-4.05a3.88,3.88,0,0,0-3.83,4.05Z" transform="translate(-0.27 -50.71)"/><path d="M1807.53,422.38h1.13c.17,1.8,1.6,2.59,3.41,2.59s3.19-.79,3.19-2.29a2,2,0,0,0-2-1.95l-2.13-.29c-1.85-.24-3.1-1.12-3.1-2.8,0-1.95,1.89-3.23,4-3.23,2.37,0,4.09,1.36,4.15,3.34H1815c-.15-1.58-1.45-2.31-3-2.31s-2.84.86-2.84,2.09c0,.91.48,1.59,2.13,1.81l2.09.29a3.14,3.14,0,0,1,3,3c0,2.24-2,3.41-4.31,3.41C1809.45,426,1807.64,424.64,1807.53,422.38Z" transform="translate(-0.27 -50.71)"/><path d="M1819.33,421.83v-7.11h1.1v7c0,1.91.94,3.19,2.88,3.19,2.55,0,3.61-2.05,3.61-4.51v-5.72h1.1v11h-1l-.09-2.07a3.94,3.94,0,0,1-3.68,2.38C1820.76,426,1819.33,424.29,1819.33,421.83Z" transform="translate(-0.27 -50.71)"/><path d="M1832.06,423.52V409.79h1.1v13.69c0,.74.22,1.32,1.15,1.32a5.83,5.83,0,0,0,.94-.07v1a3.27,3.27,0,0,1-1,.13C1832.86,425.85,1832.06,425.13,1832.06,423.52Z" transform="translate(-0.27 -50.71)"/><path d="M1838.8,422.86v-7.13h-2.6v-1h2.6v-3l1.1-.26v3.3h3.45v1h-3.45v7c0,1.21.37,2.13,2,2.13a6.78,6.78,0,0,0,1.62-.2v1a5.37,5.37,0,0,1-1.71.26A2.68,2.68,0,0,1,1838.8,422.86Z" transform="translate(-0.27 -50.71)"/><path d="M1845.15,422.38h1.13c.17,1.8,1.6,2.59,3.41,2.59s3.19-.79,3.19-2.29a2,2,0,0,0-2-1.95l-2.13-.29c-1.85-.24-3.1-1.12-3.1-2.8,0-1.95,1.89-3.23,4-3.23,2.37,0,4.09,1.36,4.16,3.34h-1.11c-.15-1.58-1.45-2.31-3.05-2.31s-2.84.86-2.84,2.09c0,.91.48,1.59,2.13,1.81l2.09.29a3.14,3.14,0,0,1,3,3c0,2.24-2,3.41-4.31,3.41C1847.07,426,1845.26,424.64,1845.15,422.38Z" transform="translate(-0.27 -50.71)"/><path d="M1861.63,421.69a4.18,4.18,0,0,1,2.84-3.94,3.81,3.81,0,0,1-2.49-3.52c0-2.55,2.09-4.07,4.71-4.07s4.71,1.52,4.71,4.07a3.81,3.81,0,0,1-2.49,3.52,4.18,4.18,0,0,1,2.84,3.94c0,2.73-2.33,4.34-5.06,4.34S1861.63,424.42,1861.63,421.69Zm9-.06c0-2.18-1.76-3.39-3.94-3.39s-3.94,1.21-3.94,3.39,1.76,3.39,3.94,3.39S1870.63,423.81,1870.63,421.63Zm-.37-7.44c0-2-1.61-3-3.57-3s-3.56,1.08-3.56,3,1.56,3.08,3.56,3.08S1870.26,416.19,1870.26,414.19Z" transform="translate(-0.27 -50.71)"/><path d="M1880.6,410.12h5.91c2.56,0,4.6,1.34,4.6,3.87a3.42,3.42,0,0,1-3,3.54,3.77,3.77,0,0,1,3.34,3.88c0,2.84-2.13,4.31-5,4.31h-5.91Zm5.58,6.91c2.14,0,3.79-.82,3.79-3s-1.81-2.79-3.57-2.79h-4.66V417Zm.16,7.61c2,0,4-.81,4-3.28s-1.87-3.23-4.12-3.23h-4.44v6.51Z" transform="translate(-0.27 -50.71)"/><path d="M1896.17,410.12v1.63h-1.49v-1.63Zm-.18,4.6v11h-1.12v-11Z" transform="translate(-0.27 -50.71)"/><path d="M1901.19,422.86v-7.13h-2.6v-1h2.6v-3l1.1-.26v3.3h3.45v1h-3.45v7c0,1.21.37,2.13,2,2.13a6.93,6.93,0,0,0,1.63-.2v1a5.39,5.39,0,0,1-1.72.26A2.68,2.68,0,0,1,1901.19,422.86Z" transform="translate(-0.27 -50.71)"/><path d="M1907.54,422.38h1.13c.17,1.8,1.6,2.59,3.41,2.59s3.19-.79,3.19-2.29a2,2,0,0,0-2-1.95l-2.13-.29c-1.85-.24-3.1-1.12-3.1-2.8,0-1.95,1.89-3.23,4-3.23,2.37,0,4.09,1.36,4.16,3.34H1915c-.16-1.58-1.46-2.31-3.06-2.31s-2.84.86-2.84,2.09c0,.91.48,1.59,2.13,1.81l2.09.29a3.14,3.14,0,0,1,3,3c0,2.24-2,3.41-4.31,3.41C1909.46,426,1907.65,424.64,1907.54,422.38Z" transform="translate(-0.27 -50.71)"/><path d="M1928.27,419.18l-4.09-4,.7-.68,4,4,4-4,.68.68-4.05,4,4.05,4.1-.68.68-4-4.09-4.07,4.09-.68-.68Z" transform="translate(-0.27 -50.71)"/><path d="M1935.81,414.67v-1.23l4.18-3h1v15.25h-1.11V411.84Z" transform="translate(-0.27 -50.71)"/><path d="M1944.61,421.69a4.18,4.18,0,0,1,2.84-3.94,3.81,3.81,0,0,1-2.48-3.52c0-2.55,2.09-4.07,4.7-4.07s4.71,1.52,4.71,4.07a3.81,3.81,0,0,1-2.48,3.52,4.18,4.18,0,0,1,2.84,3.94c0,2.73-2.34,4.34-5.07,4.34S1944.61,424.42,1944.61,421.69Zm9-.06c0-2.18-1.76-3.39-3.94-3.39s-3.93,1.21-3.93,3.39,1.76,3.39,3.93,3.39S1953.61,423.81,1953.61,421.63Zm-.37-7.44c0-2-1.61-3-3.57-3s-3.56,1.08-3.56,3,1.56,3.08,3.56,3.08S1953.24,416.19,1953.24,414.19Z" transform="translate(-0.27 -50.71)"/><path d="M725.88,420.81h-7.39l-1.87,4.91h-1.21l6.05-15.6h1.39l6.12,15.6h-1.19Zm-.41-1.05-3.33-8.58-3.25,8.58Z" transform="translate(-0.27 -50.71)"/><path d="M732.29,425a6.05,6.05,0,0,1-1.85-4.73,6.26,6.26,0,0,1,1.76-4.62,4.55,4.55,0,0,1,3.21-1.21,3.85,3.85,0,0,1,3.65,2.22v-6.84h1.12v15.93h-1l-.09-2.09a4.13,4.13,0,0,1-3.74,2.4A4.48,4.48,0,0,1,732.29,425Zm5.36-.92a5,5,0,0,0,1.43-3.83,4.86,4.86,0,0,0-1.4-3.85,3.39,3.39,0,0,0-2.38-.88,3.25,3.25,0,0,0-2.46,1,5.43,5.43,0,0,0-1.28,3.74,5,5,0,0,0,1.5,3.94,3.47,3.47,0,0,0,2.28.79A3.28,3.28,0,0,0,737.65,424.05Z" transform="translate(-0.27 -50.71)"/><path d="M745.38,425a6.05,6.05,0,0,1-1.85-4.73,6.26,6.26,0,0,1,1.76-4.62,4.55,4.55,0,0,1,3.21-1.21,3.85,3.85,0,0,1,3.65,2.22v-6.84h1.12v15.93h-1l-.09-2.09a4.13,4.13,0,0,1-3.74,2.4A4.48,4.48,0,0,1,745.38,425Zm5.36-.92a5,5,0,0,0,1.43-3.83,4.86,4.86,0,0,0-1.4-3.85,3.39,3.39,0,0,0-2.38-.88,3.25,3.25,0,0,0-2.46,1,5.43,5.43,0,0,0-1.28,3.74,5,5,0,0,0,1.5,3.94,3.47,3.47,0,0,0,2.28.79A3.28,3.28,0,0,0,750.74,424.05Z" transform="translate(-0.27 -50.71)"/><path d="M757.36,414.72h1l.08,2.26a3.58,3.58,0,0,1,3.55-2.37,3.29,3.29,0,0,1,1,.11v1a4.89,4.89,0,0,0-1.08-.11c-2.55,0-3.5,2.12-3.5,4.56v5.5h-1.1Z" transform="translate(-0.27 -50.71)"/><path d="M765.9,424.49a6.52,6.52,0,0,1-1.45-4.23,6.24,6.24,0,0,1,1.1-3.91,4.61,4.61,0,0,1,3.85-1.94c3,0,4.86,2.42,4.86,5.35,0,.26,0,.42,0,.72h-8.69c0,2.45,1.47,4.49,3.94,4.49a3.31,3.31,0,0,0,3.36-2.55H774a4.52,4.52,0,0,1-4.51,3.61A4.79,4.79,0,0,1,765.9,424.49Zm7.22-5c0-2.09-1.34-4.05-3.72-4.05a3.89,3.89,0,0,0-3.83,4.05Z" transform="translate(-0.27 -50.71)"/><path d="M776.53,422.38h1.12c.17,1.8,1.61,2.59,3.41,2.59s3.19-.79,3.19-2.29a2,2,0,0,0-2-1.95l-2.14-.29c-1.85-.24-3.1-1.12-3.1-2.8,0-1.95,1.89-3.23,4-3.23,2.38,0,4.09,1.36,4.16,3.34H784c-.16-1.58-1.45-2.31-3.06-2.31s-2.84.86-2.84,2.09c0,.91.48,1.59,2.14,1.81l2.09.29a3.14,3.14,0,0,1,3,3c0,2.24-2,3.41-4.31,3.41C778.44,426,776.64,424.64,776.53,422.38Z" transform="translate(-0.27 -50.71)"/><path d="M787.53,422.38h1.12c.17,1.8,1.61,2.59,3.41,2.59s3.19-.79,3.19-2.29a2,2,0,0,0-2-1.95l-2.14-.29c-1.85-.24-3.1-1.12-3.1-2.8,0-1.95,1.89-3.23,4-3.23,2.38,0,4.09,1.36,4.16,3.34H795c-.16-1.58-1.45-2.31-3.06-2.31s-2.84.86-2.84,2.09c0,.91.48,1.59,2.14,1.81l2.09.29a3.14,3.14,0,0,1,3,3c0,2.24-2,3.41-4.31,3.41C789.44,426,787.64,424.64,787.53,422.38Z" transform="translate(-0.27 -50.71)"/><path d="M803.26,414.67v-1.23l4.18-3h1v15.25h-1.1V411.84Z" transform="translate(-0.27 -50.71)"/><path d="M813.53,424.16c-1.17-1.56-1.41-3.9-1.41-6.08s.31-4.86,1.81-6.46a4.64,4.64,0,0,1,3.45-1.46,4.22,4.22,0,0,1,4.56,4h-1.13a3.08,3.08,0,0,0-3.43-2.93c-3.41,0-4.11,3.67-4.11,7.31a4.22,4.22,0,0,1,4-2.69,4.68,4.68,0,0,1,5,5.06,4.81,4.81,0,0,1-5,5.13A4.66,4.66,0,0,1,813.53,424.16Zm7.64-3.26c0-2.11-1.21-4-3.85-4a3.8,3.8,0,0,0-3.75,4c0,2.13,1.32,4.11,3.77,4.11C820,425,821.17,423,821.17,420.9Z" transform="translate(-0.27 -50.71)"/><path d="M831,410.12H837c2.55,0,4.6,1.34,4.6,3.87a3.42,3.42,0,0,1-3,3.54,3.77,3.77,0,0,1,3.34,3.88c0,2.84-2.13,4.31-4.95,4.31H831Zm5.59,6.91c2.13,0,3.78-.82,3.78-3s-1.8-2.79-3.56-2.79h-4.66V417Zm.15,7.61c2,0,4-.81,4-3.28s-1.87-3.23-4.11-3.23h-4.44v6.51Z" transform="translate(-0.27 -50.71)"/><path d="M846.62,410.12v1.63h-1.5v-1.63Zm-.18,4.6v11h-1.12v-11Z" transform="translate(-0.27 -50.71)"/><path d="M851.63,422.86v-7.13H849v-1h2.59v-3l1.1-.26v3.3h3.46v1h-3.46v7c0,1.21.38,2.13,2,2.13a6.8,6.8,0,0,0,1.63-.2v1a5.37,5.37,0,0,1-1.71.26A2.69,2.69,0,0,1,851.63,422.86Z" transform="translate(-0.27 -50.71)"/><path d="M858,422.38h1.12c.18,1.8,1.61,2.59,3.41,2.59s3.19-.79,3.19-2.29a2,2,0,0,0-2-1.95l-2.13-.29c-1.85-.24-3.11-1.12-3.11-2.8,0-1.95,1.9-3.23,4-3.23,2.38,0,4.1,1.36,4.16,3.34h-1.1c-.15-1.58-1.45-2.31-3.06-2.31s-2.84.86-2.84,2.09c0,.91.49,1.59,2.14,1.81l2.09.29a3.14,3.14,0,0,1,3,3c0,2.24-2,3.41-4.32,3.41C859.9,426,858.1,424.64,858,422.38Z" transform="translate(-0.27 -50.71)"/><path d="M1114.44,554.57l-4.1-4,.71-.68,4,4,4.05-4,.68.68-4,4,4,4.09-.68.68-4.05-4.09-4.07,4.09-.69-.68Z" transform="translate(-0.27 -50.71)" fill="#007ec4"/><path d="M1129.64,557.52H1122V556.2l6.6-10.34h1.3l-6.78,10.56h6.49v-5h1.12v5H1133v1.1h-2.27v3.58h-1.12Z" transform="translate(-0.27 -50.71)" fill="#007ec4"/><line x1="675.84" y1="386" x2="906.74" y2="386" fill="none" stroke="#000" stroke-linecap="round" stroke-linejoin="round" stroke-width="2"/><path d="M1199.28,410.12c3.41,0,5.26,1.76,5.26,4.44a4.22,4.22,0,0,1-3.65,4.16l3.52,7h-1.25l-3.37-6.73h-5.06v6.73h-1.15v-15.6Zm4.07,4.44c0-2.2-1.49-3.36-4.07-3.36h-4.55v6.73h4.55C1201.86,417.93,1203.35,416.76,1203.35,414.56Z" transform="translate(-0.27 -50.71)"/><path d="M1208.3,424.49a6.52,6.52,0,0,1-1.45-4.23,6.24,6.24,0,0,1,1.1-3.91,4.62,4.62,0,0,1,3.85-1.94c3,0,4.86,2.42,4.86,5.35,0,.26,0,.42,0,.72H1208c0,2.45,1.47,4.49,3.94,4.49a3.33,3.33,0,0,0,3.37-2.55h1.14a4.52,4.52,0,0,1-4.51,3.61A4.81,4.81,0,0,1,1208.3,424.49Zm7.22-5c0-2.09-1.34-4.05-3.72-4.05a3.89,3.89,0,0,0-3.83,4.05Z" transform="translate(-0.27 -50.71)"/><path d="M1218.93,422.38h1.12c.18,1.8,1.61,2.59,3.41,2.59s3.19-.79,3.19-2.29a2,2,0,0,0-2-1.95l-2.14-.29c-1.85-.24-3.1-1.12-3.1-2.8,0-1.95,1.89-3.23,4-3.23,2.38,0,4.09,1.36,4.16,3.34h-1.1c-.16-1.58-1.45-2.31-3.06-2.31s-2.84.86-2.84,2.09c0,.91.49,1.59,2.14,1.81l2.09.29a3.13,3.13,0,0,1,3,3c0,2.24-2,3.41-4.31,3.41C1220.84,426,1219,424.64,1218.93,422.38Z" transform="translate(-0.27 -50.71)"/><path d="M1230.72,421.83v-7.11h1.1v7c0,1.91,1,3.19,2.88,3.19,2.56,0,3.61-2.05,3.61-4.51v-5.72h1.1v11h-1l-.09-2.07a3.91,3.91,0,0,1-3.67,2.38C1232.15,426,1230.72,424.29,1230.72,421.83Z" transform="translate(-0.27 -50.71)"/><path d="M1243.46,423.52V409.79h1.1v13.69c0,.74.22,1.32,1.14,1.32a6.07,6.07,0,0,0,1-.07v1a3.33,3.33,0,0,1-1,.13C1244.25,425.85,1243.46,425.13,1243.46,423.52Z" transform="translate(-0.27 -50.71)"/><path d="M1250.19,422.86v-7.13h-2.6v-1h2.6v-3l1.1-.26v3.3h3.45v1h-3.45v7c0,1.21.37,2.13,2,2.13a6.86,6.86,0,0,0,1.63-.2v1a5.39,5.39,0,0,1-1.72.26A2.69,2.69,0,0,1,1250.19,422.86Z" transform="translate(-0.27 -50.71)"/><path d="M1256.55,422.38h1.12c.18,1.8,1.61,2.59,3.41,2.59s3.19-.79,3.19-2.29a2,2,0,0,0-2-1.95l-2.14-.29c-1.85-.24-3.1-1.12-3.1-2.8,0-1.95,1.89-3.23,4-3.23,2.38,0,4.09,1.36,4.16,3.34H1264c-.16-1.58-1.45-2.31-3.06-2.31s-2.84.86-2.84,2.09c0,.91.49,1.59,2.14,1.81l2.09.29a3.13,3.13,0,0,1,3,3c0,2.24-2,3.41-4.31,3.41C1258.46,426,1256.66,424.64,1256.55,422.38Z" transform="translate(-0.27 -50.71)"/><path d="M1273,421.69a4.19,4.19,0,0,1,2.83-3.94,3.81,3.81,0,0,1-2.48-3.52c0-2.55,2.09-4.07,4.71-4.07s4.71,1.52,4.71,4.07a3.81,3.81,0,0,1-2.49,3.52,4.18,4.18,0,0,1,2.84,3.94c0,2.73-2.33,4.34-5.06,4.34S1273,424.42,1273,421.69Zm9-.06c0-2.18-1.76-3.39-3.94-3.39s-3.94,1.21-3.94,3.39,1.76,3.39,3.94,3.39S1282,423.81,1282,421.63Zm-.38-7.44c0-2-1.61-3-3.56-3s-3.57,1.08-3.57,3,1.56,3.08,3.57,3.08S1281.65,416.19,1281.65,414.19Z" transform="translate(-0.27 -50.71)"/><path d="M1292,410.12h5.92c2.55,0,4.6,1.34,4.6,3.87a3.42,3.42,0,0,1-3,3.54,3.77,3.77,0,0,1,3.35,3.88c0,2.84-2.13,4.31-4.95,4.31H1292Zm5.59,6.91c2.13,0,3.78-.82,3.78-3s-1.8-2.79-3.56-2.79h-4.67V417Zm.15,7.61c2,0,4-.81,4-3.28s-1.87-3.23-4.11-3.23h-4.45v6.51Z" transform="translate(-0.27 -50.71)"/><path d="M1307.57,410.12v1.63h-1.5v-1.63Zm-.18,4.6v11h-1.12v-11Z" transform="translate(-0.27 -50.71)"/><path d="M1312.58,422.86v-7.13H1310v-1h2.59v-3l1.1-.26v3.3h3.46v1h-3.46v7c0,1.21.38,2.13,2,2.13a6.8,6.8,0,0,0,1.63-.2v1a5.39,5.39,0,0,1-1.72.26A2.69,2.69,0,0,1,1312.58,422.86Z" transform="translate(-0.27 -50.71)"/><path d="M1318.94,422.38h1.12c.18,1.8,1.61,2.59,3.41,2.59s3.19-.79,3.19-2.29a2,2,0,0,0-2-1.95l-2.14-.29c-1.85-.24-3.1-1.12-3.1-2.8,0-1.95,1.89-3.23,4-3.23,2.38,0,4.09,1.36,4.16,3.34h-1.1c-.15-1.58-1.45-2.31-3.06-2.31s-2.84.86-2.84,2.09c0,.91.49,1.59,2.14,1.81l2.09.29a3.13,3.13,0,0,1,3,3c0,2.24-2,3.41-4.31,3.41C1320.85,426,1319.05,424.64,1318.94,422.38Z" transform="translate(-0.27 -50.71)"/><path d="M1339.66,419.18l-4.09-4,.71-.68,4,4,4-4,.68.68-4,4,4,4.1-.68.68-4-4.09-4.07,4.09-.68-.68Z" transform="translate(-0.27 -50.71)"/><path d="M1354.87,422.13h-7.62v-1.32l6.6-10.34h1.3L1348.37,421h6.5v-5H1356v5h2.26v1.1H1356v3.59h-1.12Z" transform="translate(-0.27 -50.71)"/><line x1="1133.51" y1="386" x2="1390.29" y2="386" fill="none" stroke="#000" stroke-linecap="round" stroke-linejoin="round" stroke-width="2"/><path d="M1563.55,480l-4.09-4,.7-.68,4,4,4-4,.68.68-4,4,4,4.1-.68.68-4-4.09-4.07,4.09-.68-.68Z" transform="translate(-0.27 -50.71)" fill="#007ec4"/><path d="M1571.1,475.44v-1.23l4.18-3h1v15.25h-1.1V472.61Z" transform="translate(-0.27 -50.71)" fill="#007ec4"/><path d="M1579.9,482.46a4.19,4.19,0,0,1,2.83-3.94,3.81,3.81,0,0,1-2.48-3.52c0-2.55,2.09-4.07,4.71-4.07s4.71,1.52,4.71,4.07a3.81,3.81,0,0,1-2.49,3.52,4.18,4.18,0,0,1,2.84,3.94c0,2.73-2.33,4.34-5.06,4.34S1579.9,485.19,1579.9,482.46Zm9-.06c0-2.18-1.76-3.39-3.94-3.39s-3.94,1.21-3.94,3.39,1.76,3.39,3.94,3.39S1588.9,484.58,1588.9,482.4Zm-.38-7.44c0-2-1.61-3-3.56-3s-3.57,1.08-3.57,3S1583,478,1585,478,1588.52,477,1588.52,475Z" transform="translate(-0.27 -50.71)" fill="#007ec4"/></svg>